<svg viewBox="0 0 24 24" xmlns="http://www.w3.org/2000/svg" xmlns:xlink="http://www.w3.org/1999/xlink" width="24.000000" height="24.000000" fill="none" clip-path="url(#clipPath_15)" customFrame="url(#clipPath_15)">
	<mask id="mask_2" width="24.000000" height="23.999994" x="0.000000" y="0.000000" maskUnits="userSpaceOnUse">
		<g filter="url(#pixso_custom_mask_type_alpha)">
			<path id="Social media Mask" d="M0 10.9714C0 7.13107 0 5.21089 0.747384 3.74406C1.4048 2.45381 2.45381 1.4048 3.74407 0.747384C5.21089 0 7.13107 0 10.9714 0L13.0286 0C16.8689 0 18.7891 0 20.2559 0.747384C21.5462 1.4048 22.5952 2.45381 23.2526 3.74406C24 5.21089 24 7.13107 24 10.9714L24 13.0286C24 16.8689 24 18.7891 23.2526 20.2559C22.5952 21.5462 21.5462 22.5952 20.2559 23.2526C18.7891 24 16.8689 24 13.0286 24L10.9714 24C7.13107 24 5.21089 24 3.74407 23.2526C2.45381 22.5952 1.4048 21.5462 0.747384 20.2559C0 18.7891 0 16.8689 0 13.0286L0 10.9714Z" fill="rgb(0,0,0)" fill-rule="nonzero" />
		</g>
	</mask>
	<defs>
		<clipPath id="clipPath_15">
			<rect width="24.000000" height="24.000000" x="0.000000" y="0.000000" rx="4.500000" fill="rgb(255,255,255)" />
		</clipPath>
		<filter id="pixso_custom_mask_type_alpha">
			<feColorMatrix type="matrix" values="0 0 0 0 1 0 0 0 0 1 0 0 0 0 1 0 0 0 1 0 " />
		</filter>
	</defs>
	<rect id="Socials" width="24.000000" height="24.000000" x="0.000000" y="0.000000" rx="4.500000" />
	<g id="Group 1948755016" mask="url(#mask_2)">
		<g id="Group 1948754984">
			<rect id="Rectangle 240647456" width="24.000000" height="23.999994" x="0.000000" y="0.000000" fill="rgb(172,174,180)" />
			<path id="Vector" d="M16.1161 5.52832L18.3111 5.52832L13.5158 11.0091L19.1571 18.4671L14.74 18.4671L11.2803 13.9438L7.32172 18.4671L5.12544 18.4671L10.2545 12.6048L4.84278 5.52832L9.37202 5.52832L12.4992 9.66276L16.1161 5.52832ZM15.3458 17.1533L16.562 17.1533L8.71115 6.7731L7.40599 6.7731L15.3458 17.1533Z" fill="rgb(255,255,255)" fill-rule="nonzero" />
		</g>
	</g>
</svg>
