<svg viewBox="0 0 24 24" xmlns="http://www.w3.org/2000/svg" xmlns:xlink="http://www.w3.org/1999/xlink" width="24.000000" height="24.000000" fill="none" clip-path="url(#clipPath_18)" customFrame="url(#clipPath_18)">
	<mask id="mask_5" width="24.000000" height="23.999994" x="0.000000" y="0.000000" maskUnits="userSpaceOnUse">
		<g filter="url(#pixso_custom_mask_type_alpha)">
			<path id="Social media Mask" d="M0 10.9714C0 7.13107 0 5.21089 0.747384 3.74406C1.4048 2.45381 2.45381 1.4048 3.74407 0.747384C5.21089 0 7.13107 0 10.9714 0L13.0286 0C16.8689 0 18.7891 0 20.2559 0.747384C21.5462 1.4048 22.5952 2.45381 23.2526 3.74406C24 5.21089 24 7.13107 24 10.9714L24 13.0286C24 16.8689 24 18.7891 23.2526 20.2559C22.5952 21.5462 21.5462 22.5952 20.2559 23.2526C18.7891 24 16.8689 24 13.0286 24L10.9714 24C7.13107 24 5.21089 24 3.74407 23.2526C2.45381 22.5952 1.4048 21.5462 0.747384 20.2559C0 18.7891 0 16.8689 0 13.0286L0 10.9714Z" fill="rgb(0,0,0)" fill-rule="nonzero" />
		</g>
	</mask>
	<defs>
		<clipPath id="clipPath_18">
			<rect width="24.000000" height="24.000000" x="0.000000" y="0.000000" rx="4.500000" fill="rgb(255,255,255)" />
		</clipPath>
		<filter id="pixso_custom_mask_type_alpha">
			<feColorMatrix type="matrix" values="0 0 0 0 1 0 0 0 0 1 0 0 0 0 1 0 0 0 1 0 " />
		</filter>
	</defs>
	<rect id="Socials" width="24.000000" height="24.000000" x="0.000000" y="0.000000" rx="4.500000" />
	<g id="Group 1948755017" mask="url(#mask_5)">
		<g id="Group 1948754985">
			<rect id="Rectangle 240647456" width="24.000000" height="23.999994" x="0.000000" y="0.000000" fill="rgb(172,174,180)" />
			<path id="Subtract" d="M11.9893 6C12.0322 6.00001 17.3525 6.00168 18.6787 6.36328C19.4159 6.56134 19.9992 7.14463 20.1973 7.88184C20.5603 9.22432 20.5713 12.0078 20.5713 12.0078C20.5713 12.0284 20.5698 14.8073 20.208 16.1338C20.0099 16.871 19.4267 17.4543 18.6895 17.6523C17.3574 18.0153 12.0006 18.0156 12 18.0156C12 18.0156 6.64264 18.0153 5.31055 17.6523C4.57334 17.4543 3.99005 16.871 3.79199 16.1338C3.43024 14.7964 3.42872 12.0283 3.42871 12.0078C3.42871 12.0078 3.42821 9.22401 3.78027 7.89258C3.97831 7.15545 4.56173 6.57214 5.29883 6.37402C6.63021 6.01092 11.9893 6 11.9893 6ZM10.2832 14.582L14.7285 12.0078L10.2832 9.43262L10.2832 14.582Z" fill="rgb(255,255,255)" fill-rule="nonzero" />
		</g>
	</g>
</svg>
