<svg viewBox="0 0 24 24" xmlns="http://www.w3.org/2000/svg" xmlns:xlink="http://www.w3.org/1999/xlink" width="24.000000" height="24.000000" fill="none" clip-path="url(#clipPath_14)" customFrame="url(#clipPath_14)">
	<mask id="mask_1" width="24.000000" height="23.999994" x="0.000000" y="0.000000" maskUnits="userSpaceOnUse">
		<g filter="url(#pixso_custom_mask_type_alpha)">
			<path id="Social media Mask" d="M0 10.9714C0 7.13107 0 5.21089 0.747384 3.74406C1.4048 2.45381 2.45381 1.4048 3.74407 0.747384C5.21089 0 7.13107 0 10.9714 0L13.0286 0C16.8689 0 18.7891 0 20.2559 0.747384C21.5462 1.4048 22.5952 2.45381 23.2526 3.74406C24 5.21089 24 7.13107 24 10.9714L24 13.0286C24 16.8689 24 18.7891 23.2526 20.2559C22.5952 21.5462 21.5462 22.5952 20.2559 23.2526C18.7891 24 16.8689 24 13.0286 24L10.9714 24C7.13107 24 5.21089 24 3.74407 23.2526C2.45381 22.5952 1.4048 21.5462 0.747384 20.2559C0 18.7891 0 16.8689 0 13.0286L0 10.9714Z" fill="rgb(0,0,0)" fill-rule="nonzero" />
		</g>
	</mask>
	<defs>
		<clipPath id="clipPath_14">
			<rect width="24.000000" height="24.000000" x="0.000000" y="0.000000" rx="4.500000" fill="rgb(255,255,255)" />
		</clipPath>
		<filter id="pixso_custom_mask_type_alpha">
			<feColorMatrix type="matrix" values="0 0 0 0 1 0 0 0 0 1 0 0 0 0 1 0 0 0 1 0 " />
		</filter>
	</defs>
	<rect id="Socials" width="24.000000" height="24.000000" x="0.000000" y="0.000000" rx="4.500000" />
	<g id="Group 1948755012" mask="url(#mask_1)">
		<g id="Group 1948754980">
			<rect id="Rectangle 240647456" width="24.000000" height="23.999994" x="0.000000" y="0.000000" fill="rgb(172,174,180)" />
			<path id="Union" d="M2.57129 11.9999C2.57129 7.97887 2.57129 5.96838 3.63404 4.58337C3.90765 4.22681 4.22681 3.90765 4.58337 3.63404C5.96838 2.57129 7.97887 2.57129 11.9999 2.57129C16.0208 2.57129 18.0313 2.57129 19.4163 3.63404C19.7729 3.90765 20.0921 4.22681 20.3657 4.58337C21.4284 5.96838 21.4284 7.97887 21.4284 11.9999C21.4284 16.0208 21.4284 18.0313 20.3657 19.4163C20.0921 19.7729 19.7729 20.0921 19.4163 20.3657C18.0313 21.4284 16.0208 21.4284 11.9999 21.4284C7.97887 21.4284 5.96838 21.4284 4.58337 20.3657C4.22681 20.0921 3.90765 19.7729 3.63404 19.4163C2.57129 18.0313 2.57129 16.0208 2.57129 11.9999ZM11.9999 19.7141C9.9495 19.7141 8.55521 19.7116 7.49517 19.5921C6.46968 19.4765 5.9713 19.2699 5.62696 19.0056C5.38925 18.8232 5.17648 18.6105 4.99408 18.3728C4.72986 18.0284 4.52324 17.53 4.40763 16.5045C4.28812 15.4445 4.28557 14.0502 4.28557 11.9999C4.28557 9.9495 4.28812 8.55521 4.40763 7.49517C4.52324 6.46968 4.72986 5.9713 4.99408 5.62696C5.17648 5.38925 5.38925 5.17648 5.62696 4.99408C5.9713 4.72986 6.46968 4.52324 7.49517 4.40763C8.55521 4.28812 9.9495 4.28557 11.9999 4.28557C14.0502 4.28557 15.4445 4.28812 16.5046 4.40763C17.53 4.52324 18.0284 4.72986 18.3728 4.99408C18.6105 5.17648 18.8232 5.38925 19.0056 5.62696C19.2699 5.9713 19.4765 6.46968 19.5921 7.49517C19.7116 8.55521 19.7141 9.9495 19.7141 11.9999C19.7141 14.0502 19.7116 15.4445 19.5921 16.5045C19.4765 17.53 19.2699 18.0284 19.0056 18.3728C18.8232 18.6105 18.6105 18.8232 18.3728 19.0056C18.0284 19.2699 17.53 19.4765 16.5046 19.5921C15.4445 19.7116 14.0502 19.7141 11.9999 19.7141ZM16.9284 5.57129C16.3367 5.57129 15.857 6.05098 15.857 6.64272C15.857 7.23445 16.3367 7.71414 16.9284 7.71414C17.5202 7.71414 17.9999 7.23445 17.9999 6.64272C17.9999 6.05098 17.5202 5.57129 16.9284 5.57129ZM6.857 11.9999C6.857 9.15954 9.15954 6.857 11.9999 6.857C14.8402 6.857 17.1427 9.15954 17.1427 11.9999C17.1427 14.8402 14.8402 17.1427 11.9999 17.1427C9.15954 17.1427 6.857 14.8402 6.857 11.9999ZM11.9999 15.4284C10.1063 15.4284 8.57129 13.8934 8.57129 11.9999C8.57129 10.1063 10.1063 8.57129 11.9999 8.57129C13.8934 8.57129 15.4284 10.1063 15.4284 11.9999C15.4284 13.8934 13.8934 15.4284 11.9999 15.4284Z" fill="rgb(255,255,255)" fill-rule="evenodd" />
		</g>
	</g>
</svg>
