<svg viewBox="0 0 24 24" xmlns="http://www.w3.org/2000/svg" xmlns:xlink="http://www.w3.org/1999/xlink" width="24.000000" height="24.000000" fill="none" clip-path="url(#clipPath_17)" customFrame="url(#clipPath_17)">
	<mask id="mask_4" width="24.000000" height="23.999994" x="0.000000" y="0.000000" maskUnits="userSpaceOnUse">
		<g filter="url(#pixso_custom_mask_type_alpha)">
			<path id="Social media Mask" d="M0 10.9714C0 7.13107 0 5.21089 0.747384 3.74406C1.4048 2.45381 2.45381 1.4048 3.74407 0.747384C5.21089 0 7.13107 0 10.9714 0L13.0286 0C16.8689 0 18.7891 0 20.2559 0.747384C21.5462 1.4048 22.5952 2.45381 23.2526 3.74406C24 5.21089 24 7.13107 24 10.9714L24 13.0286C24 16.8689 24 18.7891 23.2526 20.2559C22.5952 21.5462 21.5462 22.5952 20.2559 23.2526C18.7891 24 16.8689 24 13.0286 24L10.9714 24C7.13107 24 5.21089 24 3.74407 23.2526C2.45381 22.5952 1.4048 21.5462 0.747384 20.2559C0 18.7891 0 16.8689 0 13.0286L0 10.9714Z" fill="rgb(0,0,0)" fill-rule="nonzero" />
		</g>
	</mask>
	<defs>
		<clipPath id="clipPath_17">
			<rect width="24.000000" height="24.000000" x="0.000000" y="0.000000" rx="4.500000" fill="rgb(255,255,255)" />
		</clipPath>
		<filter id="pixso_custom_mask_type_alpha">
			<feColorMatrix type="matrix" values="0 0 0 0 1 0 0 0 0 1 0 0 0 0 1 0 0 0 1 0 " />
		</filter>
	</defs>
	<rect id="Socials" width="24.000000" height="24.000000" x="0.000000" y="0.000000" rx="4.500000" />
	<g id="Group 1948755014" mask="url(#mask_4)">
		<g id="Group 1948754982">
			<rect id="Rectangle 240647456" width="24.000000" height="23.999994" x="0.000000" y="0.000000" fill="rgb(172,174,180)" />
			<path id="Vector" d="M6.7155 8.30741L6.69778 8.30741C5.75339 8.30741 5.14258 7.60355 5.14258 6.72436C5.14258 5.82618 5.77238 5.14258 6.73386 5.14258C7.6966 5.14258 8.28969 5.82618 8.30741 6.72436C8.30741 7.60291 7.6966 8.30741 6.7155 8.30741ZM5.29118 9.59681L8.22158 9.59681L8.22158 18.8569L5.29118 18.8569L5.29118 9.59681ZM19.3571 18.8569L16.4267 18.8569L16.4267 14.2274C16.4267 12.9392 15.7087 12.0601 14.5559 12.0601C13.6762 12.0601 13.2003 12.6532 12.9694 13.2264C12.8994 13.3965 12.9048 13.8158 12.9087 14.1174C12.9095 14.1795 12.9102 14.2365 12.9102 14.2854L12.9102 18.8569L9.97982 18.8569L9.97982 9.59681L12.9102 9.59681L12.9102 11.13C13.3328 10.4759 13.9945 9.59681 15.6871 9.59681C17.784 9.59681 19.3565 10.9155 19.3565 13.8599L19.3571 18.8569Z" fill="rgb(255,255,255)" fill-rule="evenodd" />
		</g>
	</g>
</svg>
