<svg viewBox="0 0 24 24" xmlns="http://www.w3.org/2000/svg" xmlns:xlink="http://www.w3.org/1999/xlink" width="24.000000" height="24.000000" fill="none" clip-path="url(#clipPath_16)" customFrame="url(#clipPath_16)">
	<mask id="mask_3" width="23.999992" height="23.999994" x="0.000000" y="0.000000" maskUnits="userSpaceOnUse">
		<g filter="url(#pixso_custom_mask_type_alpha)">
			<path id="Social media Mask" d="M0 10.9714C0 7.13107 0 5.21089 0.747384 3.74406C1.4048 2.45381 2.45381 1.4048 3.74406 0.747384C5.21089 0 7.13107 0 10.9714 0L13.0286 0C16.8689 0 18.7891 0 20.2559 0.747384C21.5462 1.4048 22.5952 2.45381 23.2526 3.74406C24 5.21089 24 7.13107 24 10.9714L24 13.0286C24 16.8689 24 18.7891 23.2526 20.2559C22.5952 21.5462 21.5462 22.5952 20.2559 23.2526C18.7891 24 16.8689 24 13.0286 24L10.9714 24C7.13107 24 5.21089 24 3.74406 23.2526C2.45381 22.5952 1.4048 21.5462 0.747384 20.2559C0 18.7891 0 16.8689 0 13.0286L0 10.9714Z" fill="rgb(0,0,0)" fill-rule="nonzero" />
		</g>
	</mask>
	<defs>
		<clipPath id="clipPath_16">
			<rect width="23.999992" height="24.000000" x="0.000000" y="0.000000" rx="6.000000" fill="rgb(255,255,255)" />
		</clipPath>
		<filter id="pixso_custom_mask_type_alpha">
			<feColorMatrix type="matrix" values="0 0 0 0 1 0 0 0 0 1 0 0 0 0 1 0 0 0 1 0 " />
		</filter>
	</defs>
	<rect id="Socials" width="23.999992" height="24.000000" x="0.000000" y="0.000000" rx="6.000000" />
	<g id="Group 1948755018" mask="url(#mask_3)">
		<g id="Group 1948754986">
			<rect id="Rectangle 240647456" width="23.999992" height="23.999994" x="0.000000" y="0.000000" fill="rgb(172,174,180)" />
			<path id="telegram" d="M4.48934 11.535C8.63091 9.72054 11.3926 8.52436 12.7744 7.94642C16.7198 6.2963 17.5396 6.00966 18.074 6.00009C18.1915 5.99811 18.4543 6.0274 18.6245 6.16628C18.7682 6.28355 18.8077 6.44197 18.8267 6.55315C18.8456 6.66434 18.8692 6.91762 18.8504 7.11553C18.6366 9.37442 17.7115 14.8562 17.2409 17.3862C17.0417 18.4567 16.6496 18.8156 16.27 18.8508C15.4449 18.9271 14.8185 18.3025 14.0194 17.7758C12.769 16.9516 12.0626 16.4386 10.8489 15.6343C9.44626 14.7049 10.3555 14.194 11.1549 13.3591C11.3641 13.1407 14.9991 9.81596 15.0695 9.51436C15.0783 9.47664 15.0865 9.33604 15.0034 9.26179C14.9203 9.18755 14.7977 9.21294 14.7092 9.23313C14.5838 9.26175 12.5863 10.5894 8.71675 13.2159C8.14976 13.6074 7.63621 13.7982 7.17608 13.7882C6.66882 13.7772 5.69307 13.4998 4.96769 13.2627C4.07799 12.9719 3.37087 12.8181 3.43245 12.3242C3.46452 12.067 3.81682 11.8039 4.48934 11.535Z" fill="rgb(255,255,255)" fill-rule="nonzero" />
		</g>
	</g>
</svg>
