<svg viewBox="0 0 24 24" xmlns="http://www.w3.org/2000/svg" xmlns:xlink="http://www.w3.org/1999/xlink" width="24.000000" height="24.000000" fill="none" clip-path="url(#clipPath_13)" customFrame="url(#clipPath_13)">
	<mask id="mask_0" width="24.000000" height="23.999994" x="0.000000" y="0.000000" maskUnits="userSpaceOnUse">
		<g filter="url(#pixso_custom_mask_type_alpha)">
			<path id="Social media Mask" d="M0 10.9714C0 7.13107 0 5.21089 0.747384 3.74406C1.4048 2.45381 2.45381 1.4048 3.74407 0.747384C5.21089 0 7.13107 0 10.9714 0L13.0286 0C16.8689 0 18.7891 0 20.2559 0.747384C21.5462 1.4048 22.5952 2.45381 23.2526 3.74406C24 5.21089 24 7.13107 24 10.9714L24 13.0286C24 16.8689 24 18.7891 23.2526 20.2559C22.5952 21.5462 21.5462 22.5952 20.2559 23.2526C18.7891 24 16.8689 24 13.0286 24L10.9714 24C7.13107 24 5.21089 24 3.74407 23.2526C2.45381 22.5952 1.4048 21.5462 0.747384 20.2559C0 18.7891 0 16.8689 0 13.0286L0 10.9714Z" fill="rgb(0,0,0)" fill-rule="nonzero" />
		</g>
	</mask>
	<defs>
		<clipPath id="clipPath_13">
			<rect width="24.000000" height="24.000000" x="0.000000" y="0.000000" rx="4.500000" fill="rgb(255,255,255)" />
		</clipPath>
		<filter id="pixso_custom_mask_type_alpha">
			<feColorMatrix type="matrix" values="0 0 0 0 1 0 0 0 0 1 0 0 0 0 1 0 0 0 1 0 " />
		</filter>
	</defs>
	<rect id="Socials" width="24.000000" height="24.000000" x="0.000000" y="0.000000" rx="4.500000" />
	<g id="Group 1948755013" mask="url(#mask_0)">
		<g id="Group 1948754981">
			<rect id="Rectangle 240647456" width="24.000000" height="23.999994" x="0.000000" y="0.000000" fill="rgb(172,174,180)" />
			<path id="f" d="M13.4026 24.0002L13.4026 15.399L16.183 15.399L16.598 12.0464L13.4026 12.0464L13.4026 9.90906C13.4026 8.93518 13.6599 8.28018 15.0045 8.28018L16.7142 8.28018L16.7142 5.35735C16.4154 5.31426 15.4028 5.14307 14.2243 5.14307C11.7592 5.14307 10.0744 6.703 10.0744 9.57294L10.0744 12.0464L7.28564 12.0464L7.28564 15.399L10.0744 15.399L10.0744 24.0002L13.4026 24.0002Z" fill="rgb(255,255,255)" fill-rule="nonzero" />
		</g>
	</g>
</svg>
