<svg viewBox="0 0 46.7351 26" xmlns="http://www.w3.org/2000/svg" xmlns:xlink="http://www.w3.org/1999/xlink" width="46.735107" height="26.000000" fill="none" customFrame="#000000">
	<defs>
		<clipPath id="clipPath_10">
			<rect width="46.734375" height="18.210340" x="0.000244" y="3.895020" fill="rgb(255,255,255)" />
		</clipPath>
	</defs>
	<rect id="Payment method logo" width="46.734375" height="26.000000" x="0.000244" y="0.000000" />
	<g id="Frame 1948756666" customFrame="url(#clipPath_10)">
		<rect id="Frame 1948756666" width="46.734375" height="18.210340" x="0.000244" y="3.895020" />
		<g id="Logo">
			<g id="Pay Typeface 3">
				<path id="Letter p 3" d="M21.8109 13.9015L21.8109 19.2734L20.095 19.2734L20.095 6.00781L24.644 6.00781C25.7969 6.00781 26.78 6.38962 27.5843 7.15324C28.4065 7.91685 28.8176 8.84917 28.8176 9.95019C28.8176 11.0779 28.4065 12.0102 27.5843 12.7649C26.7889 13.5196 25.8058 13.8926 24.644 13.8926L21.8109 13.8926L21.8109 13.9015ZM21.8109 7.64159L21.8109 12.2677L24.6797 12.2677C25.3589 12.2677 25.9309 12.0368 26.3778 11.584C26.8336 11.1311 27.0659 10.5806 27.0659 9.95907C27.0659 9.3464 26.8336 8.80477 26.3778 8.35193C25.9309 7.88133 25.3679 7.65047 24.6797 7.65047L21.8109 7.65047L21.8109 7.64159Z" fill="rgb(0,0,0)" fill-opacity="0.889999986" fill-rule="nonzero" />
				<path id="Letter a 3" d="M33.3026 9.88965C34.5717 9.88965 35.5727 10.2271 36.3055 10.9019C37.0384 11.5767 37.4048 12.5001 37.4048 13.6722L37.4048 19.2661L35.7693 19.2661L35.7693 18.0053L35.6978 18.0053C34.9918 19.0441 34.0444 19.5591 32.8647 19.5591C31.8548 19.5591 31.0147 19.2661 30.3355 18.6712C29.6563 18.0763 29.3167 17.3393 29.3167 16.4514C29.3167 15.5102 29.6741 14.7643 30.3891 14.2138C31.1041 13.6544 32.0604 13.3792 33.249 13.3792C34.2678 13.3792 35.1079 13.5657 35.7603 13.9386L35.7603 13.5479C35.7603 12.953 35.528 12.4557 35.0543 12.0384C34.5806 11.6211 34.0265 11.4169 33.392 11.4169C32.4357 11.4169 31.6761 11.8164 31.122 12.6245L29.6116 11.6833C30.4427 10.4846 31.6761 9.88965 33.3026 9.88965ZM31.0862 16.478C31.0862 16.922 31.2739 17.2949 31.6582 17.5879C32.0336 17.881 32.4804 18.0319 32.9898 18.0319C33.7137 18.0319 34.3572 17.7655 34.9203 17.2328C35.4833 16.7 35.7693 16.0785 35.7693 15.3593C35.2331 14.9419 34.4913 14.7288 33.535 14.7288C32.8379 14.7288 32.257 14.8975 31.7922 15.2261C31.3186 15.5724 31.0862 15.9897 31.0862 16.478Z" fill="rgb(0,0,0)" fill-opacity="0.889999986" fill-rule="nonzero" />
				<path id="Letter y 3" d="M46.7351 10.1885L41.0153 23.2587L39.2458 23.2587L41.3728 18.6859L37.6013 10.1885L39.4692 10.1885L42.1861 16.7058L42.2218 16.7058L44.8672 10.1885L46.7351 10.1885Z" fill="rgb(0,0,0)" fill-opacity="0.889999986" fill-rule="nonzero" />
			</g>
			<g id="G Mark 1">
				<path id="Blue 500" d="M14.9916 12.8301C14.9916 12.2743 14.9416 11.7424 14.8486 11.231L7.65601 11.231L7.65601 14.1611L11.7984 14.162C11.6304 15.1369 11.0897 15.968 10.2612 16.5221L10.2612 18.4231L12.7269 18.4231C14.1667 17.0992 14.9916 15.1423 14.9916 12.8301Z" fill="rgb(66,133,244)" fill-rule="nonzero" />
				<path id="Green 500 1" d="M10.2613 16.5191C9.57489 16.9791 8.69101 17.2481 7.65698 17.2481C5.65953 17.2481 3.96504 15.9109 3.35821 14.1084L0.814697 14.1084L0.814697 16.0689C2.07484 18.5533 4.66482 20.2582 7.65698 20.2582C9.72503 20.2582 11.4624 19.5825 12.727 18.4193L10.2613 16.5191Z" fill="rgb(52,168,83)" fill-rule="nonzero" />
				<path id="Yellow 500 1" d="M3.11841 12.6561C3.11841 12.15 3.20332 11.6607 3.35793 11.2008L3.35793 9.24023L0.814417 9.24023C0.293381 10.2676 0.000244141 11.4272 0.000244141 12.6561C0.000244141 13.885 0.294275 15.0446 0.814417 16.0719L3.35793 14.1114C3.20332 13.6514 3.11841 13.1622 3.11841 12.6561Z" fill="rgb(250,187,5)" fill-rule="nonzero" />
				<path id="Red 500" d="M7.65698 8.06035C8.78574 8.06035 9.79653 8.4466 10.5946 9.20133L12.7798 7.03214C11.4526 5.80414 9.72235 5.05029 7.65698 5.05029C4.66571 5.05029 2.07484 6.75511 0.814697 9.23951L3.35821 11.2001C3.96504 9.39757 5.65952 8.06035 7.65698 8.06035Z" fill="rgb(233,66,53)" fill-rule="nonzero" />
			</g>
		</g>
	</g>
</svg>
