<svg viewBox="0 0 76.3135 22" xmlns="http://www.w3.org/2000/svg" xmlns:xlink="http://www.w3.org/1999/xlink" width="76.313477" height="22.000000" fill="none" customFrame="#000000">
	<defs>
		<clipPath id="clipPath_11">
			<rect width="76.312500" height="18.801630" x="0.000244" y="1.599121" fill="rgb(255,255,255)" />
		</clipPath>
	</defs>
	<rect id="Payment method logo" width="76.312500" height="22.000000" x="0.000244" y="0.000000" />
	<g id="Frame 1948755344" customFrame="url(#clipPath_11)">
		<rect id="Frame 1948755344" width="76.312500" height="18.801630" x="0.000244" y="1.599121" />
		<g id="Logo">
			<path id="Vector" d="M28.5371 5.81104L24.314 5.81104C24.025 5.81104 23.7793 6.02285 23.7342 6.31066L22.0262 17.2357C21.9922 17.4513 22.1577 17.6456 22.3744 17.6456L24.3906 17.6456C24.6796 17.6456 24.9254 17.4338 24.9704 17.1454L25.4311 14.1987C25.4755 13.9103 25.7219 13.6985 26.0103 13.6985L27.3472 13.6985C30.1291 13.6985 31.7346 12.3404 32.1539 9.64916C32.3428 8.47175 32.1619 7.54663 31.6154 6.89874C31.0152 6.18731 29.9506 5.81104 28.5371 5.81104ZM29.0244 9.80117C28.7934 11.3299 27.6356 11.3299 26.516 11.3299L25.8788 11.3299L26.3259 8.47486C26.3524 8.3023 26.5006 8.17521 26.6735 8.17521L26.9656 8.17521C27.7282 8.17521 28.4476 8.17521 28.8193 8.61378C29.041 8.87543 29.109 9.26417 29.0244 9.80117Z" fill="rgb(37,59,128)" fill-rule="nonzero" />
			<path id="Vector" d="M41.1582 9.7617L39.1358 9.7617C38.9635 9.7617 38.8147 9.88879 38.7882 10.0613L38.6986 10.632L38.5572 10.4252C38.1194 9.78413 37.1431 9.56982 36.1687 9.56982C33.934 9.56982 32.0253 11.2774 31.6535 13.6727C31.4602 14.8676 31.735 16.0101 32.4069 16.8069C33.0231 17.5395 33.9049 17.8448 34.9541 17.8448C36.7547 17.8448 37.7532 16.6767 37.7532 16.6767L37.6631 17.2436C37.6291 17.4604 37.7946 17.6547 38.0101 17.6547L39.8318 17.6547C40.1214 17.6547 40.3659 17.4429 40.4116 17.1545L41.5046 10.1716C41.5392 9.95669 41.3743 9.7617 41.1582 9.7617ZM38.3392 13.7325C38.1441 14.8981 37.2271 15.6805 36.0576 15.6805C35.4703 15.6805 35.001 15.4905 34.6997 15.1305C34.4008 14.7729 34.2872 14.2639 34.3823 13.697C34.5644 12.5414 35.4969 11.7334 36.6485 11.7334C37.2228 11.7334 37.6896 11.9259 37.9972 12.2891C38.3053 12.656 38.4276 13.1681 38.3392 13.7325Z" fill="rgb(37,59,128)" fill-rule="nonzero" />
			<path id="Vector" d="M51.9328 9.75977L49.9006 9.75977C49.7067 9.75977 49.5245 9.85695 49.4146 10.0195L46.6117 14.1847L45.4237 10.1821C45.3489 9.93171 45.1198 9.75977 44.8605 9.75977L42.8635 9.75977C42.6208 9.75977 42.4522 9.99899 42.5294 10.2295L44.7679 16.8567L42.6634 19.8538C42.4979 20.0899 42.6646 20.4144 42.9506 20.4144L44.9803 20.4144C45.173 20.4144 45.3533 20.3198 45.4626 20.1603L52.2218 10.3173C52.3836 10.0818 52.2175 9.75977 51.9328 9.75977Z" fill="rgb(37,59,128)" fill-rule="nonzero" />
			<path id="Vector" d="M58.6582 5.81104L54.4345 5.81104C54.1461 5.81104 53.9004 6.02285 53.8553 6.31066L52.1473 17.2357C52.1133 17.4513 52.2788 17.6456 52.4943 17.6456L54.6617 17.6456C54.863 17.6456 55.0353 17.4974 55.0668 17.2955L55.5516 14.1987C55.596 13.9103 55.8424 13.6985 56.1308 13.6985L57.4671 13.6985C60.2496 13.6985 61.8545 12.3404 62.2744 9.64916C62.4639 8.47175 62.2818 7.54663 61.7353 6.89874C61.1357 6.18731 60.0717 5.81104 58.6582 5.81104ZM59.1455 9.80117C58.9151 11.3299 57.7573 11.3299 56.6371 11.3299L56.0005 11.3299L56.4482 8.47486C56.4747 8.3023 56.6217 8.17521 56.7952 8.17521L57.0873 8.17521C57.8493 8.17521 58.5693 8.17521 58.9411 8.61378C59.1627 8.87543 59.23 9.26417 59.1455 9.80117Z" fill="rgb(23,155,215)" fill-rule="nonzero" />
			<path id="Vector" d="M71.2835 9.7617L69.2624 9.7617C69.0888 9.7617 68.9413 9.88879 68.9153 10.0613L68.8258 10.632L68.6838 10.4252C68.2459 9.78413 67.2703 9.56982 66.2959 9.56982C64.0611 9.56982 62.153 11.2774 61.7813 13.6727C61.5886 14.8676 61.8622 16.0101 62.534 16.8069C63.1515 17.5395 64.0321 17.8448 65.0812 17.8448C66.8819 17.8448 67.8804 16.6767 67.8804 16.6767L67.7902 17.2436C67.7563 17.4604 67.9218 17.6547 68.1385 17.6547L69.9595 17.6547C70.2479 17.6547 70.4937 17.4429 70.5387 17.1545L71.6323 10.1716C71.6657 9.95669 71.5002 9.7617 71.2835 9.7617ZM68.4645 13.7325C68.2706 14.8981 67.3524 15.6805 66.1829 15.6805C65.5968 15.6805 65.1263 15.4905 64.825 15.1305C64.5261 14.7729 64.4137 14.2639 64.5076 13.697C64.691 12.5414 65.6222 11.7334 66.7738 11.7334C67.3481 11.7334 67.8149 11.9259 68.1224 12.2891C68.4318 12.656 68.5541 13.1681 68.4645 13.7325Z" fill="rgb(23,155,215)" fill-rule="nonzero" />
			<path id="Vector" d="M73.6638 6.11131L71.9305 17.2363C71.8965 17.4519 72.062 17.6462 72.2775 17.6462L74.0201 17.6462C74.3097 17.6462 74.5555 17.4344 74.5999 17.146L76.3092 6.22157C76.3432 6.00603 76.1777 5.81104 75.9622 5.81104L74.0108 5.81104C73.8386 5.81166 73.6904 5.93874 73.6638 6.11131Z" fill="rgb(23,155,215)" fill-rule="nonzero" />
			<path id="Vector" d="M4.48324 19.7786L4.80619 17.7091L4.0868 17.6922L0.651611 17.6922L3.03889 2.42135C3.0463 2.37525 3.07038 2.33227 3.10558 2.30174C3.14078 2.27121 3.18586 2.25439 3.23279 2.25439L9.02499 2.25439C10.9479 2.25439 12.2749 2.65808 12.9678 3.45486C13.2926 3.82864 13.4994 4.21925 13.5995 4.6491C13.7044 5.10013 13.7063 5.639 13.6038 6.29623L13.5964 6.3442L13.5964 6.76533L13.9212 6.95098C14.1947 7.09737 14.4121 7.26495 14.5788 7.45683C14.8567 7.77641 15.0364 8.18259 15.1124 8.66415C15.1908 9.15941 15.1649 9.74874 15.0364 10.4159C14.8882 11.1834 14.6486 11.8519 14.325 12.3989C14.0274 12.9028 13.6483 13.3209 13.1981 13.6448C12.7683 13.9526 12.2576 14.1862 11.6803 14.3357C11.1208 14.4827 10.4829 14.5568 9.78329 14.5568L9.33251 14.5568C9.01017 14.5568 8.69709 14.674 8.45133 14.8839C8.20494 15.0982 8.04192 15.391 7.9919 15.7112L7.95794 15.8975L7.38737 19.545L7.36143 19.6789C7.35464 19.7213 7.34291 19.7424 7.32561 19.7568C7.31018 19.7699 7.28795 19.7786 7.26633 19.7786L4.48324 19.7786Z" fill="rgb(37,59,128)" fill-rule="nonzero" />
			<path id="Vector" d="M14.2315 6.39209C14.2142 6.5036 14.1945 6.61761 14.1722 6.73472C13.4084 10.6912 10.7951 12.058 7.45746 12.058L5.75808 12.058C5.34991 12.058 5.00596 12.357 4.94236 12.7632L4.07229 18.3301L3.82591 19.9081C3.78454 20.1747 3.98831 20.4152 4.25507 20.4152L7.26912 20.4152C7.62604 20.4152 7.92924 20.1535 7.98543 19.7984L8.01507 19.6439L8.58256 16.0108L8.61899 15.8114C8.67456 15.4551 8.97838 15.1934 9.3353 15.1934L9.78608 15.1934C12.7063 15.1934 14.9923 13.9973 15.6604 10.5361C15.9395 9.09018 15.795 7.88286 15.0565 7.03375C14.833 6.77771 14.5557 6.56528 14.2315 6.39209Z" fill="rgb(23,155,215)" fill-rule="nonzero" />
			<path id="Vector" d="M13.4317 6.06713C13.315 6.03286 13.1946 6.00171 13.0711 5.97368C12.947 5.94627 12.8198 5.92197 12.6889 5.90079C12.2307 5.82604 11.7287 5.79053 11.1908 5.79053L6.65091 5.79053C6.53914 5.79053 6.43293 5.81607 6.33783 5.86217C6.1285 5.96371 5.97289 6.16369 5.93522 6.40851L4.96944 12.5797L4.94165 12.7597C5.00525 12.3535 5.3492 12.0545 5.75738 12.0545L7.45675 12.0545C10.7944 12.0545 13.4077 10.6871 14.1715 6.73121C14.1944 6.6141 14.2135 6.50009 14.2308 6.38858C14.0375 6.28517 13.8282 6.1967 13.6028 6.12133C13.5472 6.10264 13.4898 6.08457 13.4317 6.06713Z" fill="rgb(34,45,101)" fill-rule="nonzero" />
			<path id="Vector" d="M5.93694 6.40856C5.97461 6.16373 6.13022 5.96376 6.33955 5.86284C6.43527 5.81674 6.54086 5.7912 6.65263 5.7912L11.1925 5.7912C11.7304 5.7912 12.2324 5.82671 12.6906 5.90146C12.8215 5.92264 12.9487 5.94694 13.0728 5.97435C13.1963 6.00238 13.3168 6.03353 13.4335 6.0678C13.4915 6.08524 13.5489 6.10331 13.6051 6.12137C13.8305 6.19675 14.0399 6.28584 14.2331 6.38863C14.4604 4.92651 14.2313 3.931 13.4477 3.02956C12.5838 2.03717 11.0246 1.6123 9.02941 1.6123L3.2372 1.6123C2.82965 1.6123 2.48199 1.91133 2.41901 2.31813L0.0064123 17.746C-0.0411357 18.0513 0.192282 18.3266 0.497329 18.3266L4.07331 18.3266L4.97116 12.5797L5.93694 6.40856Z" fill="rgb(37,59,128)" fill-rule="nonzero" />
		</g>
	</g>
</svg>
