<svg viewBox="0 0 28.5764 26" xmlns="http://www.w3.org/2000/svg" xmlns:xlink="http://www.w3.org/1999/xlink" width="28.576416" height="26.000000" fill="none" customFrame="#000000">
	<rect id="Payment method logo" width="28.576357" height="26.000000" x="0.000000" y="0.000000" />
	<g id="Group">
		<path id="Vector" d="M18.1557 6.06006L10.4297 6.06006L10.4297 19.9444L18.1557 19.9444L18.1557 6.06006Z" fill="rgb(255,95,0)" fill-rule="evenodd" />
		<path id="Vector" d="M10.9175 13.0001C10.9175 10.1804 12.2416 7.67505 14.2803 6.05561C12.7799 4.87913 10.8936 4.16943 8.83113 4.16943C3.94876 4.16943 0 8.11801 0 13.0001C0 17.8823 3.94876 21.8309 8.83113 21.8309C10.8936 21.8309 12.7799 21.1212 14.2756 19.9399C12.2416 18.3491 10.9175 15.8199 10.9175 13.0001Z" fill="rgb(235,0,27)" fill-rule="nonzero" />
		<path id="Vector" d="M28.5764 13.0001C28.5764 17.8823 24.6276 21.8309 19.7452 21.8309C17.6827 21.8309 15.7965 21.1212 14.3008 19.9399C16.3633 18.3205 17.6637 15.8199 17.6637 12.9954C17.6637 10.1709 16.3347 7.67981 14.3008 6.06037C15.7965 4.88389 17.6875 4.16943 19.7452 4.16943C24.6276 4.16943 28.5764 8.14183 28.5764 13.0001Z" fill="rgb(247,158,27)" fill-rule="nonzero" />
	</g>
</svg>
