<svg viewBox="0 0 41.625 26" xmlns="http://www.w3.org/2000/svg" xmlns:xlink="http://www.w3.org/1999/xlink" width="41.625000" height="26.000000" fill="none" customFrame="#000000">
	<defs>
		<clipPath id="clipPath_9">
			<rect width="41.625000" height="17.089012" x="0.000244" y="4.455566" fill="rgb(255,255,255)" />
		</clipPath>
	</defs>
	<rect id="Payment method logo" width="41.625000" height="26.000000" x="0.000244" y="0.000000" />
	<g id="Apple_Pay_logo 2" customFrame="url(#clipPath_9)">
		<rect id="Apple_Pay_logo 2" width="41.625000" height="17.089012" x="0.000244" y="4.455566" fill="rgb(255,255,255)" fill-opacity="0" />
		<path id="XMLID_34_" d="M7.60895 7.6905C7.12116 8.26772 6.34069 8.723 5.56022 8.65796C5.46266 7.87749 5.84477 7.04824 6.29191 6.53606C6.7797 5.94258 7.63334 5.51982 8.32438 5.4873C8.40568 6.30029 8.08862 7.09702 7.60895 7.6905ZM8.31625 8.81243C7.1862 8.74739 6.21874 9.45469 5.68217 9.45469C5.13747 9.45469 4.31635 8.84495 3.42206 8.86121C2.25949 8.87747 1.17822 9.53599 0.584734 10.5847C-0.634749 12.6823 0.267668 15.7879 1.4465 17.4951C2.02372 18.3406 2.71476 19.2675 3.62531 19.2349C4.48708 19.2024 4.82853 18.674 5.86916 18.674C6.91791 18.674 7.21872 19.2349 8.12927 19.2187C9.07233 19.2024 9.66581 18.3732 10.243 17.5277C10.9016 16.5683 11.1698 15.6334 11.1861 15.5846C11.1698 15.5684 9.36501 14.8773 9.34875 12.7961C9.33249 11.0563 10.7715 10.227 10.8365 10.1782C10.0235 8.97502 8.75527 8.84495 8.31625 8.81243ZM14.8446 6.45476L14.8446 19.1292L16.812 19.1292L16.812 14.796L19.5355 14.796C22.0232 14.796 23.7712 13.0887 23.7712 10.6173C23.7712 8.14578 22.0558 6.45476 19.6005 6.45476L14.8446 6.45476ZM16.812 8.11326L19.0802 8.11326C20.7875 8.11326 21.7631 9.0238 21.7631 10.6254C21.7631 12.227 20.7875 13.1457 19.0721 13.1457L16.812 13.1457L16.812 8.11326ZM27.3646 19.2268C28.6003 19.2268 29.7466 18.6008 30.2669 17.609L30.3076 17.609L30.3076 19.1292L32.1287 19.1292L32.1287 12.8205C32.1287 10.9912 30.6653 9.8124 28.4133 9.8124C26.3239 9.8124 24.7793 11.0075 24.7224 12.6497L26.4947 12.6497C26.641 11.8693 27.3646 11.3571 28.3564 11.3571C29.5596 11.3571 30.2344 11.918 30.2344 12.9505L30.2344 13.6497L27.7792 13.796C25.4947 13.9343 24.259 14.8692 24.259 16.4952C24.259 18.1374 25.5353 19.2268 27.3646 19.2268ZM27.893 17.7228C26.8443 17.7228 26.1776 17.2187 26.1776 16.4464C26.1776 15.6497 26.8199 15.1863 28.0475 15.1131L30.2344 14.9749L30.2344 15.6903C30.2344 16.8773 29.2263 17.7228 27.893 17.7228ZM34.5595 22.5763C36.4782 22.5763 37.3806 21.8446 38.1692 19.6252L41.6244 9.93435L39.6244 9.93435L37.3074 17.422L37.2668 17.422L34.9497 9.93435L32.8929 9.93435L36.2261 19.1618L36.0473 19.7227C35.7465 20.6739 35.2587 21.0398 34.3888 21.0398C34.2343 21.0398 33.9335 21.0235 33.8116 21.0072L33.8116 22.5275C33.9254 22.5601 34.4132 22.5763 34.5595 22.5763Z" fill="rgb(0,0,0)" fill-opacity="0.889999986" fill-rule="nonzero" />
	</g>
</svg>
