<svg viewBox="0 0 75.0049 18" xmlns="http://www.w3.org/2000/svg" xmlns:xlink="http://www.w3.org/1999/xlink" width="75.004883" height="18.000000" fill="none" customFrame="#000000">
	<rect id="Payment method logo" width="74.999992" height="18.000000" x="0.005127" y="0.000000" />
	<path id="Vector" d="M12.4924 16.8486L0.581837 10.8754C0.254942 10.7114 0.0363805 10.3899 0.00432393 10.0258C-0.0277798 9.66174 0.131191 9.30696 0.424453 9.0885L12.3382 0.209069C12.6581 -0.0292928 13.0852 -0.0668708 13.4417 0.111965C13.7983 0.290795 14.0234 0.655451 14.0233 1.05416L14.02 15.9068C14.0199 16.2723 13.8303 16.6117 13.519 16.8036C13.2078 16.9955 12.8192 17.0125 12.4924 16.8486ZM3.41373 9.93714C4.67491 8.28852 6.96889 7.7142 8.89297 8.67918C10.8171 9.6441 11.7274 11.8254 11.1584 13.8212L3.41373 9.93714ZM9.88201 6.70962C9.26473 6.40002 8.62201 6.19608 7.97449 6.0909L11.9136 3.1551L11.9125 8.2842C11.3617 7.64946 10.68 7.10982 9.88201 6.70962Z" fill="rgb(253,182,0)" fill-rule="evenodd" />
	<path id="Vector" d="M20.0543 14.8269C19.4545 14.8269 18.9018 14.7093 18.3961 14.4742C17.9022 14.2275 17.5082 13.8984 17.2142 13.4871C16.9319 13.0757 16.7908 12.6232 16.7908 12.1296C16.7908 11.3304 17.1142 10.684 17.761 10.1904C18.4078 9.69679 19.2957 9.36181 20.4247 9.18553L22.8415 8.83291L22.8415 8.46271C22.8415 7.94563 22.7121 7.55779 22.4534 7.29919C22.1947 7.04065 21.7772 6.91135 21.2009 6.91135C20.8128 6.91135 20.4953 6.98773 20.2483 7.14055C20.0131 7.28155 19.825 7.42261 19.6839 7.56367C19.5427 7.71643 19.4487 7.81633 19.4016 7.86331C19.3545 8.00437 19.2663 8.07487 19.137 8.07487L17.7787 8.07487C17.6728 8.07487 17.5788 8.03965 17.4964 7.96909C17.4259 7.89859 17.3906 7.80457 17.3906 7.68703C17.4024 7.39321 17.5435 7.05829 17.814 6.68221C18.0962 6.30607 18.5254 5.98291 19.1017 5.71261C19.678 5.44225 20.3836 5.30713 21.2185 5.30713C22.6063 5.30713 23.6176 5.61859 24.2527 6.24145C24.8878 6.86437 25.2053 7.68115 25.2053 8.69191L25.2053 14.2275C25.2053 14.345 25.1641 14.4449 25.0818 14.5272C25.0113 14.6094 24.9113 14.6506 24.7819 14.6506L23.353 14.6506C23.2354 14.6506 23.1355 14.6094 23.0532 14.5272C22.9708 14.4449 22.9297 14.345 22.9297 14.2275L22.9297 13.5399C22.671 13.916 22.3005 14.2275 21.8184 14.4742C21.3479 14.7093 20.7599 14.8269 20.0543 14.8269ZM20.6541 13.1521C21.3009 13.1521 21.8301 12.9405 22.2417 12.5175C22.6533 12.0943 22.8591 11.4773 22.8591 10.6664L22.8591 10.2961L21.0951 10.5783C20.413 10.684 19.8955 10.8544 19.5427 11.0894C19.2016 11.3245 19.0311 11.6125 19.0311 11.9533C19.0311 12.3294 19.1899 12.6232 19.5075 12.8347C19.825 13.0463 20.2072 13.1521 20.6541 13.1521Z" fill="rgb(255,255,255)" fill-rule="nonzero" />
	<path id="Vector" d="M26.4989 14.651C26.3813 14.651 26.2813 14.6098 26.1989 14.5276C26.1166 14.4453 26.0754 14.3454 26.0754 14.2279L26.0754 2.55737C26.0754 2.42809 26.1166 2.3282 26.1989 2.25768C26.2813 2.17541 26.3813 2.13428 26.4989 2.13428L27.963 2.13428C28.0923 2.13428 28.1923 2.17541 28.2629 2.25768C28.3452 2.3282 28.3863 2.42809 28.3863 2.55737L28.3863 14.2279C28.3863 14.3454 28.3452 14.4453 28.2629 14.5276C28.1923 14.6098 28.0923 14.651 27.963 14.651L26.4989 14.651Z" fill="rgb(255,255,255)" fill-rule="nonzero" />
	<path id="Vector" d="M29.7576 17.9996C29.64 17.9996 29.54 17.9585 29.4577 17.8762C29.3754 17.8057 29.3342 17.7058 29.3342 17.5765L29.3342 5.90604C29.3342 5.77674 29.3754 5.67684 29.4577 5.60634C29.54 5.52402 29.64 5.48292 29.7576 5.48292L31.1511 5.48292C31.2805 5.48292 31.3805 5.52402 31.451 5.60634C31.5333 5.67684 31.5746 5.77674 31.5746 5.90604L31.5746 6.61116C32.2331 5.74146 33.1739 5.30664 34.397 5.30664C35.5848 5.30664 36.4963 5.68272 37.1313 6.43488C37.7663 7.17528 38.1074 8.18016 38.1544 9.44946C38.1662 9.59052 38.1721 9.7962 38.1721 10.0665C38.1721 10.3486 38.1662 10.5601 38.1544 10.7011C38.1074 11.9352 37.7663 12.9341 37.1313 13.6981C36.4963 14.4503 35.5848 14.8264 34.397 14.8264C33.2092 14.8264 32.3037 14.4091 31.6804 13.5747L31.6804 17.5765C31.6804 17.7058 31.6392 17.8057 31.5569 17.8762C31.4863 17.9585 31.3863 17.9996 31.257 17.9996L29.7576 17.9996ZM33.7443 12.94C35.0144 12.94 35.6906 12.1585 35.7729 10.5953C35.7847 10.4779 35.7906 10.3015 35.7906 10.0665C35.7906 9.83142 35.7847 9.65514 35.7729 9.5376C35.6906 7.97448 35.0144 7.19292 33.7443 7.19292C33.0622 7.19292 32.5565 7.41036 32.2272 7.84524C31.898 8.28006 31.7157 8.81484 31.6804 9.44946L31.6628 10.1194L31.6804 10.8069C31.7039 11.3945 31.8862 11.8999 32.2272 12.323C32.5801 12.7343 33.0857 12.94 33.7443 12.94Z" fill="rgb(255,255,255)" fill-rule="nonzero" />
	<path id="Vector" d="M39.1834 14.6505C39.0658 14.6505 38.9658 14.6093 38.8835 14.5271C38.8012 14.4448 38.76 14.3449 38.76 14.2274L38.76 2.55689C38.76 2.4276 38.8012 2.32771 38.8835 2.25719C38.9658 2.17492 39.0658 2.13379 39.1834 2.13379L40.7533 2.13379C40.8827 2.13379 40.9827 2.17492 41.0533 2.25719C41.1356 2.32771 41.1767 2.4276 41.1767 2.55689L41.1767 6.57635C41.8823 5.73011 42.8349 5.30705 44.0345 5.30705C45.1164 5.30705 45.9808 5.66549 46.6276 6.38243C47.2744 7.08755 47.5978 8.05127 47.5978 9.27359L47.5978 14.2274C47.5978 14.3449 47.5567 14.4448 47.4743 14.5271C47.4038 14.6093 47.3038 14.6505 47.1745 14.6505L45.5869 14.6505C45.4692 14.6505 45.3692 14.6093 45.2869 14.5271C45.2046 14.4448 45.1634 14.3449 45.1634 14.2274L45.1634 9.37937C45.1634 8.68595 44.9929 8.15117 44.6519 7.77509C44.3226 7.38725 43.8405 7.19333 43.2054 7.19333C42.5821 7.19333 42.0881 7.38725 41.7236 7.77509C41.359 8.16293 41.1767 8.69771 41.1767 9.37937L41.1767 14.2274C41.1767 14.3449 41.1356 14.4448 41.0533 14.5271C40.9827 14.6093 40.8827 14.6505 40.7533 14.6505L39.1834 14.6505Z" fill="rgb(255,255,255)" fill-rule="nonzero" />
	<path id="Vector" d="M51.0899 14.8264C50.4901 14.8264 49.9374 14.7088 49.4317 14.4737C48.9377 14.227 48.5438 13.8979 48.2498 13.4866C47.9675 13.0752 47.8264 12.6227 47.8264 12.1291C47.8264 11.3299 48.1498 10.6835 48.7966 10.1899C49.4435 9.6963 50.3314 9.36132 51.4604 9.18504L53.8771 8.83242L53.8771 8.46222C53.8771 7.94514 53.7478 7.5573 53.489 7.2987C53.2303 7.04016 52.8128 6.91086 52.2365 6.91086C51.8485 6.91086 51.5309 6.98724 51.284 7.14006C51.0487 7.28106 50.8606 7.42212 50.7194 7.56318C50.5783 7.71594 50.4842 7.81584 50.4372 7.86282C50.3902 8.00388 50.302 8.07438 50.1726 8.07438L48.8143 8.07438C48.7084 8.07438 48.6143 8.03916 48.532 7.9686C48.4615 7.8981 48.4262 7.80408 48.4262 7.68654C48.4379 7.39272 48.5791 7.0578 48.8495 6.68172C49.1318 6.30558 49.5611 5.98242 50.1373 5.71212C50.7136 5.44176 51.4192 5.30664 52.2542 5.30664C53.6419 5.30664 54.6533 5.6181 55.2883 6.24096C55.9234 6.86388 56.2409 7.68066 56.2409 8.69142L56.2409 14.227C56.2409 14.3445 56.1998 14.4444 56.1175 14.5267C56.0469 14.6089 55.9469 14.6501 55.8176 14.6501L54.3887 14.6501C54.2711 14.6501 54.1711 14.6089 54.0888 14.5267C54.0065 14.4444 53.9653 14.3445 53.9653 14.227L53.9653 13.5394C53.7066 13.9155 53.3361 14.227 52.8539 14.4737C52.3835 14.7088 51.7955 14.8264 51.0899 14.8264ZM51.6897 13.1516C52.3365 13.1516 52.8657 12.94 53.2773 12.517C53.689 12.0938 53.8948 11.4768 53.8948 10.6659L53.8948 10.2956L52.1307 10.5778C51.4486 10.6835 50.9311 10.8539 50.5783 11.089C50.2373 11.324 50.0668 11.612 50.0668 11.9528C50.0668 12.3289 50.2255 12.6227 50.543 12.8342C50.8606 13.0458 51.2428 13.1516 51.6897 13.1516Z" fill="rgb(255,255,255)" fill-rule="nonzero" />
	<path id="Vector" d="M57.531 17.9996C57.4134 17.9996 57.3135 17.9585 57.2311 17.8762C57.1488 17.8057 57.1077 17.7058 57.1077 17.5765L57.1077 5.90604C57.1077 5.77674 57.1488 5.67684 57.2311 5.60634C57.3135 5.52402 57.4134 5.48292 57.531 5.48292L58.9246 5.48292C59.054 5.48292 59.154 5.52402 59.2245 5.60634C59.3068 5.67684 59.348 5.77674 59.348 5.90604L59.348 6.61116C60.0069 5.74146 60.9477 5.30664 62.1705 5.30664C63.3585 5.30664 64.2699 5.68272 64.9047 6.43488C65.5401 7.17528 65.8809 8.18016 65.9277 9.44946C65.9397 9.59052 65.9457 9.7962 65.9457 10.0665C65.9457 10.3486 65.9397 10.5601 65.9277 10.7011C65.8809 11.9352 65.5401 12.9341 64.9047 13.6981C64.2699 14.4503 63.3585 14.8264 62.1705 14.8264C60.9825 14.8264 60.0771 14.4091 59.4538 13.5747L59.4538 17.5765C59.4538 17.7058 59.4127 17.8057 59.3304 17.8762C59.2598 17.9585 59.1598 17.9996 59.0305 17.9996L57.531 17.9996ZM61.5177 12.94C62.7879 12.94 63.4641 12.1585 63.5463 10.5953C63.5583 10.4779 63.5643 10.3015 63.5643 10.0665C63.5643 9.83142 63.5583 9.65514 63.5463 9.5376C63.4641 7.97448 62.7879 7.19292 61.5177 7.19292C60.8355 7.19292 60.3303 7.41036 60.0009 7.84524C59.6714 8.28006 59.4891 8.81484 59.4538 9.44946L59.4362 10.1194L59.4538 10.8069C59.4774 11.3945 59.6596 11.8999 60.0009 12.323C60.3537 12.7343 60.8595 12.94 61.5177 12.94Z" fill="rgb(255,255,255)" fill-rule="nonzero" />
	<path id="Vector" d="M70.5741 14.8264C69.1983 14.8264 68.1339 14.4737 67.3815 13.7686C66.6285 13.0517 66.2229 12.0762 66.1641 10.8422L66.1467 10.0665L66.1641 9.29082C66.2229 8.0685 66.6345 7.0989 67.3989 6.38202C68.1633 5.66508 69.2217 5.30664 70.5741 5.30664C71.9265 5.30664 72.9849 5.66508 73.7499 6.38202C74.5143 7.0989 74.9259 8.0685 74.9847 9.29082C74.9961 9.43182 75.0021 9.69042 75.0021 10.0665C75.0021 10.4426 74.9961 10.7011 74.9847 10.8422C74.9259 12.0762 74.5197 13.0517 73.7673 13.7686C73.0149 14.4737 71.9505 14.8264 70.5741 14.8264ZM70.5741 13.0811C71.1975 13.0811 71.6799 12.8872 72.0207 12.4993C72.3621 12.0997 72.5499 11.518 72.5853 10.754C72.5973 10.6365 72.6027 10.4073 72.6027 10.0665C72.6027 9.72564 72.5973 9.4965 72.5853 9.37896C72.5499 8.61504 72.3621 8.03916 72.0207 7.65132C71.6799 7.25172 71.1975 7.05192 70.5741 7.05192C69.9513 7.05192 69.4689 7.25172 69.1281 7.65132C68.7867 8.03916 68.5989 8.61504 68.5635 9.37896L68.5455 10.0665L68.5635 10.754C68.5989 11.518 68.7867 12.0997 69.1281 12.4993C69.4689 12.8872 69.9513 13.0811 70.5741 13.0811Z" fill="rgb(255,255,255)" fill-rule="nonzero" />
</svg>
