<svg viewBox="0 0 115.641 22" xmlns="http://www.w3.org/2000/svg" xmlns:xlink="http://www.w3.org/1999/xlink" width="115.641113" height="22.000000" fill="none" customFrame="#000000">
	<defs>
		<clipPath id="clipPath_12">
			<rect width="115.641029" height="16.923077" x="0.000244" y="2.538574" fill="rgb(255,255,255)" />
		</clipPath>
	</defs>
	<rect id="Payment method logo" width="115.641029" height="22.000000" x="0.000244" y="0.000000" />
	<g id="Frame" clip-path="url(#clipPath_12)" customFrame="url(#clipPath_12)">
		<rect id="Frame" width="115.641029" height="16.923077" x="0.000244" y="2.538574" fill="rgb(255,255,255)" fill-opacity="0" />
		<path id="Vector" d="M3.84385 11.0111L1.92253 12.9194L0.0012207 11.0111L1.92253 9.10278L3.84385 11.0111ZM8.53102 6.35567L11.8247 9.64802L13.746 7.73971L10.4523 4.44736L8.53102 2.53906L6.6097 4.44736L3.2949 7.73971L5.21622 9.64802L8.53102 6.35567ZM15.1395 9.10278L13.2181 11.0111L15.1395 12.9194L17.0608 11.0111L15.1395 9.10278ZM8.53102 15.6456L5.23733 12.3742L3.2949 14.2825L6.58859 17.5539L8.50986 19.4621L10.4312 17.5539L13.746 14.2825L11.8247 12.3742L8.53102 15.6456ZM8.53102 12.9194L10.4523 11.0111L8.53102 9.10278L6.6097 11.0111L8.53102 12.9194ZM28.8632 13.1081L28.8632 13.0871C28.8632 11.8499 28.1875 11.2208 27.1107 10.8014C27.7864 10.4239 28.3353 9.83672 28.3353 8.78823L28.3353 8.76726C28.3353 7.29933 27.153 6.35567 25.2528 6.35567L20.9034 6.35567L20.9034 15.6456L25.3583 15.6456C27.4697 15.6456 28.8632 14.8067 28.8632 13.1081ZM26.2873 9.14472C26.2873 9.83672 25.7172 10.1303 24.8094 10.1303L22.9092 10.1303L22.9092 8.15912L24.9361 8.15912C25.8017 8.15912 26.2873 8.49465 26.2873 9.12375L26.2873 9.14472ZM26.8151 12.8565C26.8151 13.5485 26.2662 13.8631 25.3583 13.8631L22.9092 13.8631L22.9092 11.8289L25.295 11.8289C26.3507 11.8289 26.8151 12.2064 26.8151 12.8355L26.8151 12.8565ZM33.1703 15.6456L33.1703 6.35567L31.1223 6.35567L31.1223 15.6456L33.1703 15.6456ZM44.2337 15.6456L44.2337 6.35567L42.2068 6.35567L42.2068 12.0806L37.8152 6.35567L35.915 6.35567L35.915 15.6456L37.9419 15.6456L37.9419 9.75288L42.4813 15.6665L44.2337 15.6665L44.2337 15.6456ZM55.6348 15.6456L51.6233 6.29276L49.7231 6.29276L45.7116 15.6456L47.8018 15.6456L48.6675 13.5695L52.6156 13.5695L53.4813 15.6456L55.6348 15.6456ZM51.8978 11.766L49.4065 11.766L50.6521 8.74628L51.8978 11.766ZM65.4315 15.6456L65.4315 6.35567L63.4046 6.35567L63.4046 12.0806L59.013 6.35567L57.1128 6.35567L57.1128 15.6456L59.1397 15.6456L59.1397 9.75288L63.679 15.6665L65.4315 15.6665L65.4315 15.6456ZM76.0726 14.1566L74.7638 12.8355C74.0249 13.5066 73.3698 13.926 72.3142 13.926C70.7101 13.926 69.6119 12.6048 69.6119 11.0111L69.6119 10.9901C69.6119 9.39637 70.7524 8.09621 72.3142 8.09621C73.2436 8.09621 73.9826 8.49465 74.7004 9.14472L76.0091 7.63486C75.1439 6.77508 74.0876 6.20887 72.3142 6.20887C69.443 6.20887 67.4372 8.36882 67.4372 11.0111L67.4372 11.032C67.4372 13.6953 69.4852 15.8133 72.2296 15.8133C74.0249 15.8133 75.1016 15.1842 76.0726 14.1566ZM84.8345 15.6456L84.8345 13.8211L79.7674 13.8211L79.7674 11.8709L84.1801 11.8709L84.1801 10.0464L79.7674 10.0464L79.7674 8.15912L84.771 8.15912L84.771 6.3347L77.7198 6.3347L77.7198 15.6245L84.8345 15.6245L84.8345 15.6456Z" fill="rgb(0,0,0)" fill-rule="nonzero" />
		<path id="Vector" d="M97.8739 9.4694C97.8739 7.57721 96.5116 6.35986 94.3553 6.35986L90.7048 6.35986L90.7048 15.6223L92.3316 15.6223L92.3316 12.6451L94.1705 12.6451C96.2077 12.6451 97.8739 11.5601 97.8739 9.4694ZM96.2204 9.50909C96.2204 10.5015 95.4532 11.1763 94.2234 11.1763L92.3316 11.1763L92.3316 7.84185L94.2234 7.84185C95.4405 7.84185 96.2204 8.41084 96.2204 9.50909Z" fill="rgb(0,0,0)" fill-rule="nonzero" />
		<path id="Vector" d="M103.396 6.29346L101.889 6.29346L97.8147 15.622L99.4809 15.622L100.434 13.3859L104.812 13.3859L105.751 15.622L107.471 15.622L103.396 6.29346ZM104.217 11.9435L101.029 11.9435L102.616 8.23857L104.217 11.9435Z" fill="rgb(0,0,0)" fill-rule="nonzero" />
		<path id="Vector" d="M111.964 11.9306L115.641 6.35986L113.776 6.35986L111.157 10.4618L108.564 6.35986L106.646 6.35986L110.323 11.9703L110.323 15.6223L111.964 15.6223L111.964 11.9306Z" fill="rgb(0,0,0)" fill-rule="nonzero" />
	</g>
</svg>
