<svg viewBox="0 0 37.1133 26" xmlns="http://www.w3.org/2000/svg" xmlns:xlink="http://www.w3.org/1999/xlink" width="37.113281" height="26.000000" fill="none" customFrame="#000000">
	<defs>
		<clipPath id="clipPath_8">
			<rect width="37.113403" height="12.000000" x="0.000000" y="7.000000" fill="rgb(255,255,255)" />
		</clipPath>
		<linearGradient id="paint_linear_4" x1="0.0009765625" x2="37.1143799" y1="13.0008116" y2="13.0008116" gradientUnits="userSpaceOnUse">
			<stop stop-color="rgb(36,31,93)" offset="0" stop-opacity="1" />
			<stop stop-color="rgb(3,78,161)" offset="1" stop-opacity="1" />
		</linearGradient>
	</defs>
	<rect id="Payment method logo" width="37.113403" height="26.000000" x="0.000000" y="0.000000" />
	<g id="visa-2" clip-path="url(#clipPath_8)" customFrame="url(#clipPath_8)">
		<rect id="visa-2" width="37.113403" height="12.000000" x="0.000000" y="7.000000" fill="rgb(255,255,255)" fill-opacity="0" />
		<path id="Vector" d="M14.0917 7.21731L9.22984 18.8152L6.06283 18.8152L3.66902 9.56164C3.52675 8.99257 3.40304 8.78226 2.95768 8.54102C2.24015 8.15133 1.04634 7.78638 0.000976562 7.55751L0.0690178 7.22349L5.17211 7.22349C5.8216 7.22349 6.40922 7.65648 6.55768 8.40494L7.81953 15.1163L10.9432 7.21731L14.0917 7.21731ZM26.5123 15.0297C26.5247 11.9678 22.2814 11.8008 22.3123 10.4338C22.3247 10.0194 22.7206 9.57401 23.5865 9.46267C24.0133 9.407 25.201 9.3637 26.5432 9.98226L27.069 7.52659C26.3453 7.26679 25.4175 7.01318 24.2608 7.01318C21.2979 7.01318 19.2133 8.5905 19.1948 10.842C19.1762 12.5122 20.6855 13.44 21.8237 13.9967C22.9927 14.5658 23.3824 14.9307 23.3762 15.4379C23.3701 16.2173 22.4422 16.5575 21.5824 16.5699C20.0731 16.5946 19.201 16.1616 18.502 15.84L17.9577 18.3823C18.6566 18.7039 19.9494 18.9823 21.2917 19.0008C24.4402 18.9946 26.5061 17.4359 26.5123 15.0297ZM34.3432 18.8152L37.1144 18.8152L34.6958 7.21731L32.135 7.21731C31.5597 7.21731 31.0711 7.55133 30.8608 8.06473L26.3577 18.8152L29.5061 18.8152L30.1309 17.0833L33.9783 17.0833L34.3432 18.8152ZM30.9969 14.708L32.5742 10.3534L33.4835 14.708L30.9969 14.708ZM18.3783 7.21731L15.8979 18.8152L12.8979 18.8152L15.3783 7.21731L18.3783 7.21731Z" fill="url(#paint_linear_4)" fill-rule="nonzero" />
	</g>
</svg>
