<svg width="20" height="20" viewBox="0 0 20 20" fill="none" xmlns="http://www.w3.org/2000/svg">
<mask id="mask0_2064_2336" style="mask-type:alpha" maskUnits="userSpaceOnUse" x="0" y="0" width="20" height="20">
<g clip-path="url(#clip0_2064_2336)">
<path d="M4.53125 3.75C3.73125 3.75 3.07847 4.35361 2.98706 5.12939L10.7812 10L18.5754 5.12939C18.484 4.35361 17.8313 3.75 17.0312 3.75H4.53125ZM2.96875 6.68121V8.4375H2.1875C1.75625 8.4375 1.40625 8.7875 1.40625 9.21875C1.40625 9.65 1.75625 10 2.1875 10H2.96875H4.53125H5.3125C5.74375 10 6.09375 10.35 6.09375 10.7812C6.09375 11.2125 5.74375 11.5625 5.3125 11.5625H2.96875H2.1875C1.75625 11.5625 1.40625 11.9125 1.40625 12.3438C1.40625 12.775 1.75625 13.125 2.1875 13.125H2.96875H6.09375H6.875C7.30625 13.125 7.65625 13.475 7.65625 13.9062C7.65625 14.3375 7.30625 14.6875 6.875 14.6875H2.96875H2.1875C1.75625 14.6875 1.40625 15.0375 1.40625 15.4688C1.40625 15.9 1.75625 16.25 2.1875 16.25H4.53125H7.65625H17.0312C17.8945 16.25 18.5938 15.5508 18.5938 14.6875V6.68121L11.1948 11.3046C10.9416 11.4624 10.6209 11.4624 10.3677 11.3046L2.96875 6.68121Z" fill="black"/>
</g>
</mask>
<g mask="url(#mask0_2064_2336)">
<rect width="20" height="20" fill="white" fill-opacity="0.74"/>
</g>
<defs>
<clipPath id="clip0_2064_2336">
<rect width="20" height="20" fill="white"/>
</clipPath>
</defs>
</svg>
