<svg viewBox="0 0 120 40" xmlns="http://www.w3.org/2000/svg" xmlns:xlink="http://www.w3.org/1999/xlink" width="120.000000" height="40.000000" fill="none" customFrame="url(#clipPath_6)">
	<defs>
		<clipPath id="clipPath_6">
			<rect width="120.000000" height="40.000000" x="0.000000" y="0.000000" rx="8.000000" fill="rgb(255,255,255)" />
		</clipPath>
	</defs>
	<rect id="Mobile app store badge" width="120.000000" height="40.000000" x="0.000000" y="0.000000" rx="8.000000" fill="rgb(0,0,0)" />
	<rect id="Mobile app store badge" width="119.000000" height="39.000000" x="0.500000" y="0.500000" rx="7.500000" stroke="rgb(255,255,255)" stroke-opacity="0.400000006" stroke-width="1.000000" />
	<path id="App Store" d="M74.5626 30.791C71.8095 30.791 69.9598 29.3715 69.8221 27.1518L71.7321 27.1518C71.8955 28.3304 73.0484 29.0789 74.7089 29.0789C76.2575 29.0789 77.3932 28.2788 77.3932 27.1776C77.3932 26.2312 76.6705 25.6633 75.0272 25.2762L73.427 24.889C71.1815 24.3642 70.1576 23.2802 70.1576 21.4562C70.1576 19.2451 71.9644 17.7739 74.6745 17.7739C77.1953 17.7739 79.0365 19.2451 79.1483 21.3358L77.2727 21.3358C77.0921 20.1915 76.0941 19.4774 74.6487 19.4774C73.1259 19.4774 72.1106 20.2087 72.1106 21.3272C72.1106 22.2133 72.7645 22.7209 74.382 23.0995L75.7499 23.435C78.2966 24.0287 79.3462 25.0611 79.3462 26.9281C79.3462 29.3026 77.505 30.791 74.5626 30.791ZM45.4905 30.4899L43.4428 30.4899L42.3072 27.1948L37.5752 27.1948L36.431 30.4899L34.4521 30.4899L38.9346 18.075L41.008 18.075L45.4905 30.4899ZM81.5257 21.4919L81.5257 19.2009L83.3103 19.2009L83.3103 21.4919L85.2693 21.4919L85.2693 22.9943L83.3103 22.9943L83.3103 27.6428C83.3103 28.589 83.7005 29.0041 84.5887 29.0041C84.8626 29.0041 85.0203 28.9875 85.2693 28.9626L85.2693 30.4484C84.9788 30.4982 84.6468 30.5397 84.2981 30.5397C82.3143 30.5397 81.5257 29.8425 81.5257 28.0993L81.5257 22.9943L80.0896 22.9943L80.0896 21.4919L81.5257 21.4919ZM40.0186 20.3292L39.8724 20.3292L38.0656 25.5773L41.8168 25.5773L40.0186 20.3292ZM94.5815 25.966C94.5815 28.8962 92.9628 30.6642 90.3232 30.6642C87.6752 30.6642 86.0566 28.8962 86.0566 25.966C86.0566 23.0524 87.6835 21.2761 90.3232 21.2761C92.9545 21.2761 94.5815 23.0524 94.5815 25.966ZM105.552 29.1452C106.632 29.1452 107.37 28.7551 107.702 28.0495L109.421 28.0495C109.014 29.6681 107.57 30.6642 105.503 30.6642C102.913 30.6642 101.327 28.8879 101.327 25.9992C101.327 23.1105 102.946 21.2761 105.494 21.2761C108.009 21.2761 109.529 22.9943 109.529 25.8332L109.529 26.4557L103.145 26.4557L103.145 26.5554C103.203 28.1408 104.125 29.1452 105.552 29.1452ZM48.4959 22.9445C49.0438 21.9152 50.1063 21.301 51.3348 21.301C53.6341 21.301 55.0867 23.0939 55.0867 25.966C55.0867 28.8381 53.6341 30.6393 51.3514 30.6393C50.0647 30.6393 49.0438 30.0749 48.5706 29.1203L48.4295 29.1203L48.4295 33.4948L46.6448 33.4948L46.6448 21.4504L48.3631 21.4504L48.3631 22.9445L48.4959 22.9445ZM58.4927 22.9445C59.0405 21.9152 60.103 21.301 61.3316 21.301C63.6309 21.301 65.0835 23.0939 65.0835 25.966C65.0835 28.8381 63.6309 30.6393 61.3482 30.6393C60.0615 30.6393 59.0405 30.0749 58.5674 29.1203L58.4263 29.1203L58.4263 33.4948L56.6416 33.4948L56.6416 21.4504L58.3599 21.4504L58.3599 22.9445L58.4927 22.9445ZM97.7511 30.4899L95.9664 30.4899L95.9664 21.4504L97.6846 21.4504L97.6846 22.8366L97.8175 22.8366C98.0748 21.9484 99.0792 21.301 100.258 21.301C100.524 21.301 100.864 21.3259 101.055 21.3757L101.055 23.1354C100.905 23.0856 100.374 23.0275 100.059 23.0275C98.7056 23.0275 97.7511 23.8825 97.7511 25.1525L97.7511 30.4899ZM107.711 25.1359C107.669 23.7165 106.806 22.7951 105.486 22.7951C104.166 22.7951 103.245 23.7248 103.145 25.1359L107.711 25.1359ZM87.8994 25.966C87.8994 27.9416 88.7709 29.0788 90.3232 29.0788C91.8671 29.0788 92.747 27.9333 92.747 25.966C92.747 24.007 91.8671 22.8615 90.3232 22.8615C88.7709 22.8615 87.8994 24.007 87.8994 25.966ZM48.3963 25.9743C48.3963 27.8586 49.3343 29.0373 50.8284 29.0373C52.3475 29.0373 53.2522 27.8835 53.2522 25.966C53.2522 24.0568 52.3475 22.903 50.8367 22.903C49.3343 22.903 48.3963 24.0817 48.3963 25.9743ZM58.3931 25.9743C58.3931 27.8586 59.3311 29.0373 60.8252 29.0373C62.3443 29.0373 63.249 27.8835 63.249 25.966C63.249 24.0568 62.3443 22.903 60.8335 22.903C59.3311 22.903 58.3931 24.0817 58.3931 25.9743Z" fill="rgb(255,255,255)" fill-rule="evenodd" />
	<path id="Download on the" d="M59.0903 14.6997L59.9826 14.6997L59.9826 8.41602L59.0903 8.41602L59.0903 14.6997ZM73.2132 14.7744C73.8358 14.7744 74.3629 14.4797 74.6327 13.9858L74.7032 13.9858L74.7032 14.6997L75.5582 14.6997L75.5582 8.41602L74.6659 8.41602L74.6659 10.8979L74.5995 10.8979C74.3546 10.3999 73.8316 10.1052 73.2132 10.1052C72.0719 10.1052 71.3372 11.01 71.3372 12.4377C71.3372 13.8696 72.0636 14.7744 73.2132 14.7744ZM95.6735 14.6997L96.5658 14.6997L96.5658 12.0601C96.5658 11.3752 96.9726 10.9146 97.703 10.9146C98.3339 10.9146 98.6701 11.2798 98.6701 12.002L98.6701 14.6997L99.5624 14.6997L99.5624 11.782C99.5624 10.707 98.9689 10.0969 98.006 10.0969C97.3253 10.0969 96.848 10.3999 96.6281 10.9062L96.5575 10.9062L96.5575 8.41602L95.6735 8.41602L95.6735 14.6997ZM35.6514 8.71069L35.6514 14.6997L37.8137 14.6997C39.5984 14.6997 40.6318 13.5999 40.6318 11.6865C40.6318 9.80225 39.5901 8.71069 37.8137 8.71069L35.6514 8.71069ZM92.6039 9.05518L92.6039 10.2007L91.8858 10.2007L91.8858 10.9519L92.6039 10.9519L92.6039 13.5044C92.6039 14.376 92.9981 14.7246 93.9901 14.7246C94.1644 14.7246 94.3304 14.7039 94.4757 14.679L94.4757 13.936C94.3512 13.9485 94.2723 13.9568 94.1353 13.9568C93.6913 13.9568 93.4962 13.7493 93.4962 13.2761L93.4962 10.9519L94.4757 10.9519L94.4757 10.2007L93.4962 10.2007L93.4962 9.05518L92.6039 9.05518ZM36.5811 9.55737L37.71 9.55737C38.9509 9.55737 39.6855 10.3459 39.6855 11.699C39.6855 13.0728 38.9634 13.853 37.71 13.853L36.5811 13.853L36.5811 9.55737ZM43.7969 14.7869C45.1167 14.7869 45.9261 13.9028 45.9261 12.4377C45.9261 10.981 45.1126 10.0928 43.7969 10.0928C42.4771 10.0928 41.6636 10.981 41.6636 12.4377C41.6636 13.9028 42.4729 14.7869 43.7969 14.7869ZM53.8458 14.6997L54.7382 14.6997L54.7382 12.0559C54.7382 11.3503 55.1574 10.9104 55.8173 10.9104C56.4772 10.9104 56.7926 11.2715 56.7926 11.9978L56.7926 14.6997L57.685 14.6997L57.685 11.7737C57.685 10.6987 57.1288 10.0928 56.1203 10.0928C55.4396 10.0928 54.9914 10.3958 54.7714 10.8979L54.705 10.8979L54.705 10.1799L53.8458 10.1799L53.8458 14.6997ZM63.3386 14.7869C64.6584 14.7869 65.4678 13.9028 65.4678 12.4377C65.4678 10.981 64.6543 10.0928 63.3386 10.0928C62.0188 10.0928 61.2053 10.981 61.2053 12.4377C61.2053 13.9028 62.0146 14.7869 63.3386 14.7869ZM67.8982 14.7744C68.4917 14.7744 68.9856 14.5171 69.2554 14.0647L69.326 14.0647L69.326 14.6997L70.1851 14.6997L70.1851 11.6118C70.1851 10.6572 69.5459 10.0928 68.4129 10.0928C67.3877 10.0928 66.6573 10.5908 66.566 11.3669L67.4292 11.3669C67.5289 11.0474 67.8733 10.8647 68.3714 10.8647C68.9815 10.8647 69.2969 11.1345 69.2969 11.6118L69.2969 12.002L68.0726 12.0725C66.9976 12.1389 66.3916 12.6079 66.3916 13.4214C66.3916 14.2473 67.0267 14.7744 67.8982 14.7744ZM81.3447 14.7869C82.6645 14.7869 83.4738 13.9028 83.4738 12.4377C83.4738 10.981 82.6604 10.0928 81.3447 10.0928C80.0249 10.0928 79.2114 10.981 79.2114 12.4377C79.2114 13.9028 80.0207 14.7869 81.3447 14.7869ZM84.655 14.6997L85.5474 14.6997L85.5474 12.0559C85.5474 11.3503 85.9666 10.9104 86.6265 10.9104C87.2864 10.9104 87.6018 11.2715 87.6018 11.9978L87.6018 14.6997L88.4941 14.6997L88.4941 11.7737C88.4941 10.6987 87.938 10.0928 86.9294 10.0928C86.2488 10.0928 85.8005 10.3958 85.5806 10.8979L85.5142 10.8979L85.5142 10.1799L84.655 10.1799L84.655 14.6997ZM103.89 13.4795C103.724 13.8323 103.354 14.0273 102.815 14.0273C102.101 14.0273 101.64 13.5251 101.611 12.7324L101.611 12.6826L104.803 12.6826L104.803 12.3713C104.803 10.9519 104.043 10.0928 102.786 10.0928C101.511 10.0928 100.702 11.01 100.702 12.4543C100.702 13.8987 101.495 14.7869 102.79 14.7869C103.823 14.7869 104.545 14.2888 104.749 13.4795L103.89 13.4795ZM52.8182 10.1799L51.9259 10.1799L51.1207 13.6289L51.0501 13.6289L50.1205 10.1799L49.2655 10.1799L48.3358 13.6289L48.2694 13.6289L47.4601 10.1799L46.5553 10.1799L47.8004 14.6997L48.7176 14.6997L49.6473 11.3711L49.7179 11.3711L50.6517 14.6997L51.5772 14.6997L52.8182 10.1799ZM102.781 10.8523C103.441 10.8523 103.873 11.313 103.894 12.0227L101.611 12.0227C101.661 11.3171 102.122 10.8523 102.781 10.8523ZM43.7969 13.9941C43.0208 13.9941 42.585 13.4255 42.585 12.4377C42.585 11.4583 43.0208 10.8855 43.7969 10.8855C44.5689 10.8855 45.0088 11.4583 45.0088 12.4377C45.0088 13.4214 44.5689 13.9941 43.7969 13.9941ZM63.3386 13.9941C62.5625 13.9941 62.1267 13.4255 62.1267 12.4377C62.1267 11.4583 62.5625 10.8855 63.3386 10.8855C64.1106 10.8855 64.5505 11.4583 64.5505 12.4377C64.5505 13.4214 64.1106 13.9941 63.3386 13.9941ZM81.3447 13.9941C80.5686 13.9941 80.1328 13.4255 80.1328 12.4377C80.1328 11.4583 80.5686 10.8855 81.3447 10.8855C82.1167 10.8855 82.5566 11.4583 82.5566 12.4377C82.5566 13.4214 82.1167 13.9941 81.3447 13.9941ZM73.4664 10.9062C74.2135 10.9062 74.6825 11.4998 74.6825 12.4419C74.6825 13.3882 74.2176 13.9734 73.4664 13.9734C72.711 13.9734 72.2586 13.3965 72.2586 12.4377C72.2586 11.4873 72.7152 10.9062 73.4664 10.9062ZM68.1265 14.0232C67.6409 14.0232 67.2881 13.7866 67.2881 13.3799C67.2881 12.9814 67.5704 12.7698 68.1929 12.7283L69.2969 12.6577L69.2969 13.0354C69.2969 13.5957 68.7989 14.0232 68.1265 14.0232Z" fill="rgb(255,255,255)" fill-rule="evenodd" />
	<path id="Apple logo" d="M23.1518 8.7207C23.2487 9.98494 22.8489 11.2371 22.0373 12.2113C21.2601 13.178 20.0408 13.7545 18.8006 13.7417C18.7214 12.5258 19.14 11.2956 19.9443 10.3803C20.7668 9.44348 21.912 8.85092 23.1518 8.7207ZM24.769 20.3011C24.7907 18.6201 25.6934 17.0295 27.1256 16.149C26.2221 14.8587 24.7088 14.0406 23.1344 13.9913C22.1072 13.8835 21.0992 14.2836 20.2755 14.6105C19.7525 14.8181 19.3038 14.9962 18.9715 14.9962C18.5935 14.9962 18.1319 14.8107 17.6147 14.603C16.9383 14.3313 16.1669 14.0215 15.363 14.038C13.5137 14.0978 11.7898 15.1491 10.8901 16.7659C8.95607 20.1143 10.3987 25.0354 12.2513 27.742C13.1782 29.0673 14.2615 30.5478 15.6789 30.4953C17.066 30.4377 17.584 29.6108 19.2583 29.6108C20.1052 29.6108 20.6464 29.8413 21.1657 30.0626C21.6636 30.2747 22.1414 30.4782 22.8493 30.4619C24.3377 30.4377 25.2754 29.1306 26.1698 27.7927C26.8358 26.8484 27.3483 25.8047 27.6882 24.7002C25.9391 23.9604 24.771 22.2002 24.769 20.3011Z" fill="rgb(255,255,255)" fill-rule="evenodd" />
</svg>
