<svg viewBox="0 0 32 32" xmlns="http://www.w3.org/2000/svg" xmlns:xlink="http://www.w3.org/1999/xlink" width="32.000000" height="32.000000" fill="none" customFrame="url(#clipPath_0)">
	<mask id="mask_0" width="20.000000" height="20.000000" x="6.000000" y="6.000000" maskUnits="userSpaceOnUse">
		<g filter="url(#pixso_custom_mask_type_alpha)">
			<g id="icon" customFrame="url(#clipPath_3)">
				<rect id="icon" width="20.000000" height="20.000000" x="6.000000" y="6.000000" />
				<g id="Icon" clip-path="url(#clipPath_4)" customFrame="url(#clipPath_4)">
					<rect id="Icon" width="20.000000" height="20.000000" x="6.000000" y="6.000000" />
					<g id="Theme" clip-path="url(#clipPath_5)" customFrame="url(#clipPath_5)">
						<rect id="Theme" width="20.000000" height="20.000000" x="6.000000" y="6.000000" fill="rgb(255,255,255)" fill-opacity="0" />
						<g id="icons8-солнце 1" clip-path="url(#clipPath_6)" customFrame="url(#clipPath_6)">
							<rect id="icons8-солнце 1" width="20.000000" height="20.000000" x="6.000000" y="6.000000" fill="rgb(255,255,255)" fill-opacity="0" />
							<path id="Vector" d="M15.9896 6.65755C15.8131 6.66031 15.6448 6.73302 15.5217 6.85971C15.3987 6.98641 15.331 7.15674 15.3334 7.33333L15.3334 9.33333C15.3321 9.42167 15.3485 9.50938 15.3814 9.59136C15.4143 9.67334 15.4633 9.74796 15.5253 9.81087C15.5873 9.87378 15.6612 9.92374 15.7427 9.95784C15.8242 9.99194 15.9117 10.0095 16.0001 10.0095C16.0884 10.0095 16.1759 9.99194 16.2574 9.95784C16.3389 9.92374 16.4128 9.87378 16.4748 9.81087C16.5369 9.74796 16.5858 9.67334 16.6187 9.59136C16.6516 9.50938 16.668 9.42167 16.6667 9.33333L16.6667 7.33333C16.6679 7.24414 16.6513 7.15561 16.6176 7.07298C16.584 6.99036 16.5342 6.91531 16.471 6.8523C16.4079 6.78928 16.3328 6.73958 16.2501 6.70613C16.1674 6.67268 16.0788 6.65616 15.9896 6.65755ZM9.86464 9.19922C9.73213 9.19951 9.60271 9.23928 9.4929 9.31346C9.3831 9.38763 9.29788 9.49285 9.24814 9.61567C9.1984 9.73849 9.18638 9.87335 9.21362 10.003C9.24087 10.1327 9.30614 10.2513 9.4011 10.3438L10.8152 11.7578C10.8766 11.8218 10.9502 11.8729 11.0316 11.9081C11.113 11.9433 11.2006 11.9618 11.2893 11.9627C11.378 11.9636 11.466 11.9468 11.5481 11.9133C11.6302 11.8798 11.7048 11.8302 11.7675 11.7675C11.8303 11.7048 11.8798 11.6302 11.9134 11.5481C11.9469 11.4659 11.9637 11.378 11.9628 11.2893C11.9619 11.2006 11.9433 11.113 11.9081 11.0315C11.8729 10.9501 11.8218 10.8765 11.7579 10.8151L10.3438 9.40104C10.2815 9.33702 10.207 9.28617 10.1247 9.2515C10.0424 9.21683 9.95395 9.19905 9.86464 9.19922ZM22.1146 9.19922C21.9414 9.20438 21.7771 9.27677 21.6563 9.40104L20.2422 10.8151C20.1783 10.8765 20.1272 10.9501 20.092 11.0315C20.0568 11.113 20.0382 11.2006 20.0373 11.2893C20.0364 11.378 20.0532 11.4659 20.0867 11.5481C20.1203 11.6302 20.1698 11.7048 20.2326 11.7675C20.2953 11.8302 20.3699 11.8798 20.452 11.9133C20.5341 11.9468 20.6221 11.9636 20.7108 11.9627C20.7995 11.9618 20.8871 11.9432 20.9685 11.9081C21.0499 11.8729 21.1235 11.8218 21.1849 11.7578L22.599 10.3438C22.6953 10.2501 22.7611 10.1295 22.7878 9.99787C22.8144 9.86619 22.8007 9.72953 22.7483 9.60581C22.6959 9.48208 22.6074 9.37706 22.4944 9.30451C22.3813 9.23196 22.2489 9.19526 22.1146 9.19922ZM16.0001 11.3333C14.7624 11.3333 13.5754 11.825 12.7002 12.7002C11.8251 13.5753 11.3334 14.7623 11.3334 16C11.3334 17.2377 11.8251 18.4247 12.7002 19.2998C13.5754 20.175 14.7624 20.6667 16.0001 20.6667C17.2377 20.6667 18.4247 20.175 19.2999 19.2998C20.1751 18.4247 20.6667 17.2377 20.6667 16C20.6667 14.7623 20.1751 13.5753 19.2999 12.7002C18.4247 11.825 17.2377 11.3333 16.0001 11.3333ZM7.33339 15.3333C7.24505 15.3321 7.15734 15.3484 7.07536 15.3813C6.99338 15.4143 6.91877 15.4632 6.85585 15.5252C6.79294 15.5873 6.74298 15.6612 6.70888 15.7427C6.67479 15.8242 6.65723 15.9116 6.65723 16C6.65723 16.0884 6.67479 16.1758 6.70888 16.2573C6.74298 16.3388 6.79294 16.4127 6.85585 16.4748C6.91877 16.5368 6.99338 16.5857 7.07536 16.6187C7.15734 16.6516 7.24505 16.6679 7.33339 16.6667L9.33339 16.6667C9.42173 16.6679 9.50944 16.6516 9.59142 16.6187C9.6734 16.5857 9.74801 16.5368 9.81092 16.4748C9.87384 16.4127 9.92379 16.3388 9.95789 16.2573C9.99199 16.1758 10.0096 16.0884 10.0096 16C10.0096 15.9116 9.99199 15.8242 9.95789 15.7427C9.92379 15.6612 9.87384 15.5873 9.81092 15.5252C9.74801 15.4632 9.6734 15.4143 9.59142 15.3813C9.50944 15.3484 9.42173 15.3321 9.33339 15.3333L7.33339 15.3333ZM22.6667 15.3333C22.5784 15.3321 22.4907 15.3484 22.4087 15.3813C22.3267 15.4143 22.2521 15.4632 22.1892 15.5252C22.1263 15.5873 22.0763 15.6612 22.0422 15.7427C22.0081 15.8242 21.9906 15.9116 21.9906 16C21.9906 16.0884 22.0081 16.1758 22.0422 16.2573C22.0763 16.3388 22.1263 16.4127 22.1892 16.4748C22.2521 16.5368 22.3267 16.5857 22.4087 16.6187C22.4907 16.6516 22.5784 16.6679 22.6667 16.6667L24.6667 16.6667C24.7551 16.6679 24.8428 16.6516 24.9247 16.6187C25.0067 16.5857 25.0813 16.5368 25.1443 16.4748C25.2072 16.4127 25.2571 16.3388 25.2912 16.2573C25.3253 16.1758 25.3429 16.0884 25.3429 16C25.3429 15.9116 25.3253 15.8242 25.2912 15.7427C25.2571 15.6612 25.2072 15.5873 25.1443 15.5252C25.0813 15.4632 25.0067 15.4143 24.9247 15.3813C24.8428 15.3484 24.7551 15.3321 24.6667 15.3333L22.6667 15.3333ZM11.2735 20.0404C11.1003 20.0455 10.9359 20.1179 10.8152 20.2422L9.4011 21.6562C9.33712 21.7177 9.28604 21.7913 9.25085 21.8727C9.21566 21.9541 9.19707 22.0417 9.19617 22.1304C9.19527 22.2191 9.21207 22.3071 9.2456 22.3892C9.27912 22.4713 9.3287 22.5459 9.39142 22.6086C9.45413 22.6714 9.52874 22.7209 9.61085 22.7545C9.69297 22.788 9.78095 22.8048 9.86964 22.8039C9.95834 22.803 10.046 22.7844 10.1274 22.7492C10.2088 22.714 10.2824 22.6629 10.3438 22.599L11.7579 21.1849C11.8542 21.0913 11.92 20.9707 11.9466 20.839C11.9733 20.7073 11.9595 20.5707 11.9072 20.447C11.8548 20.3232 11.7663 20.2182 11.6532 20.1457C11.5401 20.0731 11.4078 20.0364 11.2735 20.0404ZM20.7071 20.0404C20.5745 20.0404 20.4449 20.08 20.3349 20.1541C20.2248 20.2281 20.1394 20.3333 20.0895 20.4562C20.0396 20.5791 20.0275 20.7141 20.0547 20.8439C20.0819 20.9737 20.1472 21.0924 20.2422 21.1849L21.6563 22.599C21.7177 22.6629 21.7913 22.714 21.8727 22.7492C21.9542 22.7844 22.0418 22.803 22.1305 22.8039C22.2192 22.8048 22.3071 22.788 22.3893 22.7545C22.4714 22.7209 22.546 22.6714 22.6087 22.6086C22.6714 22.5459 22.721 22.4713 22.7545 22.3892C22.788 22.3071 22.8048 22.2191 22.8039 22.1304C22.803 22.0417 22.7844 21.9541 22.7493 21.8727C22.7141 21.7913 22.663 21.7177 22.599 21.6562L21.1849 20.2422C21.1228 20.1783 21.0485 20.1276 20.9664 20.0929C20.8844 20.0582 20.7962 20.0404 20.7071 20.0404ZM15.9896 21.9909C15.8131 21.9936 15.6448 22.0664 15.5217 22.193C15.3987 22.3197 15.331 22.4901 15.3334 22.6667L15.3334 24.6667C15.3321 24.755 15.3485 24.8427 15.3814 24.9247C15.4143 25.0067 15.4633 25.0813 15.5253 25.1442C15.5873 25.2071 15.6612 25.2571 15.7427 25.2912C15.8242 25.3253 15.9117 25.3428 16.0001 25.3428C16.0884 25.3428 16.1759 25.3253 16.2574 25.2912C16.3389 25.2571 16.4128 25.2071 16.4748 25.1442C16.5369 25.0813 16.5858 25.0067 16.6187 24.9247C16.6516 24.8427 16.668 24.755 16.6667 24.6667L16.6667 22.6667C16.6679 22.5775 16.6513 22.4889 16.6176 22.4063C16.584 22.3237 16.5342 22.2486 16.471 22.1856C16.4079 22.1226 16.3328 22.0729 16.2501 22.0395C16.1674 22.006 16.0788 21.9895 15.9896 21.9909Z" fill="rgb(255,255,255)" fill-rule="nonzero" />
						</g>
					</g>
				</g>
			</g>
		</g>
	</mask>
	<defs>
		<clipPath id="clipPath_0">
			<rect width="32.000000" height="32.000000" x="0.000000" y="0.000000" rx="16.000000" fill="rgb(255,255,255)" />
		</clipPath>
		<clipPath id="clipPath_1">
			<rect width="20.000000" height="20.000000" x="6.000000" y="6.000000" fill="rgb(255,255,255)" />
		</clipPath>
		<clipPath id="clipPath_2">
			<rect width="20.000000" height="20.000000" x="6.000000" y="6.000000" fill="rgb(255,255,255)" />
		</clipPath>
		<clipPath id="clipPath_3">
			<rect width="20.000000" height="20.000000" x="6.000000" y="6.000000" fill="rgb(255,255,255)" />
		</clipPath>
		<clipPath id="clipPath_4">
			<rect width="20.000000" height="20.000000" x="6.000000" y="6.000000" fill="rgb(255,255,255)" />
		</clipPath>
		<clipPath id="clipPath_5">
			<rect width="20.000000" height="20.000000" x="6.000000" y="6.000000" fill="rgb(255,255,255)" />
		</clipPath>
		<clipPath id="clipPath_6">
			<rect width="20.000000" height="20.000000" x="6.000000" y="6.000000" fill="rgb(255,255,255)" />
		</clipPath>
		<filter id="pixso_custom_mask_type_alpha">
			<feColorMatrix type="matrix" values="0 0 0 0 1 0 0 0 0 1 0 0 0 0 1 0 0 0 1 0 " />
		</filter>
	</defs>
	<rect id="Header" width="32.000000" height="32.000000" x="0.000000" y="0.000000" rx="16.000000" />
	<g id="colored icon" customFrame="url(#clipPath_1)">
		<rect id="colored icon" width="20.000000" height="20.000000" x="6.000000" y="6.000000" />
		<g id="mask" customFrame="url(#clipPath_2)" mask="url(#mask_0)">
			<rect id="mask" width="20.000000" height="20.000000" x="6.000000" y="6.000000" />
			<rect id="icon color" width="20.000000" height="20.000000" x="6.000000" y="6.000000" fill="rgb(255,255,255)" fill-opacity="0.74000001" />
		</g>
	</g>
</svg>
