<svg width="90" height="30" viewBox="0 0 90 30" fill="none" xmlns="http://www.w3.org/2000/svg">
<g clip-path="url(#clip0_14_12227)">
<circle cx="15" cy="15" r="15" fill="#FD731A"/>
<g clip-path="url(#clip1_14_12227)">
<path d="M7 15.127C7 14.7284 7 14.529 7.07881 14.3773C7.14522 14.2495 7.24947 14.1452 7.37732 14.0788C7.52903 14 7.72836 14 8.127 14H8.873C9.27164 14 9.47097 14 9.62268 14.0788C9.75053 14.1452 9.85478 14.2495 9.92119 14.3773C10 14.529 10 14.7284 10 15.127V17.873C10 18.2716 10 18.471 9.92119 18.6227C9.85478 18.7505 9.75053 18.8548 9.62268 18.9212C9.47097 19 9.27164 19 8.873 19H8.127C7.72836 19 7.52903 19 7.37732 18.9212C7.24947 18.8548 7.14522 18.7505 7.07881 18.6227C7 18.471 7 18.2716 7 17.873V15.127Z" fill="white"/>
<path d="M7 21.127C7 20.7284 7 20.529 7.07881 20.3773C7.14522 20.2495 7.24947 20.1452 7.37732 20.0788C7.52903 20 7.72836 20 8.127 20H8.873C9.27164 20 9.47097 20 9.62268 20.0788C9.75053 20.1452 9.85478 20.2495 9.92119 20.3773C10 20.529 10 20.7284 10 21.127V21.873C10 22.2716 10 22.471 9.92119 22.6227C9.85478 22.7505 9.75053 22.8548 9.62268 22.9212C9.47097 23 9.27164 23 8.873 23H8.127C7.72836 23 7.52903 23 7.37732 22.9212C7.24947 22.8548 7.14522 22.7505 7.07881 22.6227C7 22.471 7 22.2716 7 21.873V21.127Z" fill="white"/>
<path d="M11 12.127C11 11.7284 11 11.529 11.0788 11.3773C11.1452 11.2495 11.2495 11.1452 11.3773 11.0788C11.529 11 11.7284 11 12.127 11H12.873C13.2716 11 13.471 11 13.6227 11.0788C13.7505 11.1452 13.8548 11.2495 13.9212 11.3773C14 11.529 14 11.7284 14 12.127V17.873C14 18.2716 14 18.471 13.9212 18.6227C13.8548 18.7505 13.7505 18.8548 13.6227 18.9212C13.471 19 13.2716 19 12.873 19H12.127C11.7284 19 11.529 19 11.3773 18.9212C11.2495 18.8548 11.1452 18.7505 11.0788 18.6227C11 18.471 11 18.2716 11 17.873V12.127Z" fill="white"/>
<path d="M11 21.127C11 20.7284 11 20.529 11.0788 20.3773C11.1452 20.2495 11.2495 20.1452 11.3773 20.0788C11.529 20 11.7284 20 12.127 20H12.873C13.2716 20 13.471 20 13.6227 20.0788C13.7505 20.1452 13.8548 20.2495 13.9212 20.3773C14 20.529 14 20.7284 14 21.127V21.873C14 22.2716 14 22.471 13.9212 22.6227C13.8548 22.7505 13.7505 22.8548 13.6227 22.9212C13.471 23 13.2716 23 12.873 23H12.127C11.7284 23 11.529 23 11.3773 22.9212C11.2495 22.8548 11.1452 22.7505 11.0788 22.6227C11 22.471 11 22.2716 11 21.873V21.127Z" fill="white"/>
<path d="M15 9.127C15 8.72836 15 8.52903 15.0788 8.37732C15.1452 8.24947 15.2495 8.14522 15.3773 8.07881C15.529 8 15.7284 8 16.127 8H16.873C17.2716 8 17.471 8 17.6227 8.07881C17.7505 8.14522 17.8548 8.24947 17.9212 8.37732C18 8.52903 18 8.72836 18 9.127V17.873C18 18.2716 18 18.471 17.9212 18.6227C17.8548 18.7505 17.7505 18.8548 17.6227 18.9212C17.471 19 17.2716 19 16.873 19H16.127C15.7284 19 15.529 19 15.3773 18.9212C15.2495 18.8548 15.1452 18.7505 15.0788 18.6227C15 18.471 15 18.2716 15 17.873V9.127Z" fill="white"/>
<path d="M15 21.127C15 20.7284 15 20.529 15.0788 20.3773C15.1452 20.2495 15.2495 20.1452 15.3773 20.0788C15.529 20 15.7284 20 16.127 20H16.873C17.2716 20 17.471 20 17.6227 20.0788C17.7505 20.1452 17.8548 20.2495 17.9212 20.3773C18 20.529 18 20.7284 18 21.127V21.873C18 22.2716 18 22.471 17.9212 22.6227C17.8548 22.7505 17.7505 22.8548 17.6227 22.9212C17.471 23 17.2716 23 16.873 23H16.127C15.7284 23 15.529 23 15.3773 22.9212C15.2495 22.8548 15.1452 22.7505 15.0788 22.6227C15 22.471 15 22.2716 15 21.873V21.127Z" fill="white"/>
<path d="M19 7.127C19 6.72836 19 6.52903 19.0788 6.37732C19.1452 6.24947 19.2495 6.14522 19.3773 6.07881C19.529 6 19.7284 6 20.127 6H20.873C21.2716 6 21.471 6 21.6227 6.07881C21.7505 6.14522 21.8548 6.24947 21.9212 6.37732C22 6.52903 22 6.72836 22 7.127V17.873C22 18.2716 22 18.471 21.9212 18.6227C21.8548 18.7505 21.7505 18.8548 21.6227 18.9212C21.471 19 21.2716 19 20.873 19H20.127C19.7284 19 19.529 19 19.3773 18.9212C19.2495 18.8548 19.1452 18.7505 19.0788 18.6227C19 18.471 19 18.2716 19 17.873V7.127Z" fill="white"/>
<path d="M19 21.127C19 20.7284 19 20.529 19.0788 20.3773C19.1452 20.2495 19.2495 20.1452 19.3773 20.0788C19.529 20 19.7284 20 20.127 20H20.873C21.2716 20 21.471 20 21.6227 20.0788C21.7505 20.1452 21.8548 20.2495 21.9212 20.3773C22 20.529 22 20.7284 22 21.127V21.873C22 22.2716 22 22.471 21.9212 22.6227C21.8548 22.7505 21.7505 22.8548 21.6227 22.9212C21.471 23 21.2716 23 20.873 23H20.127C19.7284 23 19.529 23 19.3773 22.9212C19.2495 22.8548 19.1452 22.7505 19.0788 22.6227C19 22.471 19 22.2716 19 21.873V21.127Z" fill="white"/>
</g>
</g>
<g clip-path="url(#clip2_14_12227)">
<path d="M36.5892 24.748C36.3236 24.748 36.1442 24.4769 36.248 24.2324L38.1318 19.7952C38.2044 19.6244 38.4586 19.6729 38.4631 19.8585C38.4677 20.046 38.212 20.1051 38.1338 19.9346L33.616 10.0872C33.5033 9.84163 33.6828 9.56192 33.9529 9.56192H36.7404C36.8898 9.56192 37.0245 9.65152 37.0823 9.78922L39.2219 14.89C39.3417 15.1561 39.4547 15.4421 39.5612 15.7481C39.6554 16.019 39.7288 16.2795 39.7813 16.5296C39.7934 16.5874 39.7667 16.6462 39.7158 16.6762C39.6007 16.7443 39.4606 16.6261 39.5043 16.4997C39.542 16.3909 39.5809 16.2734 39.621 16.1472C39.7275 15.8412 39.8406 15.5153 39.9603 15.1694L41.8292 9.81054C41.8811 9.66166 42.0216 9.56192 42.1792 9.56192H44.9871C45.2529 9.56192 45.4323 9.83328 45.3282 10.0778L41.0379 20.1582L39.2952 24.515C39.2389 24.6557 39.1026 24.748 38.951 24.748H36.5892Z" fill="#FD731A"/>
<path d="M51.1118 20.3578C49.9411 20.3578 48.9233 20.125 48.0586 19.6594C47.1939 19.1804 46.522 18.5352 46.0431 17.7237C45.5642 16.8989 45.3247 15.9609 45.3247 14.91C45.3247 14.0984 45.4577 13.3534 45.7238 12.675C45.9899 11.9965 46.3624 11.4111 46.8413 10.9189C47.3202 10.4133 47.8857 10.0275 48.5375 9.76147C49.2027 9.48209 49.9278 9.3424 50.7127 9.3424C51.4577 9.3424 52.1362 9.47544 52.7481 9.74151C53.3734 10.0076 53.9122 10.3801 54.3645 10.859C54.8168 11.3379 55.1627 11.9034 55.4022 12.5552C55.6417 13.2071 55.7481 13.9188 55.7215 14.6905L55.7099 15.1865C55.7053 15.3878 55.5407 15.5485 55.3393 15.5485H47.5483C47.3789 15.5485 47.231 15.4337 47.1891 15.2696L46.9196 14.215C46.8597 13.9806 47.0368 13.7526 47.2788 13.7526H52.8729C52.9635 13.7526 53.0114 13.8597 52.951 13.9273C52.8868 13.999 52.7681 13.9536 52.7681 13.8574V13.7326C52.7415 13.4 52.635 13.1073 52.4488 12.8546C52.2758 12.5885 52.043 12.3823 51.7503 12.2359C51.4577 12.0896 51.1251 12.0164 50.7526 12.0164C50.2337 12.0164 49.7881 12.1229 49.4156 12.3357C49.0564 12.5353 48.7836 12.8346 48.5974 13.2337C48.4111 13.6195 48.318 14.0984 48.318 14.6705C48.318 15.2559 48.4378 15.768 48.6772 16.2071C48.93 16.6328 49.2892 16.9654 49.7548 17.2048C50.2337 17.4443 50.7991 17.564 51.451 17.564C51.9033 17.564 52.3024 17.4975 52.6483 17.3645C52.9152 17.2656 53.1967 17.1154 53.4929 16.9138C53.6673 16.7951 53.9074 16.8297 54.0293 17.0019L55.1089 18.5277C55.2188 18.6831 55.1939 18.8974 55.0442 19.0148C54.708 19.2782 54.3551 19.4997 53.9854 19.6793C53.5197 19.9055 53.0408 20.0718 52.5486 20.1782C52.0696 20.2979 51.5907 20.3578 51.1118 20.3578Z" fill="#FD731A"/>
<path d="M61.2689 20.3578C60.2312 20.3578 59.3132 20.1915 58.515 19.8589C57.9919 19.6372 57.3327 19.1171 56.9513 18.7948C56.7823 18.652 56.7858 18.395 56.953 18.2501L58.3141 17.0715C58.4611 16.9442 58.6803 16.9537 58.8282 17.0798C59.1753 17.3759 59.5565 17.6039 59.9718 17.7636C60.4906 17.9498 60.9829 18.043 61.4485 18.043C61.6347 18.043 61.801 18.023 61.9474 17.9831C62.0937 17.9432 62.2134 17.89 62.3066 17.8235C62.413 17.7436 62.4928 17.6572 62.546 17.564C62.5992 17.4576 62.6259 17.3379 62.6259 17.2048C62.6259 16.9388 62.5061 16.7326 62.2667 16.5862C62.1469 16.5197 61.9474 16.4399 61.668 16.3468C61.3886 16.2536 61.0294 16.1472 60.5904 16.0275C59.9651 15.8678 59.4197 15.6816 58.9541 15.4687C58.5017 15.2426 58.1292 14.9831 57.8366 14.6905C57.5705 14.4111 57.3643 14.1051 57.2179 13.7725C57.0716 13.4266 56.9984 13.0408 56.9984 12.6151C56.9984 12.1229 57.1115 11.6772 57.3377 11.2781C57.5771 10.879 57.8898 10.5331 58.2756 10.2404C58.6747 9.94772 59.127 9.72821 59.6325 9.58187C60.1514 9.42223 60.6835 9.3424 61.229 9.3424C61.8143 9.3424 62.3731 9.40892 62.9052 9.54196C63.4374 9.675 63.9296 9.86125 64.3819 10.1007C64.7326 10.2811 65.0531 10.4878 65.3434 10.721C65.501 10.8476 65.5112 11.0796 65.3765 11.2304L64.1968 12.5505C64.0577 12.7061 63.8184 12.7149 63.6536 12.5868C63.49 12.4597 63.3137 12.3428 63.1247 12.2359C62.8321 12.0497 62.5261 11.9034 62.2068 11.7969C61.8875 11.6905 61.5948 11.6373 61.3287 11.6373C61.1292 11.6373 60.9496 11.6572 60.79 11.6971C60.6436 11.7238 60.5172 11.777 60.4108 11.8568C60.3044 11.9233 60.2246 12.0098 60.1713 12.1162C60.1181 12.2093 60.0915 12.3224 60.0915 12.4555C60.0915 12.5885 60.1248 12.7149 60.1913 12.8346C60.2711 12.9543 60.3775 13.0541 60.5106 13.1339C60.6436 13.2138 60.8565 13.3069 61.1492 13.4133C61.4418 13.5064 61.8409 13.6262 62.3465 13.7725C62.9717 13.9455 63.5105 14.1384 63.9629 14.3512C64.4152 14.5641 64.7744 14.8168 65.0405 15.1095C65.2533 15.3357 65.413 15.6018 65.5194 15.9077C65.6258 16.2004 65.679 16.5197 65.679 16.8656C65.679 17.5441 65.4861 18.1494 65.1003 18.6815C64.7278 19.2004 64.209 19.6128 63.5438 19.9188C62.8786 20.2115 62.1203 20.3578 61.2689 20.3578Z" fill="#FD731A"/>
<path d="M68.0686 20.1582C67.8639 20.1582 67.6979 19.9923 67.6979 19.7875V9.93261C67.6979 9.72788 67.8639 9.56192 68.0686 9.56192H70.5201C70.7248 9.56192 70.8908 9.72788 70.8908 9.93261V19.7875C70.8908 19.9923 70.7248 20.1582 70.5201 20.1582H68.0686Z" fill="#FD731A"/>
<path d="M73.8077 20.1582C73.603 20.1582 73.437 19.9923 73.437 19.7875V9.93261C73.437 9.72788 73.603 9.56192 73.8077 9.56192H76.1184C76.3156 9.56192 76.4783 9.71636 76.4885 9.91333L76.5618 11.319C76.5663 11.4065 76.4989 11.481 76.4113 11.4852C76.2928 11.4908 76.2111 11.3689 76.2678 11.2646C76.4048 11.0127 76.5654 10.7843 76.7496 10.5796C77.0024 10.3136 77.2818 10.0941 77.5877 9.92111C77.907 9.73486 78.233 9.59517 78.5656 9.50205C78.9115 9.40892 79.2574 9.36236 79.6032 9.36236C80.1221 9.36236 80.5944 9.44218 81.0201 9.60183C81.4458 9.76147 81.8183 10.0209 82.1376 10.3801C82.4135 10.679 82.6397 11.0723 82.8163 11.56C82.857 11.6725 82.766 11.7865 82.6468 11.777C82.5273 11.7674 82.4555 11.6401 82.5091 11.5329L82.5566 11.4377C82.7296 11.1184 82.9491 10.8324 83.2152 10.5796C83.4945 10.3136 83.8005 10.0941 84.1331 9.92111C84.4657 9.73486 84.8116 9.59517 85.1708 9.50205C85.53 9.40892 85.8759 9.36236 86.2085 9.36236C87.0466 9.36236 87.7451 9.52866 88.3038 9.86125C88.8626 10.1805 89.2816 10.6661 89.561 11.318C89.8537 11.9699 90 12.7614 90 13.6927V19.7875C90 19.9923 89.834 20.1582 89.6293 20.1582H87.1579C86.9532 20.1582 86.7872 19.9923 86.7872 19.7875V13.9521C86.7872 13.5264 86.7273 13.1738 86.6076 12.8945C86.4879 12.6151 86.3083 12.4089 86.0688 12.2759C85.8426 12.1295 85.5566 12.0563 85.2107 12.0563C84.9313 12.0563 84.6719 12.1029 84.4325 12.196C84.2063 12.2892 84.0067 12.4155 83.8338 12.5752C83.6742 12.7348 83.5478 12.9211 83.4546 13.1339C83.3615 13.3468 83.3149 13.5863 83.3149 13.8523V19.7875C83.3149 19.9923 83.149 20.1582 82.9443 20.1582H80.4728C80.2681 20.1582 80.1021 19.9923 80.1021 19.7875V13.9321C80.1021 13.533 80.0423 13.1938 79.9225 12.9144C79.8028 12.635 79.6232 12.4222 79.3837 12.2759C79.1443 12.1295 78.8649 12.0563 78.5456 12.0563C78.2662 12.0563 78.0068 12.1029 77.7673 12.196C77.5412 12.2892 77.3416 12.4155 77.1687 12.5752C77.009 12.7348 76.8827 12.9211 76.7895 13.1339C76.6964 13.3468 76.6498 13.5796 76.6498 13.8324V19.7875C76.6498 19.9923 76.4839 20.1582 76.2791 20.1582H73.8077Z" fill="#FD731A"/>
<path d="M71.0224 6.65127C71.0224 7.60962 70.2455 8.38652 69.2872 8.38652C68.3288 8.38652 67.5519 7.60962 67.5519 6.65127C67.5519 5.69291 68.3288 4.91602 69.2872 4.91602C70.2455 4.91602 71.0224 5.69291 71.0224 6.65127Z" fill="#FD731A"/>
</g>
<defs>
<clipPath id="clip0_14_12227">
<rect width="30" height="30" fill="white"/>
</clipPath>
<clipPath id="clip1_14_12227">
<rect width="15" height="17" fill="white" transform="translate(7 6)"/>
</clipPath>
<clipPath id="clip2_14_12227">
<rect width="57" height="20" fill="white" transform="translate(33 4.91602)"/>
</clipPath>
</defs>
</svg>
