<svg viewBox="0 0 143.775 42" xmlns="http://www.w3.org/2000/svg" xmlns:xlink="http://www.w3.org/1999/xlink" width="143.775391" height="42.000000" fill="none" customFrame="#000000">
	<defs>
		<clipPath id="clipPath_3">
			<rect width="42.000000" height="42.000000" x="0.000000" y="0.000000" fill="rgb(255,255,255)" />
		</clipPath>
		<clipPath id="clipPath_4">
			<rect width="21.000000" height="23.799999" x="9.799805" y="8.399902" fill="rgb(255,255,255)" />
		</clipPath>
		<clipPath id="clipPath_5">
			<rect width="91.275101" height="32.375000" x="52.500000" y="4.812500" fill="rgb(255,255,255)" />
		</clipPath>
	</defs>
	<rect id="Logo / Yesim" width="143.775101" height="42.000000" x="0.000000" y="0.000000" fill="rgb(255,255,255)" fill-opacity="0" />
	<g id="Logo / Круг есима" clip-path="url(#clipPath_3)" customFrame="url(#clipPath_3)">
		<rect id="Logo / Круг есима" width="42.000000" height="42.000000" x="0.000000" y="0.000000" fill="rgb(255,164,0)" fill-opacity="0" />
		<circle id="Ellipse 248" cx="21" cy="21" r="21" fill="rgb(255,136,0)" />
		<g id="Лесенка" customFrame="url(#clipPath_4)">
			<rect id="Лесенка" width="21.000000" height="23.799999" x="9.799805" y="8.399902" fill="rgb(255,255,255)" fill-opacity="0" />
			<path id="Rectangle 1" d="M9.7998 21.1779C9.7998 20.6198 9.7998 20.3407 9.91014 20.1283C10.0031 19.9494 10.1491 19.8034 10.328 19.7104C10.5405 19.6001 10.8195 19.6001 11.3776 19.6001L12.422 19.6001C12.9801 19.6001 13.2592 19.6001 13.4716 19.7104C13.6505 19.8034 13.7965 19.9494 13.8895 20.1283C13.9998 20.3407 13.9998 20.6198 13.9998 21.1779L13.9998 25.0223C13.9998 25.5804 13.9998 25.8594 13.8895 26.0719C13.7965 26.2508 13.6505 26.3968 13.4716 26.4898C13.2592 26.6001 12.9801 26.6001 12.422 26.6001L11.3776 26.6001C10.8195 26.6001 10.5405 26.6001 10.328 26.4898C10.1491 26.3968 10.0031 26.2508 9.91014 26.0719C9.7998 25.8594 9.7998 25.5804 9.7998 25.0223L9.7998 21.1779Z" fill="rgb(255,255,255)" fill-rule="nonzero" />
			<path id="Rectangle 5" d="M9.7998 29.5778C9.7998 29.0197 9.7998 28.7406 9.91014 28.5282C10.0031 28.3493 10.1491 28.2033 10.328 28.1103C10.5405 28 10.8195 28 11.3776 28L12.422 28C12.9801 28 13.2592 28 13.4716 28.1103C13.6505 28.2033 13.7965 28.3493 13.8895 28.5282C13.9998 28.7406 13.9998 29.0197 13.9998 29.5778L13.9998 30.6222C13.9998 31.1803 13.9998 31.4594 13.8895 31.6718C13.7965 31.8507 13.6505 31.9967 13.4716 32.0897C13.2592 32.2 12.9801 32.2 12.422 32.2L11.3776 32.2C10.8195 32.2 10.5405 32.2 10.328 32.0897C10.1491 31.9967 10.0031 31.8507 9.91014 31.6718C9.7998 31.4594 9.7998 31.1803 9.7998 30.6222L9.7998 29.5778Z" fill="rgb(255,255,255)" fill-rule="nonzero" />
			<path id="Rectangle 2" d="M15.3999 16.9777C15.3999 16.4196 15.3999 16.1406 15.5102 15.9281C15.6032 15.7492 15.7492 15.6032 15.9281 15.5102C16.1406 15.3999 16.4196 15.3999 16.9777 15.3999L18.0221 15.3999C18.5802 15.3999 18.8593 15.3999 19.0717 15.5102C19.2506 15.6032 19.3966 15.7492 19.4896 15.9281C19.5999 16.1406 19.5999 16.4196 19.5999 16.9777L19.5999 25.0221C19.5999 25.5802 19.5999 25.8593 19.4896 26.0717C19.3966 26.2506 19.2506 26.3966 19.0717 26.4896C18.8593 26.5999 18.5802 26.5999 18.0221 26.5999L16.9777 26.5999C16.4196 26.5999 16.1406 26.5999 15.9281 26.4896C15.7492 26.3966 15.6032 26.2506 15.5102 26.0717C15.3999 25.8593 15.3999 25.5802 15.3999 25.0221L15.3999 16.9777Z" fill="rgb(255,255,255)" fill-rule="nonzero" />
			<path id="Rectangle 6" d="M15.3999 29.5778C15.3999 29.0197 15.3999 28.7406 15.5102 28.5282C15.6032 28.3493 15.7492 28.2033 15.9281 28.1103C16.1406 28 16.4196 28 16.9777 28L18.0221 28C18.5802 28 18.8593 28 19.0717 28.1103C19.2506 28.2033 19.3966 28.3493 19.4896 28.5282C19.5999 28.7406 19.5999 29.0197 19.5999 29.5778L19.5999 30.6222C19.5999 31.1803 19.5999 31.4594 19.4896 31.6718C19.3966 31.8507 19.2506 31.9967 19.0717 32.0897C18.8593 32.2 18.5802 32.2 18.0221 32.2L16.9777 32.2C16.4196 32.2 16.1406 32.2 15.9281 32.0897C15.7492 31.9967 15.6032 31.8507 15.5102 31.6718C15.3999 31.4594 15.3999 31.1803 15.3999 30.6222L15.3999 29.5778Z" fill="rgb(255,255,255)" fill-rule="nonzero" />
			<path id="Rectangle 3" d="M21 12.778C21 12.2199 21 11.9408 21.1103 11.7284C21.2033 11.5494 21.3493 11.4035 21.5282 11.3105C21.7406 11.2002 22.0197 11.2002 22.5778 11.2002L23.6222 11.2002C24.1803 11.2002 24.4594 11.2002 24.6718 11.3105C24.8507 11.4035 24.9967 11.5494 25.0897 11.7284C25.2 11.9408 25.2 12.2199 25.2 12.778L25.2 25.0224C25.2 25.5805 25.2 25.8595 25.0897 26.0719C24.9967 26.2509 24.8507 26.3969 24.6718 26.4899C24.4594 26.6002 24.1803 26.6002 23.6222 26.6002L22.5778 26.6002C22.0197 26.6002 21.7406 26.6002 21.5282 26.4899C21.3493 26.3969 21.2033 26.2509 21.1103 26.0719C21 25.8595 21 25.5805 21 25.0224L21 12.778Z" fill="rgb(255,255,255)" fill-rule="nonzero" />
			<path id="Rectangle 7" d="M21 29.5778C21 29.0197 21 28.7406 21.1103 28.5282C21.2033 28.3493 21.3493 28.2033 21.5282 28.1103C21.7406 28 22.0197 28 22.5778 28L23.6222 28C24.1803 28 24.4594 28 24.6718 28.1103C24.8507 28.2033 24.9967 28.3493 25.0897 28.5282C25.2 28.7406 25.2 29.0197 25.2 29.5778L25.2 30.6222C25.2 31.1803 25.2 31.4594 25.0897 31.6718C24.9967 31.8507 24.8507 31.9967 24.6718 32.0897C24.4594 32.2 24.1803 32.2 23.6222 32.2L22.5778 32.2C22.0197 32.2 21.7406 32.2 21.5282 32.0897C21.3493 31.9967 21.2033 31.8507 21.1103 31.6718C21 31.4594 21 31.1803 21 30.6222L21 29.5778Z" fill="rgb(255,255,255)" fill-rule="nonzero" />
			<path id="Rectangle 4" d="M26.6001 9.9777C26.6001 9.4196 26.6001 9.14055 26.7104 8.92815C26.8034 8.74916 26.9494 8.60322 27.1283 8.51024C27.3407 8.3999 27.6198 8.3999 28.1779 8.3999L29.2223 8.3999C29.7804 8.3999 30.0594 8.3999 30.2719 8.51024C30.4508 8.60322 30.5968 8.74916 30.6898 8.92815C30.8001 9.14055 30.8001 9.4196 30.8001 9.9777L30.8001 25.0221C30.8001 25.5802 30.8001 25.8593 30.6898 26.0717C30.5968 26.2506 30.4508 26.3966 30.2719 26.4896C30.0594 26.5999 29.7804 26.5999 29.2223 26.5999L28.1779 26.5999C27.6198 26.5999 27.3407 26.5999 27.1283 26.4896C26.9494 26.3966 26.8034 26.2506 26.7104 26.0717C26.6001 25.8593 26.6001 25.5802 26.6001 25.0221L26.6001 9.9777Z" opacity="0.5" fill="rgb(255,255,255)" fill-rule="nonzero" />
			<path id="Rectangle 8" d="M26.6001 29.5778C26.6001 29.0197 26.6001 28.7406 26.7104 28.5282C26.8034 28.3493 26.9494 28.2033 27.1283 28.1103C27.3407 28 27.6198 28 28.1779 28L29.2223 28C29.7804 28 30.0594 28 30.2719 28.1103C30.4508 28.2033 30.5968 28.3493 30.6898 28.5282C30.8001 28.7406 30.8001 29.0197 30.8001 29.5778L30.8001 30.6222C30.8001 31.1803 30.8001 31.4594 30.6898 31.6718C30.5968 31.8507 30.4508 31.9967 30.2719 32.0897C30.0594 32.2 29.7804 32.2 29.2223 32.2L28.1779 32.2C27.6198 32.2 27.3407 32.2 27.1283 32.0897C26.9494 31.9967 26.8034 31.8507 26.7104 31.6718C26.6001 31.4594 26.6001 31.1803 26.6001 30.6222L26.6001 29.5778Z" fill="rgb(255,255,255)" fill-rule="nonzero" />
		</g>
	</g>
	<g id="Logo / Yesim" customFrame="url(#clipPath_5)">
		<rect id="Logo / Yesim" width="91.275101" height="32.375000" x="52.500000" y="4.812500" fill="rgb(255,255,255)" fill-opacity="0" />
		<path id="Yesim" d="M66.5293 12.8418C66.9586 11.9425 67.6356 11.6859 68.5586 12.0713C69.5242 12.4781 69.7925 13.1527 69.3633 14.0947L59.5098 36.1914C59.2522 36.855 58.8342 37.1873 58.2549 37.1875C58.0402 37.1875 57.782 37.1236 57.4814 36.9951C56.5371 36.5669 56.2798 35.8923 56.709 34.9717L59.918 27.7383L52.6836 14.0303C52.4691 13.6236 52.4427 13.2329 52.6035 12.8584C52.7645 12.4837 53.0492 12.2104 53.457 12.0391C53.8648 11.8678 54.2513 11.8521 54.6162 11.9912C54.9809 12.1304 55.26 12.403 55.4531 12.8096L61.3545 24.502L66.5293 12.8418ZM79.0098 11.8438C80.9713 11.7961 82.9754 12.3482 84.5508 13.4443C86.1457 14.5541 87.3523 16.27 87.4707 18.4697C87.5176 19.3408 87.1371 19.9652 86.1953 20.2324L74.6133 23.5176C74.7826 23.896 74.9818 24.2233 75.2002 24.5049C75.8629 25.3594 76.7908 25.9185 77.8682 26.2119C80.122 26.8257 82.6886 26.1938 83.9404 25.1143C84.6019 24.5438 85.6017 24.6159 86.1738 25.2754C86.7459 25.9353 86.6733 26.9333 86.0117 27.5039C83.8713 29.3498 80.185 30.1178 77.0342 29.2598C75.4096 28.8173 73.8473 27.923 72.6953 26.4375C71.5385 24.9457 70.8867 22.9753 70.8867 20.5459C70.8868 17.7143 71.8404 15.5149 73.4326 14.0195C74.9989 12.5485 77.0416 11.8916 79.0098 11.8438ZM97.9883 11.7822C99.4049 11.7822 100.66 12.0075 101.755 12.457C102.85 12.9067 103.719 13.5272 104.363 14.3193C104.664 14.6619 104.804 15.0208 104.782 15.3955C104.761 15.7702 104.578 16.0858 104.234 16.3428C103.891 16.5782 103.483 16.653 103.011 16.5674C102.539 16.4817 102.141 16.2889 101.819 15.9893C101.283 15.4756 100.703 15.1224 100.081 14.9297C99.4586 14.737 98.7395 14.6406 97.9238 14.6406C96.9793 14.6406 96.1791 14.8009 95.5244 15.1221C94.87 15.4432 94.5431 15.9145 94.543 16.5352C94.543 16.9205 94.6448 17.2687 94.8486 17.5791C95.0525 17.8895 95.4549 18.1679 96.0557 18.4141C96.6567 18.6603 97.5372 18.9012 98.6963 19.1367C100.306 19.4579 101.578 19.865 102.512 20.3574C103.445 20.8499 104.117 21.4231 104.524 22.0762C104.932 22.7291 105.137 23.4836 105.137 24.3398C105.137 25.3247 104.873 26.2137 104.348 27.0059C103.822 27.7981 103.049 28.4303 102.029 28.9014C101.01 29.3724 99.7378 29.6074 98.2139 29.6074C96.7113 29.6074 95.3211 29.3773 94.0439 28.917C92.7669 28.4567 91.7738 27.8735 91.0654 27.167C90.7434 26.8244 90.6094 26.4331 90.6631 25.9941C90.7168 25.5553 90.9262 25.1963 91.291 24.918C91.7202 24.5756 92.1441 24.4309 92.5625 24.4844C92.9811 24.5379 93.3411 24.7257 93.6416 25.0469C94.0065 25.4536 94.5916 25.8343 95.3965 26.1875C96.2013 26.5406 97.0977 26.7168 98.085 26.7168C99.3299 26.7168 100.28 26.5132 100.935 26.1064C101.589 25.6997 101.927 25.1754 101.948 24.5332C101.97 23.891 101.664 23.3343 101.031 22.8633C100.398 22.3922 99.2437 22.0068 97.5693 21.707C95.4013 21.2788 93.8292 20.6358 92.8525 19.7793C91.8758 18.9228 91.3877 17.8737 91.3877 16.6318C91.3877 15.5399 91.7095 14.6353 92.3535 13.918C92.9975 13.2007 93.8242 12.6658 94.833 12.3125C95.8418 11.9593 96.8936 11.7822 97.9883 11.7822ZM137.528 11.75C138.752 11.75 139.836 12.0176 140.78 12.5527C141.725 13.088 142.46 13.8756 142.986 14.9141C143.512 15.9525 143.775 17.2102 143.775 18.6875L143.775 27.873C143.775 28.3441 143.625 28.7354 143.324 29.0459C143.024 29.3562 142.626 29.5117 142.133 29.5117C141.661 29.5117 141.269 29.3561 140.958 29.0459C140.647 28.7354 140.491 28.3441 140.491 27.873L140.491 18.6875C140.491 17.3385 140.158 16.3376 139.492 15.6846C138.827 15.0317 137.958 14.7051 136.885 14.7051C135.769 14.7051 134.851 15.0905 134.132 15.8613C133.458 16.584 133.099 17.4947 133.057 18.5938L133.053 18.8164L133.053 27.873C133.053 28.3441 132.903 28.7354 132.603 29.0459C132.302 29.3563 131.905 29.5116 131.411 29.5117C130.939 29.5117 130.547 29.3563 130.235 29.0459C129.924 28.7354 129.769 28.3441 129.769 27.873L129.769 18.6875C129.769 17.3386 129.436 16.3376 128.771 15.6846C128.105 15.0315 127.235 14.7051 126.162 14.7051C125.046 14.7051 124.123 15.0906 123.394 15.8613C122.709 16.584 122.345 17.4947 122.303 18.5938L122.299 18.8164L122.299 27.873C122.299 28.3441 122.148 28.7354 121.848 29.0459C121.547 29.3563 121.15 29.5117 120.656 29.5117C120.184 29.5117 119.792 29.3564 119.48 29.0459C119.169 28.7354 119.014 28.3441 119.014 27.873L119.014 13.5811C119.014 13.0888 119.169 12.6923 119.48 12.3926C119.792 12.0928 120.184 11.9424 120.656 11.9424C121.15 11.9424 121.547 12.0928 121.848 12.3926C122.138 12.6818 122.286 13.0607 122.296 13.5293C122.635 13.196 123.011 12.9014 123.426 12.6494C124.413 12.05 125.54 11.75 126.807 11.75C128.03 11.7501 129.114 12.0175 130.059 12.5527C130.792 12.9687 131.398 13.5381 131.879 14.2578C132.403 13.6075 133.046 13.0715 133.81 12.6494C134.894 12.0499 136.133 11.75 137.528 11.75ZM111.254 11.9102C111.748 11.9102 112.145 12.0606 112.445 12.3604C112.746 12.6601 112.896 13.0563 112.896 13.5488L112.896 27.8408C112.896 28.3119 112.746 28.7032 112.445 29.0137C112.145 29.324 111.748 29.4795 111.254 29.4795C110.782 29.4795 110.39 29.3239 110.079 29.0137C109.768 28.7032 109.612 28.3119 109.612 27.8408L109.612 13.5488C109.612 13.0563 109.768 12.6601 110.079 12.3604C110.39 12.0607 110.782 11.9102 111.254 11.9102ZM79.0869 15.002C77.7444 15.0346 76.4984 15.479 75.6035 16.3193C74.7561 17.1152 74.0894 18.3921 74.0566 20.3916L84.0498 17.5557C83.7902 16.9691 83.3445 16.4564 82.7393 16.0352C81.7658 15.3578 80.4364 14.9692 79.0869 15.002ZM111.254 4.8125C111.833 4.8125 112.332 5.02117 112.751 5.43848C113.17 5.85601 113.379 6.35449 113.379 6.93262C113.379 7.51061 113.169 8.00832 112.751 8.42578C112.332 8.84319 111.833 9.05176 111.254 9.05176C110.674 9.05171 110.175 8.84327 109.757 8.42578C109.338 8.00832 109.129 7.51061 109.129 6.93262C109.129 6.35449 109.338 5.85601 109.757 5.43848C110.175 5.02109 110.674 4.81254 111.254 4.8125Z" fill="rgb(255,136,0)" fill-rule="nonzero" />
	</g>
</svg>
