<svg viewBox="0 0 53 20" xmlns="http://www.w3.org/2000/svg" xmlns:xlink="http://www.w3.org/1999/xlink" width="53.000000" height="20.000000" fill="none" clip-path="url(#clipPath_0)" customFrame="url(#clipPath_0)">
	<defs>
		<clipPath id="clipPath_0">
			<rect width="53.000000" height="20.000000" x="0.000000" y="0.000000" rx="10.000000" fill="rgb(255,255,255)" />
		</clipPath>
		<clipPath id="clipPath_1">
			<rect width="2.000000" height="18.000000" x="25.000000" y="1.000000" fill="rgb(255,255,255)" />
		</clipPath>
		<clipPath id="clipPath_2">
			<rect width="23.000002" height="14.000001" x="27.000000" y="3.000000" fill="rgb(255,255,255)" />
		</clipPath>
		<clipPath id="clipPath_3">
			<rect width="14.000001" height="14.000001" x="27.000000" y="3.000000" rx="7.000000" fill="rgb(255,255,255)" />
		</clipPath>
		<clipPath id="clipPath_4">
			<rect width="14.000001" height="14.000001" x="36.000000" y="3.000000" fill="rgb(255,255,255)" />
		</clipPath>
	</defs>
	<rect id="sale-ycoins" width="53.000000" height="20.000000" x="0.000000" y="0.000000" rx="10.000000" fill="rgb(255,122,0)" />
	<path id="-600" d="M13.6701 8.41406L13.1779 9.50284L6.53091 9.50284L6.93361 8.41406L13.6701 8.41406ZM12.7205 10.4972L12.1786 11.6108L6.53091 11.6108L6.93361 10.4972L12.7205 10.4972ZM14.9627 5.6946L14.1673 7.39489C14.0347 7.30208 13.874 7.20099 13.685 7.09162C13.4994 6.97893 13.2856 6.88447 13.0437 6.80824C12.8051 6.72869 12.5399 6.68892 12.2482 6.68892C11.7875 6.68892 11.3865 6.80492 11.0451 7.03693C10.7037 7.26894 10.4386 7.63021 10.2497 8.12074C10.0641 8.61127 9.97125 9.241 9.97125 10.0099C9.97125 10.7855 10.0641 11.4169 10.2497 11.9041C10.4386 12.388 10.7037 12.7443 11.0451 12.973C11.3865 13.1984 11.7875 13.3111 12.2482 13.3111C12.5399 13.3111 12.8051 13.273 13.0437 13.1967C13.2823 13.1205 13.4911 13.0294 13.6701 12.9233C13.8524 12.8172 14.0049 12.7195 14.1275 12.63L14.9329 14.3303C14.5716 14.6286 14.1623 14.8539 13.7049 15.0064C13.2475 15.1555 12.762 15.2301 12.2482 15.2301C11.3799 15.2301 10.6109 15.0246 9.94142 14.6136C9.27523 14.1993 8.75321 13.6044 8.37537 12.8288C7.99753 12.05 7.80861 11.1103 7.80861 10.0099C7.80861 8.91288 7.99753 7.97325 8.37537 7.19105C8.75321 6.40885 9.27523 5.81061 9.94142 5.39631C10.6109 4.97869 11.3799 4.76989 12.2482 4.76989C12.7819 4.76989 13.2757 4.84943 13.7298 5.00852C14.1838 5.16761 14.5948 5.39631 14.9627 5.6946ZM20.3675 15.2301C19.8439 15.2268 19.3384 15.139 18.8512 14.9666C18.3673 14.7943 17.9331 14.5142 17.5486 14.1264C17.1642 13.7386 16.8592 13.2249 16.6339 12.5852C16.4118 11.9455 16.3008 11.16 16.3008 10.2287C16.3041 9.37358 16.4019 8.60961 16.5941 7.93679C16.7896 7.26065 17.068 6.68726 17.4293 6.21662C17.7939 5.74597 18.2297 5.38802 18.7368 5.14275C19.2439 4.89418 19.8124 4.76989 20.4421 4.76989C21.1215 4.76989 21.7215 4.90246 22.2418 5.16761C22.7622 5.42945 23.1798 5.78575 23.4947 6.23651C23.8128 6.68726 24.0051 7.19271 24.0714 7.75284L21.9485 7.75284C21.8656 7.3982 21.6916 7.11979 21.4265 6.91761C21.1613 6.71544 20.8332 6.61435 20.4421 6.61435C19.7792 6.61435 19.2754 6.9027 18.9307 7.4794C18.5894 8.05611 18.4153 8.83996 18.4087 9.83097L18.4783 9.83097C18.6308 9.52936 18.8363 9.27249 19.0948 9.06037C19.3566 8.84493 19.6533 8.68087 19.9847 8.56818C20.3195 8.45218 20.6724 8.39418 21.0437 8.39418C21.6469 8.39418 22.1838 8.5367 22.6545 8.82173C23.1251 9.10346 23.4963 9.49124 23.7681 9.98508C24.0399 10.4789 24.1758 11.044 24.1758 11.6804C24.1758 12.3698 24.015 12.983 23.6935 13.5199C23.3753 14.0568 22.9296 14.4777 22.3562 14.7827C21.7861 15.0843 21.1232 15.2334 20.3675 15.2301ZM20.3576 13.5398C20.689 13.5398 20.9857 13.4602 21.2475 13.3011C21.5093 13.142 21.7148 12.9266 21.864 12.6548C22.0131 12.383 22.0877 12.0781 22.0877 11.7401C22.0877 11.402 22.0131 11.0987 21.864 10.8303C21.7181 10.5618 21.516 10.348 21.2574 10.1889C20.9989 10.0298 20.7039 9.95028 20.3725 9.95028C20.1239 9.95028 19.8936 9.99669 19.6814 10.0895C19.4726 10.1823 19.2887 10.3116 19.1296 10.4773C18.9738 10.643 18.8512 10.8352 18.7617 11.054C18.6722 11.2694 18.6275 11.4998 18.6275 11.745C18.6275 12.0732 18.702 12.3731 18.8512 12.6449C19.0037 12.9167 19.2091 13.1338 19.4677 13.2962C19.7295 13.4586 20.0261 13.5398 20.3576 13.5398Z" fill="rgb(255,255,255)" fill-rule="nonzero" />
	<g id="size-box" clip-path="url(#clipPath_1)" customFrame="url(#clipPath_1)">
		<rect id="size-box" width="2.000000" height="18.000000" x="25.000000" y="1.000000" />
	</g>
	<g id="Ycoins" clip-path="url(#clipPath_2)" customFrame="url(#clipPath_2)">
		<rect id="Ycoins" width="23.000002" height="14.000001" x="27.000000" y="3.000000" />
		<g id="YCoin logo" customFrame="url(#clipPath_3)">
			<rect id="YCoin logo" width="14.000001" height="14.000001" x="27.000000" y="3.000000" rx="7.000000" fill="rgb(255,255,255)" />
			<path id="Y" d="M4.02472 0C4.45937 0 4.81184 0.35216 4.81222 0.786818L4.81398 2.81995C4.81465 3.59311 5.22704 4.30739 5.89628 4.69455L7.65614 5.71264C8.03238 5.9303 8.16113 6.41162 7.9438 6.78805C7.72647 7.16447 7.24526 7.29364 6.86864 7.07663L5.10702 6.06159C4.43711 5.67559 3.61232 5.67559 2.94241 6.06159L1.18079 7.07663C0.804177 7.29364 0.322965 7.16447 0.105636 6.78805C-0.111693 6.41162 0.0170538 5.9303 0.39329 5.71264L2.15315 4.69455C2.82239 4.30739 3.23479 3.59311 3.23546 2.81995L3.23722 0.786818C3.23759 0.35216 3.59006 0 4.02472 0Z" fill="rgb(255,122,0)" fill-rule="evenodd" transform="matrix(1,0,0,-1,29.9756,14.5254)" />
		</g>
		<g id="Автообновление" customFrame="url(#clipPath_4)">
			<rect id="Автообновление" width="14.000001" height="14.000001" x="36.000000" y="3.000000" />
			<path id="Subtract" d="M39.3676 15.9851C41.0549 14.5407 42.1243 12.3953 42.1243 10C42.1243 7.60475 41.0549 5.45926 39.3676 4.01492C40.4265 3.3709 41.6698 3 42.9998 3C46.8658 3 49.9998 6.13401 49.9998 10C49.9998 13.866 46.8658 17 42.9998 17C41.6698 17 40.4265 16.6291 39.3676 15.9851Z" fill="rgb(255,255,255)" fill-rule="evenodd" />
			<path id="Subtract" d="M41.6842 7.39499C42.794 6.83318 44.1607 7.03536 45.0622 7.9369C45.6164 8.49165 45.9127 9.23307 45.9121 9.99957L44.7501 9.99957L46.5001 11.7496L48.2501 9.99957L47.0765 9.99957C47.0776 8.92682 46.6635 7.88848 45.8865 7.11207C44.6419 5.86754 42.7594 5.5741 41.2168 6.32461C41.3979 6.66722 41.5545 7.02479 41.6842 7.39499ZM41.2176 13.6738C41.3986 13.3313 41.5551 12.9738 41.6847 12.6037C42.6125 13.073 43.7487 13.022 44.6446 12.4099L45.3031 13.3724C44.6049 13.8502 43.8022 14.0835 43.0036 14.0835C42.3893 14.0835 41.7775 13.9454 41.2176 13.6738Z" fill="rgb(52,199,89)" fill-rule="evenodd" />
		</g>
	</g>
</svg>
