<svg width="44" height="44" viewBox="0 0 44 44" fill="none" xmlns="http://www.w3.org/2000/svg">
<mask id="mask0_12_7186" style="mask-type:alpha" maskUnits="userSpaceOnUse" x="10" y="10" width="24" height="24">
<g clip-path="url(#clip0_12_7186)">
<path d="M14.7052 14.7053C17.5505 11.8601 22.1635 11.8601 25.0087 14.7053C27.6489 17.3455 27.8391 21.5079 25.5795 24.3675L29.4631 28.251C29.7978 28.5858 29.7978 29.1284 29.4631 29.4632C29.1283 29.7979 28.5856 29.7979 28.2509 29.4632L24.3673 25.5796C21.5077 27.8393 17.3454 27.6491 14.7052 25.0089C11.86 22.1636 11.86 17.5506 14.7052 14.7053ZM23.7966 15.9175C21.6208 13.7417 18.0932 13.7417 15.9174 15.9175C13.7416 18.0933 13.7416 21.6209 15.9174 23.7967C18.0932 25.9725 21.6208 25.9725 23.7966 23.7967C25.9724 21.6209 25.9724 18.0933 23.7966 15.9175Z" fill="black"/>
</g>
</mask>
<g mask="url(#mask0_12_7186)">
<rect x="10" y="10" width="24" height="24" fill="black" fill-opacity="0.74"/>
</g>
<defs>
<clipPath id="clip0_12_7186">
<rect width="24" height="24" fill="white" transform="translate(10 10)"/>
</clipPath>
</defs>
</svg>
