<svg viewBox="0 0 106 20" xmlns="http://www.w3.org/2000/svg" xmlns:xlink="http://www.w3.org/1999/xlink" width="106.000000" height="20.000000" fill="none" customFrame="#000000">
	<rect id="Swiss Made" width="106.000000" height="20.000000" x="0.000000" y="0.000000" fill="rgb(255,255,255)" fill-opacity="0" />
	<g id="Group">
		<path id="Vector" d="M2 2L18 2L18 18L2 18L2 2Z" fill="rgb(218,41,28)" fill-rule="nonzero" />
		<path id="Vector" d="M8.5 5L11.5 5L11.5 8.5L15 8.5L15 11.5L11.5 11.5L11.5 15L8.5 15L8.5 11.5L5 11.5L5 8.5L8.5 8.5L8.5 5Z" fill="rgb(255,255,255)" fill-rule="nonzero" />
	</g>
	<path id="Row title" d="M28.4084 7.83736C28.3686 7.43632 28.1979 7.12476 27.8963 6.9027C27.5947 6.68063 27.1854 6.5696 26.6683 6.5696C26.317 6.5696 26.0204 6.61932 25.7784 6.71875C25.5365 6.81487 25.3509 6.9491 25.2216 7.12145C25.0956 7.2938 25.0327 7.48935 25.0327 7.7081C25.026 7.89039 25.0642 8.04948 25.147 8.18537C25.2332 8.32126 25.3509 8.43892 25.5 8.53835C25.6491 8.63447 25.8215 8.71899 26.017 8.7919C26.2126 8.86151 26.4214 8.92116 26.6435 8.97088L27.5582 9.18963C28.0024 9.28906 28.41 9.42164 28.7812 9.58736C29.1525 9.75308 29.474 9.95691 29.7457 10.1989C30.0175 10.4408 30.228 10.7259 30.3771 11.054C30.5296 11.3821 30.6075 11.7583 30.6108 12.1825C30.6075 12.8056 30.4484 13.3459 30.1335 13.8033C29.822 14.2573 29.3712 14.6103 28.7812 14.8622C28.1946 15.1108 27.487 15.2351 26.6584 15.2351C25.8364 15.2351 25.1205 15.1091 24.5107 14.8572C23.9041 14.6054 23.4302 14.2325 23.0888 13.7386C22.7507 13.2415 22.5734 12.6267 22.5568 11.8942L24.6399 11.8942C24.6631 12.2356 24.7609 12.5206 24.9332 12.7493C25.1089 12.9747 25.3426 13.1454 25.6342 13.2614C25.9292 13.3741 26.2623 13.4304 26.6335 13.4304C26.9981 13.4304 27.3146 13.3774 27.5831 13.2713C27.8549 13.1652 28.0653 13.0178 28.2145 12.8288C28.3636 12.6399 28.4382 12.4228 28.4382 12.1776C28.4382 11.9489 28.3703 11.7566 28.2344 11.6009C28.1018 11.4451 27.9062 11.3125 27.6477 11.2031C27.3925 11.0938 27.0793 10.9943 26.7081 10.9048L25.5994 10.6264C24.741 10.4176 24.0632 10.0911 23.5661 9.64702C23.0689 9.20289 22.822 8.60464 22.8253 7.85227C22.822 7.2358 22.986 6.69721 23.3175 6.23651C23.6522 5.77581 24.1113 5.41619 24.6946 5.15767C25.2779 4.89915 25.9408 4.76989 26.6832 4.76989C27.4389 4.76989 28.0985 4.89915 28.6619 5.15767C29.2287 5.41619 29.6695 5.77581 29.9844 6.23651C30.2992 6.69721 30.4616 7.23082 30.4716 7.83736L28.4084 7.83736ZM33.4254 15.0909L31.3473 7.45455L33.49 7.45455L34.6733 12.5852L34.7429 12.5852L35.9758 7.45455L38.0788 7.45455L39.3316 12.5554L39.3963 12.5554L40.5596 7.45455L42.6974 7.45455L40.6243 15.0909L38.3821 15.0909L37.0696 10.2884L36.9751 10.2884L35.6626 15.0909L33.4254 15.0909ZM43.7272 15.0909L43.7272 7.45455L45.8451 7.45455L45.8451 15.0909L43.7272 15.0909ZM44.7911 6.47017C44.4763 6.47017 44.2061 6.36577 43.9808 6.15696C43.7587 5.94484 43.6477 5.69129 43.6477 5.39631C43.6477 5.10464 43.7587 4.8544 43.9808 4.6456C44.2061 4.43347 44.4763 4.32741 44.7911 4.32741C45.106 4.32741 45.3745 4.43347 45.5965 4.6456C45.8219 4.8544 45.9346 5.10464 45.9346 5.39631C45.9346 5.69129 45.8219 5.94484 45.5965 6.15696C45.3745 6.36577 45.106 6.47017 44.7911 6.47017ZM53.7953 9.6321L51.8564 9.75142C51.8233 9.5857 51.752 9.43655 51.6427 9.30398C51.5333 9.16809 51.3891 9.06037 51.2101 8.98082C51.0345 8.89796 50.824 8.85653 50.5787 8.85653C50.2506 8.85653 49.9739 8.92614 49.7485 9.06534C49.5231 9.20123 49.4104 9.38352 49.4104 9.61222C49.4104 9.79451 49.4833 9.94863 49.6292 10.0746C49.775 10.2005 50.0252 10.3016 50.3799 10.3778L51.762 10.6562C52.5044 10.8087 53.0579 11.054 53.4225 11.392C53.7871 11.7301 53.9694 12.1742 53.9694 12.7244C53.9694 13.2249 53.8219 13.6641 53.5269 14.0419C53.2352 14.4197 52.8342 14.7147 52.3238 14.9268C51.8167 15.1357 51.2317 15.2401 50.5688 15.2401C49.5579 15.2401 48.7525 15.0296 48.1526 14.6087C47.556 14.1844 47.2063 13.6077 47.1036 12.8786L49.1867 12.7692C49.2497 13.0774 49.4021 13.3127 49.6441 13.4751C49.886 13.6342 50.1959 13.7138 50.5738 13.7138C50.945 13.7138 51.2433 13.6425 51.4686 13.5C51.6973 13.3542 51.8133 13.1669 51.8167 12.9382C51.8133 12.746 51.7321 12.5885 51.573 12.4659C51.414 12.34 51.1687 12.2438 50.8372 12.1776L49.5148 11.9141C48.7691 11.7649 48.2139 11.5064 47.8493 11.1385C47.4881 10.7706 47.3074 10.3016 47.3074 9.73153C47.3074 9.241 47.44 8.81842 47.7052 8.46378C47.9736 8.10914 48.3498 7.8357 48.8337 7.64347C49.3209 7.45123 49.891 7.35511 50.5439 7.35511C51.5084 7.35511 52.2674 7.55895 52.8209 7.96662C53.3777 8.37429 53.7025 8.92945 53.7953 9.6321ZM61.5567 9.6321L59.6178 9.75142C59.5846 9.5857 59.5134 9.43655 59.404 9.30398C59.2946 9.16809 59.1504 9.06037 58.9714 8.98082C58.7958 8.89796 58.5853 8.85653 58.3401 8.85653C58.0119 8.85653 57.7352 8.92614 57.5098 9.06534C57.2844 9.20123 57.1717 9.38352 57.1717 9.61222C57.1717 9.79451 57.2446 9.94863 57.3905 10.0746C57.5363 10.2005 57.7866 10.3016 58.1412 10.3778L59.5233 10.6562C60.2657 10.8087 60.8192 11.054 61.1838 11.392C61.5484 11.7301 61.7307 12.1742 61.7307 12.7244C61.7307 13.2249 61.5832 13.6641 61.2882 14.0419C60.9965 14.4197 60.5955 14.7147 60.0851 14.9268C59.578 15.1357 58.993 15.2401 58.3301 15.2401C57.3192 15.2401 56.5138 15.0296 55.9139 14.6087C55.3173 14.1844 54.9677 13.6077 54.8649 12.8786L56.948 12.7692C57.011 13.0774 57.1634 13.3127 57.4054 13.4751C57.6473 13.6342 57.9572 13.7138 58.3351 13.7138C58.7063 13.7138 59.0046 13.6425 59.23 13.5C59.4587 13.3542 59.5747 13.1669 59.578 12.9382C59.5747 12.746 59.4935 12.5885 59.3344 12.4659C59.1753 12.34 58.93 12.2438 58.5986 12.1776L57.2761 11.9141C56.5304 11.7649 55.9752 11.5064 55.6107 11.1385C55.2494 10.7706 55.0687 10.3016 55.0687 9.73153C55.0687 9.241 55.2013 8.81842 55.4665 8.46378C55.7349 8.10914 56.1111 7.8357 56.595 7.64347C57.0822 7.45123 57.6523 7.35511 58.3053 7.35511C59.2697 7.35511 60.0287 7.55895 60.5822 7.96662C61.1391 8.37429 61.4639 8.92945 61.5567 9.6321ZM66.1443 4.90909L68.7991 4.90909L71.6031 11.75L71.7224 11.75L74.5264 4.90909L77.1813 4.90909L77.1813 15.0909L75.0932 15.0909L75.0932 8.46378L75.0087 8.46378L72.3737 15.0412L70.9518 15.0412L68.3169 8.43892L68.2324 8.43892L68.2324 15.0909L66.1443 15.0909L66.1443 4.90909ZM80.9926 15.2351C80.5054 15.2351 80.0712 15.1506 79.6901 14.9815C79.3089 14.8092 79.0073 14.5556 78.7853 14.2209C78.5665 13.8828 78.4571 13.4619 78.4571 12.9581C78.4571 12.5339 78.535 12.1776 78.6908 11.8892C78.8466 11.6009 79.0587 11.3688 79.3272 11.1932C79.5956 11.0175 79.9006 10.8849 80.2419 10.7955C80.5866 10.706 80.9479 10.643 81.3257 10.6065C81.7699 10.5601 82.1278 10.517 82.3996 10.4773C82.6714 10.4342 82.8686 10.3712 82.9912 10.2884C83.1139 10.2055 83.1752 10.0829 83.1752 9.92045L83.1752 9.89062C83.1752 9.57576 83.0757 9.33215 82.8769 9.1598C82.6813 8.98745 82.4029 8.90128 82.0417 8.90128C81.6605 8.90128 81.3572 8.9858 81.1319 9.15483C80.9065 9.32055 80.7573 9.52936 80.6844 9.78125L78.7256 9.62216C78.825 9.15814 79.0206 8.7571 79.3123 8.41903C79.6039 8.07765 79.9801 7.81581 80.4408 7.63352C80.9048 7.44792 81.4417 7.35511 82.0516 7.35511C82.4758 7.35511 82.8819 7.40483 83.2696 7.50426C83.6607 7.60369 84.0071 7.75781 84.3087 7.96662C84.6136 8.17543 84.8539 8.44389 85.0296 8.77202C85.2052 9.09683 85.2931 9.48627 85.2931 9.94034L85.2931 15.0909L83.2846 15.0909L83.2846 14.032L83.2249 14.032C83.1023 14.2706 82.9382 14.4811 82.7327 14.6634C82.5272 14.8423 82.2803 14.9832 81.9919 15.0859C81.7036 15.1854 81.3705 15.2351 80.9926 15.2351ZM81.5992 13.7734C81.9107 13.7734 82.1858 13.7121 82.4245 13.5895C82.6631 13.4635 82.8504 13.2945 82.9863 13.0824C83.1221 12.8703 83.1901 12.63 83.1901 12.3615L83.1901 11.5511C83.1238 11.5942 83.0327 11.634 82.9167 11.6705C82.804 11.7036 82.6764 11.7351 82.5338 11.7649C82.3913 11.7914 82.2488 11.8163 82.1063 11.8395C81.9638 11.8594 81.8345 11.8776 81.7185 11.8942C81.4699 11.9306 81.2528 11.9886 81.0672 12.0682C80.8816 12.1477 80.7374 12.2554 80.6347 12.3913C80.532 12.5239 80.4806 12.6896 80.4806 12.8885C80.4806 13.1768 80.585 13.3973 80.7938 13.5497C81.0059 13.6989 81.2744 13.7734 81.5992 13.7734ZM89.6501 15.2152C89.0701 15.2152 88.5448 15.0661 88.0741 14.7678C87.6068 14.4661 87.2356 14.0237 86.9605 13.4403C86.6887 12.8537 86.5528 12.1345 86.5528 11.2827C86.5528 10.4077 86.6937 9.68016 86.9754 9.10014C87.2571 8.51681 87.6316 8.08097 88.099 7.79261C88.5696 7.50095 89.085 7.35511 89.6451 7.35511C90.0727 7.35511 90.429 7.42803 90.714 7.57386C91.0024 7.71638 91.2344 7.89536 91.41 8.1108C91.589 8.32292 91.7249 8.53172 91.8177 8.73722L91.8824 8.73722L91.8824 4.90909L93.9953 4.90909L93.9953 15.0909L91.9072 15.0909L91.9072 13.8679L91.8177 13.8679C91.7183 14.08 91.5774 14.2905 91.3951 14.4993C91.2162 14.7048 90.9825 14.8755 90.6941 15.0114C90.4091 15.1473 90.0611 15.2152 89.6501 15.2152ZM90.3213 13.5298C90.6627 13.5298 90.951 13.437 91.1863 13.2514C91.425 13.0625 91.6073 12.799 91.7332 12.4609C91.8625 12.1229 91.9271 11.7268 91.9271 11.2727C91.9271 10.8187 91.8641 10.4242 91.7382 10.0895C91.6122 9.75473 91.4299 9.49621 91.1913 9.31392C90.9527 9.13163 90.6627 9.04048 90.3213 9.04048C89.9733 9.04048 89.6799 9.13494 89.4413 9.32386C89.2027 9.51278 89.022 9.77462 88.8994 10.1094C88.7768 10.4441 88.7154 10.8319 88.7154 11.2727C88.7154 11.7169 88.7768 12.1096 88.8994 12.451C89.0253 12.7891 89.206 13.0542 89.4413 13.2464C89.6799 13.4354 89.9733 13.5298 90.3213 13.5298ZM99.1167 15.2401C98.3312 15.2401 97.655 15.081 97.0883 14.7628C96.5248 14.4413 96.0906 13.9872 95.7857 13.4006C95.4808 12.8106 95.3283 12.1129 95.3283 11.3075C95.3283 10.522 95.4808 9.83262 95.7857 9.23935C96.0906 8.64607 96.5199 8.18371 97.0734 7.85227C97.6302 7.52083 98.2831 7.35511 99.0322 7.35511C99.536 7.35511 100.005 7.43632 100.439 7.59872C100.877 7.75781 101.258 7.99811 101.583 8.3196C101.911 8.6411 102.166 9.04545 102.348 9.53267C102.531 10.0166 102.622 10.5833 102.622 11.233L102.622 11.8146L96.1735 11.8146L96.1735 10.5021L100.628 10.5021C100.628 10.1972 100.562 9.92708 100.429 9.69176C100.297 9.45644 100.113 9.27249 99.8773 9.13991C99.6453 9.00402 99.3752 8.93608 99.067 8.93608C98.7455 8.93608 98.4604 9.01065 98.2119 9.1598C97.9666 9.30563 97.7744 9.50284 97.6352 9.75142C97.4959 9.99669 97.4247 10.2701 97.4214 10.5717L97.4214 11.8196C97.4214 12.1974 97.491 12.5239 97.6302 12.799C97.7727 13.0741 97.9732 13.2862 98.2317 13.4354C98.4903 13.5845 98.7969 13.6591 99.1515 13.6591C99.3868 13.6591 99.6022 13.6259 99.7978 13.5597C99.9933 13.4934 100.161 13.3939 100.3 13.2614C100.439 13.1288 100.545 12.9664 100.618 12.7741L102.577 12.9034C102.477 13.3741 102.274 13.785 101.965 14.1364C101.66 14.4844 101.266 14.7562 100.782 14.9517C100.302 15.1439 99.7464 15.2401 99.1167 15.2401Z" fill="rgb(218,41,28)" fill-rule="nonzero" />
</svg>
