<svg viewBox="0 0 201 38" xmlns="http://www.w3.org/2000/svg" xmlns:xlink="http://www.w3.org/1999/xlink" width="201.000000" height="38.000000" fill="none" customFrame="#000000">
	<defs>
		<clipPath id="clipPath_20">
			<rect width="86.000000" height="18.000000" x="105.000000" y="10.000000" fill="rgb(255,255,255)" />
		</clipPath>
	</defs>
	<rect id="Trust Pilot Micro Review Count" width="201.000000" height="38.000000" x="0.000000" y="0.000000" fill="rgb(44,44,46)" />
	<rect id="Trust Pilot Micro Review Count" width="200.000000" height="37.000000" x="0.500000" y="0.500000" stroke="rgb(33,150,83)" stroke-width="1.000000" />
	<path id="Review us on" d="M11.1186 24.0909L11.1186 13.9091L14.7479 13.9091C15.5367 13.9091 16.1913 14.045 16.7116 14.3168C17.2353 14.5885 17.6264 14.9647 17.8849 15.4453C18.1435 15.9226 18.2727 16.4744 18.2727 17.1009C18.2727 17.724 18.1418 18.2725 17.88 18.7464C17.6214 19.2171 17.2304 19.5833 16.7067 19.8452C16.1863 20.107 15.5317 20.2379 14.7429 20.2379L11.9936 20.2379L11.9936 18.9155L14.6037 18.9155C15.1009 18.9155 15.5052 18.8442 15.8168 18.7017C16.1316 18.5592 16.362 18.352 16.5078 18.0803C16.6536 17.8085 16.7266 17.482 16.7266 17.1009C16.7266 16.7164 16.652 16.3833 16.5028 16.1016C16.357 15.8198 16.1267 15.6044 15.8118 15.4553C15.5002 15.3028 15.0909 15.2266 14.5838 15.2266L12.6548 15.2266L12.6548 24.0909L11.1186 24.0909ZM16.1449 19.4972L18.6605 24.0909L16.9105 24.0909L14.4446 19.4972L16.1449 19.4972ZM23.2182 24.245C22.4659 24.245 21.8179 24.0843 21.2743 23.7628C20.7341 23.438 20.3165 22.9822 20.0215 22.3956C19.7298 21.8056 19.584 21.1146 19.584 20.3224C19.584 19.5402 19.7298 18.8509 20.0215 18.2543C20.3165 17.6577 20.7275 17.192 21.2544 16.8572C21.7847 16.5225 22.4045 16.3551 23.1138 16.3551C23.5447 16.3551 23.9623 16.4264 24.3667 16.5689C24.771 16.7114 25.1339 16.9351 25.4554 17.2401C25.7769 17.545 26.0305 17.9411 26.2161 18.4283C26.4017 18.9122 26.4945 19.5005 26.4945 20.1932L26.4945 20.7202L20.4242 20.7202L20.4242 19.6065L25.0378 19.6065C25.0378 19.2154 24.9583 18.8691 24.7992 18.5675C24.6401 18.2625 24.4164 18.0223 24.128 17.8466C23.843 17.6709 23.5082 17.5831 23.1238 17.5831C22.7061 17.5831 22.3416 17.6858 22.03 17.8913C21.7218 18.0935 21.4831 18.3587 21.3141 18.6868C21.1484 19.0116 21.0655 19.3646 21.0655 19.7457L21.0655 20.6158C21.0655 21.1262 21.155 21.5604 21.334 21.9183C21.5163 22.2763 21.7698 22.5497 22.0946 22.7386C22.4194 22.9242 22.7989 23.017 23.2331 23.017C23.5149 23.017 23.7717 22.9773 24.0037 22.8977C24.2357 22.8149 24.4363 22.6922 24.6053 22.5298C24.7743 22.3674 24.9036 22.1669 24.9931 21.9283L26.4 22.1818C26.2873 22.5961 26.0852 22.959 25.7935 23.2706C25.5051 23.5788 25.1422 23.8191 24.7047 23.9915C24.2705 24.1605 23.775 24.245 23.2182 24.245ZM34.4577 16.4545L31.6886 24.0909L30.0977 24.0909L27.3235 16.4545L28.9194 16.4545L30.8533 22.331L30.9329 22.331L32.8619 16.4545L34.4577 16.4545ZM35.8548 24.0909L35.8548 16.4545L37.3413 16.4545L37.3413 24.0909L35.8548 24.0909ZM36.6055 15.2763C36.3469 15.2763 36.1249 15.1901 35.9393 15.0178C35.757 14.8421 35.6658 14.6333 35.6658 14.3913C35.6658 14.1461 35.757 13.9373 35.9393 13.7649C36.1249 13.5893 36.3469 13.5014 36.6055 13.5014C36.864 13.5014 37.0844 13.5893 37.2667 13.7649C37.4523 13.9373 37.5451 14.1461 37.5451 14.3913C37.5451 14.6333 37.4523 14.8421 37.2667 15.0178C37.0844 15.1901 36.864 15.2763 36.6055 15.2763ZM42.6323 24.245C41.8799 24.245 41.2319 24.0843 40.6884 23.7628C40.1481 23.438 39.7305 22.9822 39.4355 22.3956C39.1439 21.8056 38.998 21.1146 38.998 20.3224C38.998 19.5402 39.1439 18.8509 39.4355 18.2543C39.7305 17.6577 40.1415 17.192 40.6685 16.8572C41.1988 16.5225 41.8186 16.3551 42.5279 16.3551C42.9587 16.3551 43.3764 16.4264 43.7807 16.5689C44.1851 16.7114 44.548 16.9351 44.8695 17.2401C45.191 17.545 45.4445 17.9411 45.6301 18.4283C45.8158 18.9122 45.9086 19.5005 45.9086 20.1932L45.9086 20.7202L39.8382 20.7202L39.8382 19.6065L44.4519 19.6065C44.4519 19.2154 44.3723 18.8691 44.2132 18.5675C44.0542 18.2625 43.8304 18.0223 43.5421 17.8466C43.257 17.6709 42.9223 17.5831 42.5378 17.5831C42.1202 17.5831 41.7556 17.6858 41.4441 17.8913C41.1358 18.0935 40.8972 18.3587 40.7282 18.6868C40.5624 19.0116 40.4796 19.3646 40.4796 19.7457L40.4796 20.6158C40.4796 21.1262 40.5691 21.5604 40.748 21.9183C40.9303 22.2763 41.1839 22.5497 41.5087 22.7386C41.8335 22.9242 42.213 23.017 42.6472 23.017C42.9289 23.017 43.1858 22.9773 43.4178 22.8977C43.6498 22.8149 43.8503 22.6922 44.0194 22.5298C44.1884 22.3674 44.3176 22.1669 44.4071 21.9283L45.8141 22.1818C45.7014 22.5961 45.4992 22.959 45.2076 23.2706C44.9192 23.5788 44.5563 23.8191 44.1188 23.9915C43.6846 24.1605 43.1891 24.245 42.6323 24.245ZM49.1998 24.0909L46.9526 16.4545L48.4888 16.4545L49.9853 22.0625L50.0598 22.0625L51.5613 16.4545L53.0975 16.4545L54.589 22.0376L54.6635 22.0376L56.15 16.4545L57.6863 16.4545L55.4441 24.0909L53.9277 24.0909L52.3766 18.5774L52.2623 18.5774L50.7111 24.0909L49.1998 24.0909ZM67.6394 20.924L67.6394 16.4545L69.1309 16.4545L69.1309 24.0909L67.6692 24.0909L67.6692 22.7685L67.5897 22.7685C67.414 23.1761 67.1323 23.5159 66.7445 23.7876C66.36 24.0561 65.8811 24.1903 65.3077 24.1903C64.8172 24.1903 64.383 24.0826 64.0051 23.8672C63.6306 23.6484 63.3356 23.3253 63.1202 22.8977C62.9081 22.4702 62.802 21.9415 62.802 21.3118L62.802 16.4545L64.2885 16.4545L64.2885 21.1328C64.2885 21.6532 64.4327 22.0675 64.7211 22.3757C65.0094 22.6839 65.3839 22.8381 65.8446 22.8381C66.123 22.8381 66.3998 22.7685 66.6749 22.6293C66.9533 22.4901 67.1837 22.2796 67.3659 21.9979C67.5516 21.7161 67.6427 21.3582 67.6394 20.924ZM76.8505 18.3189L75.5032 18.5575C75.4469 18.3852 75.3574 18.2211 75.2347 18.0653C75.1154 17.9096 74.953 17.782 74.7475 17.6825C74.542 17.5831 74.2852 17.5334 73.9769 17.5334C73.556 17.5334 73.2047 17.6278 72.9229 17.8168C72.6412 18.0024 72.5004 18.2427 72.5004 18.5376C72.5004 18.7929 72.5948 18.9983 72.7837 19.1541C72.9727 19.3099 73.2776 19.4375 73.6985 19.5369L74.9116 19.8153C75.6142 19.9777 76.1379 20.228 76.4826 20.5661C76.8273 20.9041 76.9996 21.3433 76.9996 21.8835C76.9996 22.3409 76.8671 22.7486 76.6019 23.1065C76.3401 23.4612 75.9738 23.7396 75.5032 23.9418C75.0359 24.1439 74.494 24.245 73.8775 24.245C73.0224 24.245 72.3247 24.0627 71.7844 23.6982C71.2442 23.3303 70.9128 22.8082 70.7901 22.1321L72.2269 21.9134C72.3164 22.2879 72.5004 22.5713 72.7788 22.7635C73.0572 22.9524 73.4201 23.0469 73.8675 23.0469C74.3548 23.0469 74.7442 22.9458 75.0359 22.7436C75.3275 22.5381 75.4734 22.2879 75.4734 21.9929C75.4734 21.7543 75.3839 21.5537 75.2049 21.3913C75.0292 21.2289 74.7591 21.1063 74.3945 21.0234L73.1019 20.7401C72.3893 20.5777 71.8623 20.3191 71.521 19.9645C71.1829 19.6098 71.0139 19.1607 71.0139 18.6172C71.0139 18.1664 71.1398 17.772 71.3917 17.4339C71.6436 17.0959 71.9916 16.8324 72.4357 16.6435C72.8799 16.4512 73.3886 16.3551 73.962 16.3551C74.7873 16.3551 75.4369 16.5341 75.9109 16.892C76.3848 17.2467 76.698 17.7223 76.8505 18.3189ZM85.5558 24.245C84.8398 24.245 84.2151 24.081 83.6815 23.7528C83.1478 23.4247 82.7335 22.9657 82.4386 22.3757C82.1436 21.7857 81.9961 21.0964 81.9961 20.3075C81.9961 19.5154 82.1436 18.8227 82.4386 18.2294C82.7335 17.6361 83.1478 17.1754 83.6815 16.8473C84.2151 16.5192 84.8398 16.3551 85.5558 16.3551C86.2717 16.3551 86.8964 16.5192 87.43 16.8473C87.9637 17.1754 88.378 17.6361 88.6729 18.2294C88.9679 18.8227 89.1154 19.5154 89.1154 20.3075C89.1154 21.0964 88.9679 21.7857 88.6729 22.3757C88.378 22.9657 87.9637 23.4247 87.43 23.7528C86.8964 24.081 86.2717 24.245 85.5558 24.245ZM85.5607 22.9972C86.0247 22.9972 86.4092 22.8745 86.7141 22.6293C87.0191 22.384 87.2444 22.0575 87.3903 21.6499C87.5394 21.2422 87.614 20.7931 87.614 20.3026C87.614 19.8153 87.5394 19.3679 87.3903 18.9602C87.2444 18.5492 87.0191 18.2195 86.7141 17.9709C86.4092 17.7223 86.0247 17.598 85.5607 17.598C85.0934 17.598 84.7056 17.7223 84.3974 17.9709C84.0924 18.2195 83.8654 18.5492 83.7163 18.9602C83.5704 19.3679 83.4975 19.8153 83.4975 20.3026C83.4975 20.7931 83.5704 21.2422 83.7163 21.6499C83.8654 22.0575 84.0924 22.384 84.3974 22.6293C84.7056 22.8745 85.0934 22.9972 85.5607 22.9972ZM92.2612 19.5568L92.2612 24.0909L90.7747 24.0909L90.7747 16.4545L92.2015 16.4545L92.2015 17.6974L92.296 17.6974C92.4716 17.2931 92.7467 16.9683 93.1213 16.723C93.4991 16.4777 93.9747 16.3551 94.5481 16.3551C95.0685 16.3551 95.5242 16.4645 95.9153 16.6832C96.3064 16.8987 96.6097 17.2202 96.8251 17.6477C97.0405 18.0753 97.1483 18.6039 97.1483 19.2337L97.1483 24.0909L95.6618 24.0909L95.6618 19.4126C95.6618 18.8591 95.5176 18.4266 95.2292 18.1151C94.9409 17.8002 94.5448 17.6428 94.041 17.6428C93.6963 17.6428 93.3897 17.7173 93.1213 17.8665C92.8561 18.0156 92.6457 18.2344 92.4899 18.5227C92.3374 18.8078 92.2612 19.1525 92.2612 19.5568Z" fill="rgb(255,255,255)" fill-rule="nonzero" />
	<g id="Frame 515" customFrame="url(#clipPath_20)">
		<rect id="Frame 515" width="86.000000" height="18.000000" x="105.000000" y="10.000000" />
		<path id="Shape" d="M114 23.473L117.911 22.4819L119.545 27.5177L114 23.473ZM123 16.9641L116.116 16.9641L114 10.4819L111.884 16.9641L105 16.9641L110.571 20.9819L108.455 27.4641L114.027 23.4462L117.455 20.9819L123 16.9641Z" fill="rgb(33,150,83)" fill-rule="nonzero" />
		<path id="Trustpilot" d="M127.616 15.2315L127.616 13.9091L135.496 13.9091L135.496 15.2315L132.32 15.2315L132.32 24.0909L130.788 24.0909L130.788 15.2315L127.616 15.2315ZM136.325 24.0909L136.325 16.4545L137.762 16.4545L137.762 17.6676L137.842 17.6676C137.981 17.2566 138.226 16.9335 138.578 16.6982C138.932 16.4595 139.333 16.3402 139.781 16.3402C139.874 16.3402 139.983 16.3435 140.109 16.3501C140.238 16.3568 140.339 16.3651 140.412 16.375L140.412 17.7969C140.352 17.7803 140.246 17.7621 140.094 17.7422C139.941 17.719 139.789 17.7074 139.637 17.7074C139.285 17.7074 138.972 17.782 138.697 17.9311C138.425 18.0769 138.21 18.2808 138.051 18.5426C137.892 18.8011 137.812 19.0961 137.812 19.4276L137.812 24.0909L136.325 24.0909ZM146.536 20.924L146.536 16.4545L148.027 16.4545L148.027 24.0909L146.566 24.0909L146.566 22.7685L146.486 22.7685C146.31 23.1761 146.029 23.5159 145.641 23.7876C145.257 24.0561 144.778 24.1903 144.204 24.1903C143.714 24.1903 143.279 24.0826 142.902 23.8672C142.527 23.6484 142.232 23.3253 142.017 22.8977C141.805 22.4702 141.699 21.9415 141.699 21.3118L141.699 16.4545L143.185 16.4545L143.185 21.1328C143.185 21.6532 143.329 22.0675 143.618 22.3757C143.906 22.6839 144.28 22.8381 144.741 22.8381C145.02 22.8381 145.296 22.7685 145.571 22.6293C145.85 22.4901 146.08 22.2796 146.262 21.9979C146.448 21.7161 146.539 21.3582 146.536 20.924ZM155.747 18.3189L154.4 18.5575C154.343 18.3852 154.254 18.2211 154.131 18.0653C154.012 17.9096 153.849 17.782 153.644 17.6825C153.439 17.5831 153.182 17.5334 152.873 17.5334C152.452 17.5334 152.101 17.6278 151.819 17.8168C151.538 18.0024 151.397 18.2427 151.397 18.5376C151.397 18.7929 151.491 18.9983 151.68 19.1541C151.869 19.3099 152.174 19.4375 152.595 19.5369L153.808 19.8153C154.511 19.9777 155.034 20.228 155.379 20.5661C155.724 20.9041 155.896 21.3433 155.896 21.8835C155.896 22.3409 155.764 22.7486 155.498 23.1065C155.237 23.4612 154.87 23.7396 154.4 23.9418C153.932 24.1439 153.39 24.245 152.774 24.245C151.919 24.245 151.221 24.0627 150.681 23.6982C150.141 23.3303 149.809 22.8082 149.687 22.1321L151.123 21.9134C151.213 22.2879 151.397 22.5713 151.675 22.7635C151.954 22.9524 152.317 23.0469 152.764 23.0469C153.251 23.0469 153.641 22.9458 153.932 22.7436C154.224 22.5381 154.37 22.2879 154.37 21.9929C154.37 21.7543 154.28 21.5537 154.101 21.3913C153.926 21.2289 153.656 21.1063 153.291 21.0234L151.998 20.7401C151.286 20.5777 150.759 20.3191 150.417 19.9645C150.079 19.6098 149.91 19.1607 149.91 18.6172C149.91 18.1664 150.036 17.772 150.288 17.4339C150.54 17.0959 150.888 16.8324 151.332 16.6435C151.776 16.4512 152.285 16.3551 152.858 16.3551C153.684 16.3551 154.333 16.5341 154.807 16.892C155.281 17.2467 155.595 17.7223 155.747 18.3189ZM161.095 16.4545L161.095 17.6477L156.924 17.6477L156.924 16.4545L161.095 16.4545ZM158.043 14.625L159.529 14.625L159.529 21.8487C159.529 22.1371 159.572 22.3542 159.658 22.5C159.745 22.6425 159.856 22.7403 159.991 22.7933C160.131 22.843 160.281 22.8679 160.444 22.8679C160.563 22.8679 160.668 22.8596 160.757 22.843C160.847 22.8265 160.916 22.8132 160.966 22.8033L161.234 24.0312C161.148 24.0644 161.026 24.0975 160.866 24.1307C160.707 24.1671 160.509 24.187 160.27 24.1903C159.879 24.197 159.514 24.1274 159.176 23.9815C158.838 23.8357 158.565 23.6103 158.356 23.3054C158.147 23.0005 158.043 22.6177 158.043 22.157L158.043 14.625ZM162.74 26.9545L162.74 16.4545L164.191 16.4545L164.191 17.6925L164.316 17.6925C164.402 17.5334 164.526 17.3494 164.688 17.1406C164.851 16.9318 165.076 16.7495 165.365 16.5938C165.653 16.4347 166.034 16.3551 166.508 16.3551C167.124 16.3551 167.675 16.5109 168.159 16.8224C168.642 17.134 169.022 17.5831 169.297 18.1697C169.575 18.7564 169.715 19.4624 169.715 20.2876C169.715 21.1129 169.577 21.8205 169.302 22.4105C169.027 22.9972 168.649 23.4496 168.169 23.7678C167.688 24.0826 167.139 24.2401 166.523 24.2401C166.059 24.2401 165.679 24.1622 165.384 24.0064C165.093 23.8506 164.864 23.6683 164.698 23.4595C164.533 23.2507 164.405 23.0651 164.316 22.9027L164.226 22.9027L164.226 26.9545L162.74 26.9545ZM164.196 20.2727C164.196 20.8097 164.274 21.2803 164.43 21.6847C164.586 22.089 164.811 22.4055 165.106 22.6342C165.401 22.8596 165.762 22.9723 166.19 22.9723C166.634 22.9723 167.005 22.8546 167.303 22.6193C167.602 22.3807 167.827 22.0575 167.98 21.6499C168.135 21.2422 168.213 20.7831 168.213 20.2727C168.213 19.7689 168.137 19.3165 167.985 18.9155C167.835 18.5144 167.61 18.1979 167.308 17.9659C167.01 17.7339 166.637 17.6179 166.19 17.6179C165.759 17.6179 165.394 17.7289 165.096 17.951C164.801 18.1731 164.577 18.483 164.425 18.8807C164.272 19.2784 164.196 19.7424 164.196 20.2727ZM171.38 24.0909L171.38 16.4545L172.867 16.4545L172.867 24.0909L171.38 24.0909ZM172.131 15.2763C171.872 15.2763 171.65 15.1901 171.465 15.0178C171.282 14.8421 171.191 14.6333 171.191 14.3913C171.191 14.1461 171.282 13.9373 171.465 13.7649C171.65 13.5893 171.872 13.5014 172.131 13.5014C172.389 13.5014 172.61 13.5893 172.792 13.7649C172.978 13.9373 173.07 14.1461 173.07 14.3913C173.07 14.6333 172.978 14.8421 172.792 15.0178C172.61 15.1901 172.389 15.2763 172.131 15.2763ZM176.353 13.9091L176.353 24.0909L174.866 24.0909L174.866 13.9091L176.353 13.9091ZM181.569 24.245C180.854 24.245 180.229 24.081 179.695 23.7528C179.162 23.4247 178.747 22.9657 178.452 22.3757C178.157 21.7857 178.01 21.0964 178.01 20.3075C178.01 19.5154 178.157 18.8227 178.452 18.2294C178.747 17.6361 179.162 17.1754 179.695 16.8473C180.229 16.5192 180.854 16.3551 181.569 16.3551C182.285 16.3551 182.91 16.5192 183.444 16.8473C183.977 17.1754 184.392 17.6361 184.687 18.2294C184.982 18.8227 185.129 19.5154 185.129 20.3075C185.129 21.0964 184.982 21.7857 184.687 22.3757C184.392 22.9657 183.977 23.4247 183.444 23.7528C182.91 24.081 182.285 24.245 181.569 24.245ZM181.574 22.9972C182.038 22.9972 182.423 22.8745 182.728 22.6293C183.033 22.384 183.258 22.0575 183.404 21.6499C183.553 21.2422 183.628 20.7931 183.628 20.3026C183.628 19.8153 183.553 19.3679 183.404 18.9602C183.258 18.5492 183.033 18.2195 182.728 17.9709C182.423 17.7223 182.038 17.598 181.574 17.598C181.107 17.598 180.719 17.7223 180.411 17.9709C180.106 18.2195 179.879 18.5492 179.73 18.9602C179.584 19.3679 179.511 19.8153 179.511 20.3026C179.511 20.7931 179.584 21.2422 179.73 21.6499C179.879 22.0575 180.106 22.384 180.411 22.6293C180.719 22.8745 181.107 22.9972 181.574 22.9972ZM190.353 16.4545L190.353 17.6477L186.182 17.6477L186.182 16.4545L190.353 16.4545ZM187.3 14.625L188.787 14.625L188.787 21.8487C188.787 22.1371 188.83 22.3542 188.916 22.5C189.002 22.6425 189.113 22.7403 189.249 22.7933C189.388 22.843 189.539 22.8679 189.702 22.8679C189.821 22.8679 189.925 22.8596 190.015 22.843C190.104 22.8265 190.174 22.8132 190.224 22.8033L190.492 24.0312C190.406 24.0644 190.283 24.0975 190.124 24.1307C189.965 24.1671 189.766 24.187 189.528 24.1903C189.137 24.197 188.772 24.1274 188.434 23.9815C188.096 23.8357 187.822 23.6103 187.614 23.3054C187.405 23.0005 187.3 22.6177 187.3 22.157L187.3 14.625Z" fill="rgb(255,255,255)" fill-rule="nonzero" />
	</g>
</svg>
