<svg viewBox="0 0 24 24" xmlns="http://www.w3.org/2000/svg" xmlns:xlink="http://www.w3.org/1999/xlink" width="24.000000" height="24.000000" fill="none">
	<rect id="esim_long" width="24.000000" height="24.000000" x="0.000000" y="0.000000" />
	<path id="svg" d="M6.51461 2.5115C6.51461 2.28886 6.51461 2.17755 6.54636 2.08806C6.60322 1.92778 6.73098 1.80175 6.89348 1.74567C6.98421 1.71436 7.09707 1.71436 7.32278 1.71436C7.5485 1.71436 7.66135 1.71436 7.75208 1.74567C7.91458 1.80175 8.04235 1.92778 8.09921 2.08806C8.13095 2.17755 8.13095 2.28886 8.13095 2.5115L8.13095 4.10578C8.13095 4.32841 8.13095 4.43973 8.09921 4.52922C8.04235 4.6895 7.91458 4.81552 7.75208 4.87161C7.66135 4.90292 7.5485 4.90292 7.32279 4.90292L7.32278 4.90292C7.09707 4.90292 6.98421 4.90292 6.89348 4.87161C6.73098 4.81552 6.60322 4.6895 6.54636 4.52922C6.51461 4.43973 6.51461 4.32841 6.51461 4.10578L6.51461 2.5115ZM8.93728 2.5115C8.93728 2.28886 8.93728 2.17755 8.96902 2.08806C9.02588 1.92778 9.15365 1.80175 9.31615 1.74567C9.40688 1.71436 9.51973 1.71436 9.74545 1.71436C9.97116 1.71436 10.084 1.71436 10.1747 1.74567C10.3372 1.80175 10.465 1.92778 10.5219 2.08806C10.5536 2.17755 10.5536 2.28886 10.5536 2.5115L10.5536 4.10578C10.5536 4.32841 10.5536 4.43973 10.5219 4.52922C10.465 4.6895 10.3372 4.81552 10.1747 4.87161C10.084 4.90292 9.97116 4.90292 9.74545 4.90292C9.51973 4.90292 9.40688 4.90292 9.31615 4.87161C9.15365 4.81552 9.02588 4.6895 8.96902 4.52922C8.93728 4.43973 8.93728 4.32841 8.93728 4.10578L8.93728 2.5115ZM11.3641 2.5115C11.3641 2.28886 11.3641 2.17755 11.3958 2.08806C11.4527 1.92778 11.5805 1.80175 11.743 1.74567C11.8337 1.71436 11.9465 1.71436 12.1723 1.71436C12.398 1.71436 12.5108 1.71436 12.6016 1.74567C12.7641 1.80175 12.8918 1.92778 12.9487 2.08806C12.9804 2.17755 12.9804 2.28886 12.9804 2.5115L12.9804 4.10578C12.9804 4.32841 12.9804 4.43973 12.9487 4.52922C12.8918 4.6895 12.7641 4.81552 12.6016 4.87161C12.5108 4.90292 12.398 4.90292 12.1723 4.90292C11.9465 4.90292 11.8337 4.90292 11.743 4.87161C11.5805 4.81552 11.4527 4.6895 11.3958 4.52922C11.3641 4.43973 11.3641 4.32841 11.3641 4.10578L11.3641 2.5115ZM13.7869 2.5115C13.7869 2.28886 13.7869 2.17755 13.8186 2.08806C13.8755 1.92778 14.0033 1.80175 14.1658 1.74567C14.2565 1.71436 14.3693 1.71436 14.595 1.71436C14.8208 1.71436 14.9336 1.71436 15.0243 1.74567C15.1868 1.80175 15.3146 1.92778 15.3715 2.08806C15.4032 2.17755 15.4032 2.28886 15.4032 2.5115L15.4032 4.10578C15.4032 4.32841 15.4032 4.43973 15.3715 4.52922C15.3146 4.6895 15.1868 4.81552 15.0243 4.87161C14.9336 4.90292 14.8208 4.90292 14.595 4.90292C14.3693 4.90292 14.2565 4.90292 14.1658 4.87161C14.0033 4.81552 13.8755 4.6895 13.8186 4.52922C13.7869 4.43973 13.7869 4.32841 13.7869 4.10578L13.7869 2.5115ZM16.2137 2.5115C16.2137 2.28886 16.2137 2.17755 16.2454 2.08806C16.3023 1.92778 16.4301 1.80175 16.5926 1.74567C16.6833 1.71436 16.7961 1.71436 17.0219 1.71436C17.2476 1.71436 17.3604 1.71436 17.4512 1.74567C17.6137 1.80175 17.7414 1.92778 17.7983 2.08806C17.83 2.17755 17.83 2.28886 17.83 2.5115L17.83 4.10578C17.83 4.32841 17.83 4.43973 17.7983 4.52922C17.7414 4.6895 17.6137 4.81552 17.4512 4.87161C17.3604 4.90292 17.2476 4.90292 17.0219 4.90292C16.7961 4.90292 16.6833 4.90292 16.5926 4.87161C16.4301 4.81552 16.3023 4.6895 16.2454 4.52922C16.2137 4.43973 16.2137 4.32841 16.2137 4.10578L16.2137 2.5115ZM3.42871 11.4767C3.42871 10.805 3.42871 10.4692 3.52939 10.1593C3.5627 10.0568 3.604 9.95713 3.65293 9.86111C3.80084 9.5708 4.03831 9.33333 4.51325 8.85839L6.45845 6.91319C6.93339 6.43825 7.17086 6.20079 7.46117 6.05287C7.55719 6.00394 7.6569 5.96264 7.7594 5.92934C8.06927 5.82865 8.4051 5.82865 9.07676 5.82865L17.2115 5.82865C18.7543 5.82865 19.5257 5.82865 20.0664 6.22153C20.2411 6.34841 20.3946 6.502 20.5215 6.67664C20.9144 7.21739 20.9144 7.98876 20.9144 9.5315L20.9144 14.4686C20.9144 16.0114 20.9144 16.7828 20.5215 17.3235C20.3946 17.4981 20.2411 17.6517 20.0664 17.7786C19.5257 18.1715 18.7543 18.1715 17.2116 18.1715L7.13156 18.1715C5.58882 18.1715 4.81745 18.1715 4.27669 17.7786C4.10205 17.6517 3.94847 17.4981 3.82159 17.3235C3.42871 16.7828 3.42871 16.0114 3.42871 14.4686L3.42871 11.4767ZM6.51461 19.8944C6.51461 19.6717 6.51461 19.5604 6.54636 19.4709C6.60322 19.3106 6.73098 19.1846 6.89348 19.1285C6.9842 19.0972 7.09705 19.0972 7.32274 19.0972L7.32282 19.0972C7.54851 19.0972 7.66136 19.0972 7.75208 19.1285C7.91458 19.1846 8.04235 19.3106 8.09921 19.4709C8.13095 19.5604 8.13095 19.6717 8.13095 19.8944L8.13095 21.4886C8.13095 21.7113 8.13095 21.8226 8.09921 21.9121C8.04235 22.0724 7.91458 22.1984 7.75208 22.2545C7.66135 22.2858 7.5485 22.2858 7.32278 22.2858C7.09707 22.2858 6.98421 22.2858 6.89348 22.2545C6.73098 22.1984 6.60322 22.0724 6.54636 21.9121C6.51461 21.8226 6.51461 21.7113 6.51461 21.4886L6.51461 19.8944ZM8.93728 19.8944C8.93728 19.6717 8.93728 19.5604 8.96902 19.4709C9.02588 19.3106 9.15365 19.1846 9.31615 19.1285C9.40687 19.0972 9.51972 19.0972 9.74541 19.0972L9.74549 19.0972C9.97118 19.0972 10.084 19.0972 10.1747 19.1285C10.3372 19.1846 10.465 19.3106 10.5219 19.4709C10.5536 19.5604 10.5536 19.6717 10.5536 19.8944L10.5536 21.4886C10.5536 21.7113 10.5536 21.8226 10.5219 21.9121C10.465 22.0724 10.3372 22.1984 10.1747 22.2545C10.084 22.2858 9.97116 22.2858 9.74545 22.2858C9.51973 22.2858 9.40688 22.2858 9.31615 22.2545C9.15365 22.1984 9.02588 22.0724 8.96902 21.9121C8.93728 21.8226 8.93728 21.7113 8.93728 21.4886L8.93728 19.8944ZM11.3641 19.8944C11.3641 19.6717 11.3641 19.5604 11.3958 19.4709C11.4527 19.3106 11.5805 19.1846 11.743 19.1285C11.8337 19.0972 11.9465 19.0972 12.1722 19.0972L12.1723 19.0972C12.398 19.0972 12.5108 19.0972 12.6016 19.1285C12.7641 19.1846 12.8918 19.3106 12.9487 19.4709C12.9804 19.5604 12.9804 19.6717 12.9804 19.8944L12.9804 21.4886C12.9804 21.7113 12.9804 21.8226 12.9487 21.9121C12.8918 22.0724 12.7641 22.1984 12.6016 22.2545C12.5108 22.2858 12.398 22.2858 12.1723 22.2858C11.9465 22.2858 11.8337 22.2858 11.743 22.2545C11.5805 22.1984 11.4527 22.0724 11.3958 21.9121C11.3641 21.8226 11.3641 21.7113 11.3641 21.4886L11.3641 19.8944ZM13.7869 19.8944C13.7869 19.6717 13.7869 19.5604 13.8186 19.4709C13.8755 19.3106 14.0033 19.1846 14.1658 19.1285C14.2565 19.0972 14.3693 19.0972 14.595 19.0972L14.5951 19.0972C14.8208 19.0972 14.9336 19.0972 15.0243 19.1285C15.1868 19.1846 15.3146 19.3106 15.3715 19.4709C15.4032 19.5604 15.4032 19.6717 15.4032 19.8944L15.4032 21.4886C15.4032 21.7113 15.4032 21.8226 15.3715 21.9121C15.3146 22.0724 15.1868 22.1984 15.0243 22.2545C14.9336 22.2858 14.8208 22.2858 14.595 22.2858C14.3693 22.2858 14.2565 22.2858 14.1658 22.2545C14.0033 22.1984 13.8755 22.0724 13.8186 21.9121C13.7869 21.8226 13.7869 21.7113 13.7869 21.4886L13.7869 19.8944ZM16.2137 19.8944C16.2137 19.6717 16.2137 19.5604 16.2454 19.4709C16.3023 19.3106 16.4301 19.1846 16.5926 19.1285C16.6833 19.0972 16.7961 19.0972 17.0218 19.0972L17.0219 19.0972C17.2476 19.0972 17.3604 19.0972 17.4512 19.1285C17.6137 19.1846 17.7414 19.3106 17.7983 19.4709C17.83 19.5604 17.83 19.6717 17.83 19.8944L17.83 21.4886C17.83 21.7113 17.83 21.8226 17.7983 21.9121C17.7414 22.0724 17.6137 22.1984 17.4512 22.2545C17.3604 22.2858 17.2476 22.2858 17.0219 22.2858C16.7961 22.2858 16.6833 22.2858 16.5926 22.2545C16.4301 22.1984 16.3023 22.0724 16.2454 21.9121C16.2137 21.8226 16.2137 21.7113 16.2137 21.4886L16.2137 19.8944Z" fill="rgb(255,255,255)" fill-rule="evenodd" />
</svg>
