<svg viewBox="0 0 24 24" xmlns="http://www.w3.org/2000/svg" xmlns:xlink="http://www.w3.org/1999/xlink" width="24.000000" height="24.000000" fill="none">
	<rect id="comments" width="24.000000" height="24.000000" x="0.000000" y="0.000000" fill="rgb(255,255,255)" fill-opacity="0" />
	<path id="svg" d="M10.6127 2.94641C6.39898 2.94641 2.98291 6.03554 2.98291 9.84641C2.98291 11.8037 3.89025 13.564 5.33878 14.8179C5.13101 15.4948 4.69761 16.168 3.90141 16.768L3.90006 16.7693C3.83439 16.7942 3.77785 16.8383 3.73794 16.8958C3.69802 16.9533 3.67661 17.0215 3.67653 17.0914C3.67653 17.1829 3.71307 17.2707 3.77811 17.3354C3.84315 17.4001 3.93136 17.4364 4.02334 17.4364C4.04704 17.4361 4.07064 17.4334 4.09378 17.4283C5.43945 17.4244 6.58761 16.8526 7.50092 16.1359C7.93432 16.3113 8.38673 16.4559 8.85835 16.5564C8.64749 15.963 8.53186 15.3312 8.53186 14.6764C8.53186 11.2519 11.6434 8.46641 15.4681 8.46641C16.4266 8.46641 17.3404 8.6416 18.1721 8.95831C17.6893 5.56765 14.4928 2.94641 10.6127 2.94641ZM15.4681 9.84641C13.9964 9.84641 12.585 10.3553 11.5443 11.2611C10.5037 12.1669 9.9191 13.3954 9.9191 14.6764C9.9191 15.9574 10.5037 17.1859 11.5443 18.0917C12.585 18.9975 13.9964 19.5064 15.4681 19.5064C16.1775 19.5054 16.8802 19.386 17.5381 19.1547C18.3887 19.7458 19.4181 20.1842 20.597 20.1883C20.6211 20.1936 20.6456 20.1963 20.6702 20.1964C20.7622 20.1964 20.8504 20.1601 20.9154 20.0954C20.9805 20.0307 21.017 19.9429 21.017 19.8514C21.0169 19.7808 20.995 19.7119 20.9543 19.6541C20.9136 19.5963 20.8561 19.5522 20.7894 19.528C20.1546 19.0485 19.7478 18.5208 19.5038 17.9836C20.4735 17.0891 21.0147 15.9063 21.017 14.6764C21.017 13.3954 20.4324 12.1669 19.3918 11.2611C18.3511 10.3553 16.9397 9.84641 15.4681 9.84641Z" fill="rgb(255,255,255)" fill-opacity="0.879999995" fill-rule="nonzero" />
</svg>
