<svg viewBox="0 0 24 24" xmlns="http://www.w3.org/2000/svg" xmlns:xlink="http://www.w3.org/1999/xlink" width="24.000000" height="24.000000" fill="none">
	<rect id="basket" width="24.000000" height="24.000000" x="0.000000" y="0.000000" fill="rgb(255,255,255)" fill-opacity="0" />
	<path id="svg" d="M20.538 17.4114L19.143 4.85716C19.143 4.06787 18.5037 3.42859 17.7144 3.42859L12.0001 3.42859L6.28585 3.42859C5.49657 3.42859 4.85728 4.06787 4.85728 4.85716L3.46228 17.4114C3.44157 17.5093 3.42871 17.61 3.42871 17.7143C3.42871 18.5036 4.068 19.1429 4.85728 19.1429L12.0001 19.1429L19.143 19.1429C19.9323 19.1429 20.5716 18.5036 20.5716 17.7143C20.5716 17.61 20.5587 17.5093 20.538 17.4114ZM15.5716 6.9343L15.5716 7.7143C15.5716 9.68359 13.9694 11.2857 12.0001 11.2857C10.0309 11.2857 8.42871 9.68359 8.42871 7.7143L8.42871 6.9343C8.01371 6.78716 7.71443 6.3943 7.71443 5.92859C7.71443 5.33716 8.19442 4.85716 8.78585 4.85716C9.37728 4.85716 9.85728 5.33716 9.85728 5.92859L9.85728 7.7143C9.85728 8.89573 10.8187 9.85716 12.0001 9.85716C13.1816 9.85716 14.143 8.89573 14.143 7.7143L14.143 5.92859C14.143 5.33716 14.623 4.85716 15.2144 4.85716C15.8059 4.85716 16.2859 5.33716 16.2859 5.92859C16.2859 6.3943 15.9866 6.78716 15.5716 6.9343Z" fill="rgb(255,255,255)" fill-opacity="0.879999995" fill-rule="nonzero" />
</svg>
