<svg viewBox="0 0 24 24" xmlns="http://www.w3.org/2000/svg" xmlns:xlink="http://www.w3.org/1999/xlink" width="24.000000" height="24.000000" fill="none">
	<rect id="user" width="24.000000" height="24.000000" x="0.000000" y="0.000000" fill="rgb(255,255,255)" fill-opacity="0" />
	<path id="svg" d="M12.0008 2.57141C9.28922 2.57141 7.09148 4.7736 7.09148 7.49067L7.09148 8.31054C7.09148 11.0276 9.28922 13.2298 12.0008 13.2298C14.7124 13.2298 16.9101 11.0276 16.9101 8.31054L16.9101 7.49067C16.9101 4.7736 14.7124 2.57141 12.0008 2.57141ZM11.9992 15.6894C8.72141 15.6894 4.51577 17.466 3.30562 19.0426C2.55777 20.0174 3.26968 21.4286 4.49619 21.4286L19.5038 21.4286C20.7303 21.4286 21.4422 20.0174 20.6944 19.0426C19.4842 17.4668 15.277 15.6894 11.9992 15.6894Z" fill="rgb(255,255,255)" fill-opacity="0.879999995" fill-rule="nonzero" />
	<path id="svg" d="M7.09148 7.49067C7.09148 4.7736 9.28922 2.57141 12.0008 2.57141C14.7124 2.57141 16.9101 4.7736 16.9101 7.49067L16.9101 8.31054C16.9101 11.0276 14.7124 13.2298 12.0008 13.2298C9.28922 13.2298 7.09148 11.0276 7.09148 8.31054L7.09148 7.49067ZM8.09148 8.31054L8.09148 7.49067Q8.09148 6.67453 8.38075 5.97864Q8.66715 5.28965 9.23712 4.71853Q9.81164 4.14285 10.5055 3.85608Q11.1943 3.57141 12.0008 3.57141Q12.8073 3.57141 13.4961 3.85608Q14.19 4.14286 14.7645 4.71853Q15.3344 5.28965 15.6208 5.97864Q15.9101 6.67453 15.9101 7.49067L15.9101 8.31054Q15.9101 9.12667 15.6208 9.82256Q15.3344 10.5116 14.7645 11.0827Q14.19 11.6584 13.4961 11.9451Q12.8073 12.2298 12.0008 12.2298Q11.1943 12.2298 10.5055 11.9451Q9.81163 11.6584 9.23712 11.0827Q8.66716 10.5116 8.38075 9.82257Q8.09148 9.12668 8.09148 8.31054ZM3.30562 19.0426C4.51577 17.466 8.72141 15.6894 11.9992 15.6894C15.277 15.6894 19.4842 17.4668 20.6944 19.0426C21.4422 20.0174 20.7303 21.4286 19.5038 21.4286L4.49619 21.4286C3.26968 21.4286 2.55777 20.0174 3.30562 19.0426ZM4.09889 19.6515L4.09904 19.6513Q4.86773 18.65 7.24657 17.704Q9.79782 16.6894 11.9992 16.6894Q14.2004 16.6894 16.7527 17.7043Q19.1325 18.6506 19.901 19.6513Q19.9871 19.7636 20.0006 19.884Q20.0152 20.0139 19.9454 20.1532Q19.8747 20.2944 19.7603 20.3632Q19.6517 20.4286 19.5038 20.4286L4.49619 20.4286Q4.34829 20.4286 4.2397 20.3632Q4.12535 20.2944 4.05458 20.1532Q3.98478 20.0139 3.99935 19.884Q4.01287 19.7637 4.09889 19.6515Z" fill="rgb(255,255,255)" fill-rule="evenodd" />
</svg>
